<svg width="109" height="29" viewBox="0 0 109 29" fill="none" xmlns="http://www.w3.org/2000/svg">
<path d="M16.6631 0L0 9.54551L16.6631 19.0946V0Z" fill="#007AC2"/>
<path d="M4.64709 22.057L16.663 28.9445V21.3137L4.64709 14.4262V22.057Z" fill="#007AC2"/>
<path d="M16.663 0L33.3261 9.54551L16.663 19.0946V0Z" fill="#004A99"/>
<path d="M28.679 22.057L16.663 28.9445V21.3137L28.679 14.4262V22.057Z" fill="#004A99"/>
<path d="M30.661 13.2901L33.3261 11.7646V19.4414L30.661 17.9018V13.2901Z" fill="#004A99"/>
<path d="M49.6529 6.53003V9.11018H48.1628L48.0814 8.02716H46.2976V14.8509L47.3346 15.0491V16.2136H43.3211V15.0491L44.3581 14.8509V8.02716H42.5813L42.4999 9.11018H41.017V6.53003H49.6529Z" fill="white"/>
<path d="M54.6327 6.53003C55.7334 6.53003 56.5935 6.78132 57.2199 7.2839C57.8464 7.78648 58.1579 8.48373 58.1579 9.36855C58.1579 9.85698 58.0269 10.2782 57.765 10.6392C57.5031 11.0002 57.1208 11.2904 56.6147 11.5098C57.1881 11.6797 57.5986 11.9593 57.8499 12.3522C58.1012 12.7451 58.2251 13.2299 58.2251 13.8104V14.3023C58.2251 14.5147 58.2676 14.6811 58.3525 14.7978C58.4375 14.9146 58.5755 14.9854 58.7702 15.0067L59.0108 15.0385V16.21H58.0057C57.3721 16.21 56.9262 16.0401 56.6678 15.6968C56.4094 15.3571 56.282 14.9146 56.282 14.3731V13.821C56.282 13.3503 56.1581 12.9822 55.9069 12.7132C55.6556 12.4442 55.3016 12.3026 54.8451 12.292H53.2559V14.8439L54.2929 15.0421V16.2065H50.2829V15.0421L51.3128 14.8439V7.90328L50.2829 7.70508V6.53357H51.3128H54.6327V6.53003ZM53.2559 10.802H54.6009C55.1424 10.802 55.5458 10.6852 55.8184 10.4551C56.0874 10.2251 56.2254 9.89237 56.2254 9.45704C56.2254 9.0217 56.0909 8.67485 55.8219 8.41648C55.5529 8.15811 55.1565 8.02716 54.6362 8.02716H53.2595V10.802H53.2559Z" fill="white"/>
<path d="M59.5453 15.0491L60.2355 14.95L63.1802 6.53003H65.1692L68.0963 14.95L68.7864 15.0491V16.2136H65.4878V15.0491L66.1602 14.9288L65.7355 13.598H62.5962L62.1715 14.9288L62.8439 15.0491V16.2136H59.5453V15.0491ZM63.0563 12.1717H65.279L64.1889 8.75979H64.1499L63.0563 12.1717Z" fill="white"/>
<path d="M73.7839 6.53003C74.966 6.53003 75.9429 6.90873 76.7109 7.66261C77.4789 8.42002 77.8612 9.38979 77.8612 10.5719V12.1752C77.8612 13.3644 77.4789 14.3342 76.7109 15.0845C75.9429 15.8349 74.9696 16.21 73.7839 16.21H69.427V15.0456L70.4569 14.8474V7.90328L69.427 7.70508V6.53357H70.4569H73.7839V6.53003ZM72.4 8.02716V14.7235H73.6848C74.382 14.7235 74.9271 14.4899 75.3199 14.0192C75.7128 13.5485 75.911 12.9362 75.911 12.1788V10.5613C75.911 9.81097 75.7128 9.20221 75.3199 8.73148C74.9235 8.26075 74.3785 8.02716 73.6848 8.02716H72.4Z" fill="white"/>
<path d="M85.0637 11.9593H81.7863V14.727H84.9115L84.9964 13.5697H86.4723V16.2171H78.8132V15.0527L79.8432 14.8545V7.90327L78.8132 7.70507V6.53355H79.8432H86.4581V9.18803H84.9681L84.8831 8.03068H81.7827V10.4657H85.0601V11.9593H85.0637Z" fill="white"/>
<path d="M96.8531 9.05354L96.8142 9.04646L94.2199 16.2136H92.9174L90.3373 9.07124L90.2983 9.07832L90.4859 13.329V14.8509L91.5229 15.0491V16.2136H87.5129V15.0491L88.5428 14.8509V7.90327L87.5129 7.70507V6.53355H88.5428H91.077L93.5439 13.6688H93.5828L96.0709 6.53355H99.6492V7.70507L98.6122 7.90327V14.8509L99.6492 15.0491V16.2136H95.6391V15.0491L96.6691 14.8509V13.329L96.8531 9.05354Z" fill="white"/>
<path d="M103.868 7.70154L103.075 7.8148L104.579 10.9931H104.618L106.123 7.8148L105.337 7.70154V6.53003H109V7.70154L108.175 7.83603L105.542 12.8088V14.8509L106.579 15.0491V16.2136H102.569V15.0491L103.606 14.8509V12.7097L101.019 7.83603L100.201 7.70154V6.53003H103.864V7.70154H103.868Z" fill="white"/>
<path d="M44.2378 19.7113H43.3069V19.2335H45.6854V19.7113H44.7545V22.1676H44.2342V19.7113H44.2378Z" fill="white"/>
<path d="M47.678 19.2326H48.984C49.6706 19.2326 50.0741 19.6007 50.0741 20.167C50.0741 20.6483 49.7839 20.9385 49.3733 21.0553L50.1661 22.1667H49.5574L48.8283 21.1438H48.1912V22.1667H47.6744V19.2326H47.678ZM48.9486 20.6872C49.3167 20.6872 49.5503 20.4961 49.5503 20.1882C49.5503 19.8732 49.3238 19.7033 48.9415 19.7033H48.1912V20.6872H48.9486Z" fill="white"/>
<path d="M53.1922 19.2114H53.67L54.9619 22.1667H54.4168L54.1195 21.4588H52.7321L52.4313 22.1667H51.9039L53.1922 19.2114ZM53.9284 21.0022L53.4223 19.8307L52.9197 21.0022H53.9284Z" fill="white"/>
<path d="M56.9085 19.2326H58.0022C58.9224 19.2326 59.5594 19.8661 59.5594 20.6979C59.5594 21.5225 58.9224 22.1631 58.0022 22.1631H56.9085V19.2326ZM58.0022 21.6959C58.618 21.6959 59.0215 21.2818 59.0215 20.6979C59.0215 20.1245 58.618 19.6998 58.0022 19.6998H57.4252V21.6959H58.0022Z" fill="white"/>
<path d="M61.6618 19.2326H62.1785V22.1667H61.6618V19.2326Z" fill="white"/>
<path d="M64.4083 19.2326H64.8861L66.4575 21.2606V19.2326H66.9636V22.1667H66.5319L64.9144 20.0785V22.1667H64.4083V19.2326Z" fill="white"/>
<path d="M69.0342 20.7014C69.0342 19.8803 69.6642 19.183 70.5455 19.183C71.0551 19.183 71.3701 19.3246 71.671 19.5794L71.3453 19.9688C71.1188 19.7776 70.8959 19.6538 70.5242 19.6538C69.9827 19.6538 69.5722 20.128 69.5722 20.6979C69.5722 21.2996 69.9686 21.7455 70.5702 21.7455C70.8463 21.7455 71.0976 21.657 71.2781 21.5225V20.9739H70.5278V20.528H71.7771V21.7597C71.4869 22.0074 71.0728 22.2162 70.5525 22.2162C69.6359 22.2162 69.0342 21.5615 69.0342 20.7014Z" fill="white"/>
<path d="M77.6347 19.2114H78.1125L79.4043 22.1667H78.8593L78.562 21.4588H77.1746L76.8737 22.1667H76.3464L77.6347 19.2114ZM78.3744 21.0022L77.8647 19.8272L77.3622 20.9987H78.3744V21.0022Z" fill="white"/>
<path d="M81.043 20.7014C81.043 19.8661 81.6659 19.183 82.5543 19.183C83.0958 19.183 83.4214 19.3706 83.7011 19.6396L83.3719 20.0219C83.1383 19.8024 82.887 19.6573 82.5508 19.6573C81.988 19.6573 81.5845 20.1174 81.5845 20.7014C81.5845 21.2748 81.9916 21.7455 82.5508 21.7455C82.9118 21.7455 83.1418 21.6004 83.3931 21.3633L83.7258 21.6995C83.4214 22.018 83.0852 22.2198 82.5366 22.2198C81.6801 22.2162 81.043 21.5508 81.043 20.7014Z" fill="white"/>
<path d="M86.7484 19.2114H87.2262L88.518 22.1667H87.973L87.6757 21.4588H86.2883L85.9874 22.1667H85.4601L86.7484 19.2114ZM87.4881 21.0022L86.982 19.8307L86.4794 21.0022H87.4881Z" fill="white"/>
<path d="M90.4682 19.2326H91.5618C92.4821 19.2326 93.1191 19.8661 93.1191 20.6979C93.1191 21.5225 92.4821 22.1631 91.5618 22.1631H90.4682V19.2326ZM91.5618 21.6959C92.1777 21.6959 92.5812 21.2818 92.5812 20.6979C92.5812 20.1245 92.1777 19.6998 91.5618 19.6998H90.9849V21.6959H91.5618Z" fill="white"/>
<path d="M95.1896 19.2326H97.3628V19.6927H95.7028V20.4537H97.1752V20.9138H95.7028V21.703H97.384V22.1631H95.1896V19.2326Z" fill="white"/>
<path d="M99.4439 19.2326H99.9924L100.884 20.62L101.776 19.2326H102.325V22.1667H101.808V20.0643L100.881 21.4482H100.863L99.9464 20.0749V22.1702H99.4403V19.2326H99.4439Z" fill="white"/>
<path d="M105.39 21.0093L104.226 19.2326H104.834L105.655 20.5315L106.484 19.2326H107.075L105.91 20.9952V22.1631H105.39V21.0093Z" fill="white"/>
</svg>
