<svg width="148" height="24" viewBox="0 0 148 24" fill="none" xmlns="http://www.w3.org/2000/svg">
<g clip-path="url(#clip0)">
<path d="M103.153 4.95107H106.675L109.204 15.0311L112.027 4.95107H114.752L117.575 15.0311L120.105 4.95107H123.627L119.588 19.3511H115.773L113.383 10.8619L111.021 19.3373H107.206L103.153 4.95107ZM139.349 15.6619C139.349 16.5533 140.118 16.6219 141.515 16.5533V19.3373C137.407 19.7488 136.219 18.5419 136.219 15.6619V4.95107H139.363V15.6619H139.349ZM145.778 15.6619C145.778 16.5533 146.547 16.6219 147.944 16.5533V19.3373C143.835 19.7488 142.647 18.5419 142.647 15.6619V4.95107H145.792V15.6619H145.778ZM129.091 16.8686C129.958 16.8686 130.684 16.5394 131.104 16.0869L133.619 17.4994C132.599 18.8983 131.048 19.6251 129.049 19.6251C125.472 19.6251 123.249 17.2663 123.249 14.1943C123.249 11.1223 125.5 8.77715 128.812 8.77715C131.872 8.77715 134.136 11.0949 134.136 14.208C134.136 14.6469 134.094 15.0583 134.011 15.4423H126.576C126.967 16.4983 127.931 16.8686 129.091 16.8686ZM131.02 13.1383C130.684 11.9451 129.748 11.52 128.798 11.52C127.61 11.52 126.813 12.096 126.52 13.1383H131.02Z" fill="#CD72B2"/>
<path d="M12.3822 1.8927H7.7424C6.63834 1.8927 5.66006 2.5647 5.28272 3.57956L0 17.8287H4.63985C5.74391 17.8287 6.72219 17.1567 7.09953 16.1418L9.95052 8.47556L7.97998 7.77613L11.0266 5.58184L12.3822 1.8927Z" fill="url(#paint0_linear)"/>
<path d="M23.5906 6.07559C22.4865 6.07559 21.5083 6.74759 21.1309 7.76245L18.1262 15.8676L19.0206 19.4744L17.0501 18.775L15.8482 22.0116H20.4881C21.5921 22.0116 22.5704 21.3396 22.9477 20.3247L28.2305 6.07559H23.5906Z" fill="url(#paint1_linear)"/>
<path d="M13.109 17.376L16.1556 15.1817L21.7877 -1.90735e-06H17.1479C16.0438 -1.90735e-06 15.0655 0.671998 14.6882 1.68686L12.9832 6.26743L13.8776 9.87428L11.9071 9.17486L6.42871 23.9589H11.0686C12.1726 23.9589 13.1509 23.2869 13.5282 22.272L15.0795 18.0754L13.109 17.376Z" fill="url(#paint2_linear)"/>
<path d="M62.4981 9.06515V19.3509H59.3537V18.3771C58.6689 19.1589 57.6347 19.6389 56.2371 19.6389C53.498 19.6389 51.2339 17.28 51.2339 14.208C51.2339 11.136 53.484 8.77715 56.2371 8.77715C57.6347 8.77715 58.6689 9.25715 59.3537 10.0389V9.06515H62.4981ZM59.3537 14.208C59.3537 12.672 58.3055 11.6983 56.866 11.6983C55.4266 11.6983 54.3644 12.6583 54.3644 14.208C54.3644 15.7577 55.4126 16.7177 56.8521 16.7177C58.2915 16.7177 59.3537 15.744 59.3537 14.208ZM75.8448 4.95107V19.3511H72.7003V18.3774C72.0155 19.1591 70.9813 19.6391 69.5837 19.6391C66.8445 19.6391 64.5805 17.2802 64.5805 14.2082C64.5805 11.1362 66.8305 8.77735 69.5697 8.77735C70.9673 8.77735 72.0015 9.25735 72.6863 10.0391V4.96478H75.8448V4.95107ZM72.7003 14.2082C72.7003 12.6722 71.6521 11.6985 70.2127 11.6985C68.7731 11.6985 67.725 12.6722 67.725 14.2082C67.725 15.7442 68.7731 16.7179 70.2127 16.7179C71.6521 16.7179 72.7003 15.7442 72.7003 14.2082ZM83.7549 16.8686C84.6213 16.8686 85.3481 16.5394 85.7673 16.0869L88.2829 17.4994C87.2627 18.8983 85.7114 19.6114 83.7129 19.6114C80.1352 19.6114 77.9131 17.2526 77.9131 14.1806C77.9131 11.1086 80.1632 8.77715 83.4754 8.77715C86.536 8.77715 88.8 11.0949 88.8 14.208C88.8 14.6331 88.7581 15.0446 88.6742 15.4423H81.2393C81.6306 16.512 82.5949 16.8686 83.7549 16.8686ZM85.6835 13.1383C85.3481 11.9451 84.4117 11.52 83.4614 11.52C82.2735 11.52 81.4769 12.096 81.1834 13.1383H85.6835ZM101.518 4.95107V19.3511H98.3732V18.3774C97.6884 19.1591 96.6542 19.6391 95.2567 19.6391C92.5175 19.6391 90.2535 17.2802 90.2535 14.2082C90.2535 11.1362 92.5035 8.77735 95.2427 8.77735C96.6402 8.77735 97.6744 9.25735 98.3592 10.0391V4.96478H101.518V4.95107ZM98.3732 14.2082C98.3732 12.6722 97.325 11.6985 95.8856 11.6985C94.4461 11.6985 93.3979 12.6722 93.3979 14.2082C93.3979 15.7442 94.4461 16.7179 95.8856 16.7179C97.325 16.7179 98.3732 15.7442 98.3732 14.2082ZM50.3116 9.06535H44.0227V19.3373H47.1671V12.0414H50.3116V9.06535ZM43.3938 8.11907H40.2493V19.3373H36.8952V8.11907H33.7647L32.5628 4.95107H44.5817L43.3938 8.11907Z" fill="white"/>
</g>
<defs>
<linearGradient id="paint0_linear" x1="-1.87935" y1="13.2505" x2="24.6398" y2="1.6941" gradientUnits="userSpaceOnUse">
<stop offset="0.3" stop-color="#CD72B2"/>
<stop offset="1" stop-color="#4F1983"/>
</linearGradient>
<linearGradient id="paint1_linear" x1="2.11201" y1="22.4097" x2="28.6312" y2="10.8533" gradientUnits="userSpaceOnUse">
<stop offset="0.3" stop-color="#CD72B2"/>
<stop offset="1" stop-color="#4F1983"/>
</linearGradient>
<linearGradient id="paint2_linear" x1="0.123828" y1="17.8472" x2="26.643" y2="6.29086" gradientUnits="userSpaceOnUse">
<stop offset="0.3" stop-color="#CD72B2"/>
<stop offset="1" stop-color="#4F1983"/>
</linearGradient>
<clipPath id="clip0">
<rect width="148" height="24" fill="white"/>
</clipPath>
</defs>
</svg>
