<svg width="146" height="35" viewBox="0 0 146 35" fill="none" xmlns="http://www.w3.org/2000/svg">
<path d="M12.6072 3.39409C14.734 4.35793 16.8497 5.42999 18.9167 6.62034C20.9837 7.8107 22.9678 9.08451 24.8801 10.4418L12.6072 17.5032L0.346191 10.4555L12.6072 3.39409Z" fill="url(#paint0_linear)"/>
<path d="M12.608 17.4996L24.869 10.4528L24.7493 24.6417C22.8852 25.9629 20.9413 27.2089 18.9176 28.3797C16.8503 29.57 14.7471 30.6455 12.608 31.6059V17.4996Z" fill="url(#paint1_linear)"/>
<path d="M12.6081 17.4996V31.605L0.346183 24.5702C0.119077 22.2371 0.0036828 19.8803 0 17.4996C0 15.1152 0.119691 12.762 0.346183 10.4528L12.6071 17.4996H12.6081Z" fill="url(#paint2_linear)"/>
<path d="M12.6072 3.39408L0.346191 10.4409C0.655041 7.29528 1.17393 4.17369 1.89941 1.09682C1.94447 0.907807 2.02785 0.729966 2.14443 0.574221C2.26101 0.418477 2.40832 0.288117 2.57733 0.191151C2.74633 0.0941852 2.93345 0.03266 3.1272 0.0103553C3.32095 -0.0119495 3.51723 0.00543723 3.70398 0.0614473C6.74181 0.976833 9.71594 2.09011 12.6072 3.39408Z" fill="url(#paint3_linear)"/>
<path d="M0.346191 24.5702L12.6072 31.605C9.71594 32.909 6.74181 34.0223 3.70398 34.9377C3.51723 34.9937 3.32095 35.011 3.1272 34.9887C2.93345 34.9664 2.74633 34.9049 2.57733 34.808C2.40832 34.711 2.26101 34.5806 2.14443 34.4249C2.02785 34.2691 1.94447 34.0913 1.89941 33.9023C1.17392 30.8294 0.655026 27.7118 0.346191 24.5702Z" fill="url(#paint4_linear)"/>
<path d="M24.869 10.4528C27.4515 12.2902 29.9071 14.2985 32.219 16.4642C32.3605 16.5973 32.4732 16.7578 32.5502 16.9358C32.6273 17.1139 32.667 17.3057 32.667 17.4996C32.667 17.6934 32.6273 17.8852 32.5502 18.0633C32.4732 18.2413 32.3605 18.4018 32.219 18.5349C29.8674 20.7324 27.3724 22.7725 24.7502 24.6417L24.869 10.4528Z" fill="url(#paint5_linear)"/>
<path d="M121.011 13.1196L121.441 10.0245H118.382L117.952 13.1196H121.011Z" fill="white"/>
<path d="M82.352 15.8094C82.402 15.4544 82.551 15.1205 82.7819 14.8455C82.9991 14.6358 83.2817 14.5063 83.5829 14.4787C84.0908 14.425 84.6017 14.405 85.1122 14.4191H90.9918C90.8601 15.3004 90.7644 15.8947 90.6926 16.1808C90.6203 16.5137 90.4546 16.8193 90.2147 17.0621C89.929 17.2577 89.5936 17.369 89.2471 17.3831C88.9599 17.4069 88.3743 17.4308 87.4784 17.4308H86.2116C85.9965 17.4275 85.7813 17.4355 85.5671 17.4546C85.4741 17.4623 85.3841 17.4908 85.3037 17.5381C85.2576 17.5662 85.2185 17.6044 85.1895 17.6499C85.1605 17.6954 85.1422 17.7468 85.1362 17.8003C85.1122 17.8835 85.0763 18.062 85.0284 18.3359L84.5147 22.0381C84.395 22.8479 84.3112 23.3954 84.2514 23.6687C84.2031 23.9861 84.0804 24.2877 83.8932 24.5491C83.7153 24.7483 83.4754 24.8822 83.2119 24.9296C82.4833 25.0262 81.7479 25.0621 81.0133 25.0369L82.0887 17.4308C82.2102 16.6173 82.2921 16.0827 82.352 15.8094Z" fill="white"/>
<path d="M101.987 14.4521C102.214 14.4794 102.433 14.5524 102.631 14.6667C102.753 14.7812 102.846 14.9229 102.902 15.0801C102.958 15.2373 102.976 15.4056 102.954 15.571C102.951 15.6706 102.943 15.7701 102.93 15.869C102.918 16.1441 102.858 16.6549 102.762 17.4161L102.416 19.8207L102.117 22.0106C102.048 22.6782 101.924 23.3391 101.748 23.9869C101.681 24.2562 101.531 24.4977 101.318 24.6775C101.11 24.8266 100.868 24.9212 100.613 24.9526C99.9271 25.0295 99.2363 25.0574 98.5462 25.036H93.8718C93.2053 25.058 92.5381 25.0301 91.8758 24.9526C91.633 24.924 91.4084 24.8102 91.2423 24.6316C91.1039 24.4069 91.0411 24.1441 91.0628 23.8814V23.7466C91.0747 23.4605 91.1465 22.8773 91.2542 22.0042L91.3859 21.2064C91.478 20.4324 91.5654 19.9225 91.6253 19.6593C91.6643 19.2834 91.814 18.9274 92.0553 18.6358C92.2881 18.4282 92.5812 18.2997 92.8922 18.269C93.4428 18.2145 93.9963 18.1946 94.5495 18.2094H99.0425C99.1583 18.2115 99.2742 18.2036 99.3886 18.1855C99.4265 18.1828 99.4634 18.1718 99.4965 18.1532C99.5296 18.1347 99.5581 18.1091 99.5801 18.0782C99.609 18.022 99.6292 17.9617 99.64 17.8994C99.652 17.8159 99.6759 17.661 99.6998 17.4115H94.9674C94.4452 17.4235 93.9227 17.4075 93.4022 17.3638C93.0964 17.343 92.81 17.2069 92.6012 16.9832C92.4375 16.6789 92.3473 16.3407 92.3379 15.9956C92.3259 15.7333 92.314 15.3288 92.314 14.7575V14.3907H100.644C101.092 14.3845 101.541 14.405 101.987 14.4521ZM94.601 21.2256C94.5413 21.2357 94.4867 21.265 94.4454 21.3091C94.3886 21.4065 94.3596 21.5175 94.3616 21.63C94.3496 21.7016 94.3257 21.8208 94.3018 21.9969H98.5213C98.6372 21.9991 98.7531 21.9911 98.8675 21.973C98.9272 21.9629 98.9818 21.9336 99.0231 21.8896C99.0593 21.8215 99.0874 21.7495 99.1069 21.675C99.1189 21.6035 99.1428 21.4485 99.1668 21.199H94.9242C94.8158 21.1964 94.7075 21.205 94.601 21.2247V21.2256Z" fill="white"/>
<path d="M113.351 11.2268C113.405 10.9185 113.556 10.6351 113.781 10.417C114.045 10.2184 114.36 10.0988 114.69 10.0722C114.976 10.0484 115.586 10.0245 116.518 10.0245L114.953 21.2128L114.845 22.0106C114.726 22.9277 114.642 23.522 114.569 23.7842C114.504 24.1379 114.323 24.4603 114.055 24.7013C113.833 24.8376 113.585 24.9268 113.326 24.9636C112.69 25.0196 112.052 25.0395 111.414 25.0232H106.586C105.94 25.0441 105.294 25.0162 104.652 24.9397C104.411 24.9097 104.186 24.8055 104.008 24.6417C103.844 24.4185 103.767 24.1432 103.792 23.8677C103.792 23.7365 103.804 23.5816 103.816 23.3917C103.84 23.1533 103.908 22.6893 104.008 21.9987C104.068 21.4989 104.163 20.7368 104.306 19.7134C104.449 18.6899 104.569 17.9278 104.652 17.4042C104.772 16.5229 104.856 15.9277 104.929 15.6425C104.989 15.3343 105.129 15.047 105.335 14.8089C105.56 14.6157 105.84 14.4954 106.136 14.464C106.698 14.3913 107.265 14.3634 107.832 14.3806H112.84L113.032 13.0353C113.107 12.4274 113.213 11.8237 113.351 11.2268ZM107.973 17.4399C107.932 17.4427 107.892 17.4536 107.855 17.472C107.818 17.4904 107.785 17.516 107.758 17.5472C107.699 17.6141 107.661 17.6972 107.65 17.7857C107.638 17.8572 107.614 18.0003 107.59 18.2139L107.053 22.0115H110.901C111.089 22.0146 111.276 22.0067 111.463 21.9877C111.533 21.9796 111.6 21.9505 111.654 21.9042C111.724 21.8324 111.77 21.7408 111.786 21.642C111.81 21.5704 111.846 21.4277 111.894 21.2137L112.407 17.4161H108.44C108.284 17.4139 108.128 17.4219 107.973 17.4399Z" fill="white"/>
<path d="M120.844 14.3925L120.222 18.7257L119.768 22.0271C119.649 22.7608 119.565 23.2771 119.505 23.5504C119.464 23.8532 119.362 24.1447 119.206 24.4078C119.109 24.551 118.982 24.6711 118.833 24.7595C118.684 24.848 118.517 24.9026 118.345 24.9196C117.66 25.0147 116.969 25.0506 116.278 25.0269L117.055 19.5868L117.784 14.3971L120.844 14.3925Z" fill="white"/>
<path d="M122.601 15.5471C122.671 15.2186 122.853 14.9242 123.115 14.7135C123.348 14.5618 123.615 14.4716 123.892 14.4512C124.155 14.4274 124.561 14.4035 125.123 14.4035H131.182C131.597 14.3945 132.012 14.4104 132.425 14.4512C132.65 14.4756 132.864 14.5578 133.047 14.6896C133.144 14.7887 133.22 14.9061 133.272 15.0348C133.323 15.1636 133.348 15.3013 133.346 15.4398V15.5948C133.316 16.2129 133.252 16.8288 133.154 17.4399L133.047 18.214L132.617 21.2403L132.509 22.0381C132.389 22.9075 132.305 23.4788 132.233 23.7521C132.182 24.0454 132.055 24.3204 131.864 24.55C131.652 24.7722 131.369 24.9149 131.063 24.9544C130.385 25.0305 129.703 25.0584 129.02 25.0379L129.45 22.0381L129.558 21.2403L129.988 18.214L130.096 17.4399H126.164C126.005 17.4272 125.846 17.4272 125.687 17.4399C125.611 17.4397 125.536 17.4604 125.471 17.4996C125.397 17.5716 125.343 17.6622 125.316 17.7618C125.304 17.8334 125.28 17.9884 125.256 18.214L124.826 21.2403L124.718 22.0381C124.636 22.6668 124.52 23.2907 124.372 23.9071C124.307 24.2188 124.138 24.4997 123.894 24.705C123.635 24.8708 123.34 24.9729 123.033 25.003C122.746 25.0269 122.149 25.0507 121.229 25.0507L121.659 22.051L121.766 21.2531L122.196 18.2268L122.304 17.4528C122.434 16.4642 122.529 15.8332 122.601 15.5471Z" fill="white"/>
<path d="M135.304 15.7617C135.371 15.4144 135.527 15.0903 135.758 14.8217C136.05 14.599 136.404 14.4709 136.771 14.4549C137.057 14.431 137.644 14.4072 138.516 14.4072H143.248C143.743 14.3954 144.238 14.4113 144.73 14.4549C144.92 14.4647 145.108 14.4927 145.292 14.5383C145.452 14.5702 145.601 14.6443 145.722 14.7529C145.811 14.8397 145.881 14.9435 145.929 15.0581C145.976 15.1727 146 15.2957 145.998 15.4196V16.2771C145.986 16.4917 145.95 16.8723 145.891 17.4317L145.508 20.1095L145.245 22.0143L144.815 25.014L144.624 26.4071C144.531 27.1691 144.444 27.6809 144.384 27.9661C144.329 28.3246 144.185 28.664 143.966 28.9538C143.746 29.178 143.451 29.3135 143.138 29.3343C142.475 29.4106 141.808 29.4385 141.141 29.4178H133.356C133.548 28.5007 133.69 27.9065 133.786 27.6203C133.863 27.2388 134.086 26.902 134.407 26.6803C134.667 26.544 134.952 26.4628 135.244 26.4419C135.521 26.4181 135.981 26.3942 136.643 26.3942H140.36C140.742 26.3942 141.004 26.3823 141.137 26.3704C141.258 26.3535 141.371 26.2993 141.459 26.2154C141.549 26.1065 141.607 25.9747 141.627 25.8348C141.651 25.7037 141.699 25.4304 141.758 25.0012H136.811C135.998 25.0012 135.436 24.9893 135.153 24.9535C134.711 24.882 134.424 24.727 134.316 24.4775C134.218 24.2783 134.173 24.0573 134.185 23.8356C134.185 23.7044 134.197 23.5605 134.209 23.4073C134.233 23.145 134.292 22.681 134.376 21.9904C134.424 21.7153 134.468 21.3237 134.544 20.7882C134.619 20.2526 134.675 19.8711 134.711 19.6097C134.915 18.169 135.01 17.4317 135.01 17.4088C135.149 16.5944 135.244 16.035 135.304 15.7617ZM138.352 17.4519C138.272 17.4576 138.196 17.4899 138.136 17.5436C138.078 17.6199 138.04 17.7104 138.029 17.8059C138.017 17.8774 137.993 18.0085 137.969 18.2103L137.705 20.0316L137.442 22.0079H141.362C141.521 22.0095 141.681 22.0016 141.839 21.984C141.92 21.9785 141.998 21.954 142.067 21.9125C142.121 21.8641 142.163 21.8025 142.186 21.7337C142.21 21.6502 142.246 21.4833 142.294 21.2458L142.832 17.4363H138.853C138.686 17.4325 138.518 17.4377 138.352 17.4519Z" fill="white"/>
<path d="M57.2675 10.4773C57.1687 10.3591 57.0467 10.2623 56.9089 10.1927C56.7712 10.1232 56.6206 10.0824 56.4665 10.0729C55.8148 10.0159 55.1603 9.99597 54.5063 10.0133L53.6694 16.0009H47.7539L48.1719 13.0369C48.3156 12.2033 48.3993 11.6558 48.4113 11.3706C48.4258 11.2838 48.4338 11.1962 48.4353 11.1083C48.452 10.8906 48.3974 10.6734 48.2796 10.4893C48.1809 10.371 48.0589 10.2741 47.9211 10.2046C47.7834 10.135 47.6328 10.0943 47.4786 10.0848C46.8269 10.0278 46.1725 10.0079 45.5185 10.0252L44.7653 15.4653L43.8446 22.0242L43.4147 25.0239H43.6062C44.4072 25.0239 44.9568 25.012 45.2432 24.9762C45.5314 24.955 45.8102 24.8651 46.0561 24.7139C46.3331 24.4856 46.5159 24.1637 46.5699 23.8097C46.7112 23.2171 46.8188 22.617 46.8922 22.0122L47.3101 19.0244H53.2376L52.8196 22.0122L52.3896 25.012H52.5812C53.3822 25.012 53.9318 25.0001 54.2182 24.9643C54.5064 24.9431 54.7852 24.8531 55.0311 24.702C55.3081 24.4737 55.4909 24.1518 55.5449 23.7978C55.6862 23.2052 55.7938 22.605 55.8671 22.0003C55.8671 22.0003 57.3605 11.6328 57.3725 11.3467C57.3869 11.26 57.3949 11.1723 57.3964 11.0844C57.4309 10.8731 57.3849 10.6567 57.2675 10.4773Z" fill="url(#paint6_linear)"/>
<path d="M66.2158 10.0007H62.6251C62.1308 9.99087 61.6363 10.0068 61.1436 10.0483C60.8374 10.0516 60.5385 10.1427 60.2828 10.3106C59.9939 10.5362 59.7948 10.8566 59.7212 11.2149C59.6494 11.512 59.5536 12.1191 59.445 13.0123L58.5602 19.1668L57.7472 25.0113C58.4499 25.0354 59.1535 24.9995 59.8501 24.904C60.0117 24.8816 60.167 24.8269 60.3068 24.743C60.4465 24.6592 60.5677 24.548 60.663 24.4161C60.8036 24.1673 60.9043 23.8981 60.9614 23.6182C61.0212 23.3321 61.105 22.7846 61.2247 21.9675L61.6427 19.0155H64.9885C65.9442 19.0155 66.5776 18.9916 66.8769 18.9559C67.1918 18.9287 67.4916 18.8087 67.7377 18.611C67.9667 18.3441 68.1157 18.0183 68.1677 17.671C68.2275 17.3959 68.3113 16.8374 68.431 16.0047H62.0726L62.3829 13.8148C62.3972 13.6501 62.4252 13.4869 62.4667 13.3269C62.4744 13.277 62.4935 13.2296 62.5226 13.1882C62.5516 13.1469 62.5899 13.1127 62.6343 13.0884C62.7099 13.0563 62.7914 13.0401 62.8736 13.0408C63.0362 13.0225 63.1999 13.0146 63.3635 13.0169H65.7775C66.805 13.0169 67.4744 12.9931 67.7736 12.9573C68.0835 12.9204 68.3709 12.7775 68.5866 12.5529C68.7409 12.3656 68.851 12.1462 68.9088 11.9109C69.0581 11.2906 69.1737 10.6627 69.255 10.03H66.2167L66.2158 10.0007Z" fill="url(#paint7_linear)"/>
<path d="M79.508 10.0245H73.3678C72.9091 10.0151 72.4502 10.031 71.9932 10.0722C71.6519 10.0943 71.3242 10.214 71.0495 10.417C70.7939 10.7324 70.6288 11.1107 70.5717 11.512C70.5118 11.7743 70.44 12.286 70.3323 13.0591H74.6946L74.3603 15.4756L73.4396 22.0345L73.0097 25.0342H73.2012C74.0022 25.0342 74.5518 25.0223 74.8382 24.9865C75.1264 24.9653 75.4052 24.8753 75.6512 24.7242C75.928 24.4958 76.1109 24.174 76.1649 23.82C76.3062 23.2274 76.4138 22.6273 76.4872 22.0225L77.7504 13.0508H79.0651C79.9499 13.0508 80.5465 13.0389 80.8338 13.0032C81.1671 12.9769 81.49 12.875 81.7775 12.7051C81.9979 12.494 82.155 12.226 82.2314 11.9311C82.3761 11.303 82.4836 10.667 82.5536 10.0263L79.508 10.0245Z" fill="url(#paint8_linear)"/>
<defs>
<linearGradient id="paint0_linear" x1="21.1755" y1="4.83322" x2="13.1882" y2="20.672" gradientUnits="userSpaceOnUse">
<stop offset="0.001" stop-color="#F2D785"/>
<stop offset="0.009" stop-color="#F2D786"/>
<stop offset="0.222" stop-color="#F5DF9E"/>
<stop offset="0.448" stop-color="#F6E5AF"/>
<stop offset="0.695" stop-color="#F8E8B9"/>
<stop offset="1" stop-color="#F8E9BC"/>
</linearGradient>
<linearGradient id="paint1_linear" x1="23.0666" y1="24.3927" x2="11.6274" y2="21.3978" gradientUnits="userSpaceOnUse">
<stop offset="0.001" stop-color="#F2D785"/>
<stop offset="0.007" stop-color="#F2D784"/>
<stop offset="0.23" stop-color="#F2D06C"/>
<stop offset="0.462" stop-color="#F2CC5A"/>
<stop offset="0.711" stop-color="#F2C94F"/>
<stop offset="1" stop-color="#F2C84C"/>
</linearGradient>
<linearGradient id="paint2_linear" x1="11.902" y1="17.4753" x2="-0.86413" y2="20.4501" gradientUnits="userSpaceOnUse">
<stop stop-color="#BF7C29"/>
<stop offset="0.071" stop-color="#C3822B"/>
<stop offset="0.341" stop-color="#CF9331"/>
<stop offset="0.635" stop-color="#D79D35"/>
<stop offset="1" stop-color="#D9A036"/>
</linearGradient>
<linearGradient id="paint3_linear" x1="7.10198" y1="8.03967" x2="4.33037" y2="1.18864" gradientUnits="userSpaceOnUse">
<stop stop-color="#8C4D18"/>
<stop offset="0.197" stop-color="#A1601F"/>
<stop offset="0.43" stop-color="#B27025"/>
<stop offset="0.685" stop-color="#BC7928"/>
<stop offset="1" stop-color="#BF7C29"/>
</linearGradient>
<linearGradient id="paint4_linear" x1="6.64832" y1="27.6986" x2="3.54753" y2="37.1106" gradientUnits="userSpaceOnUse">
<stop stop-color="#8C4D18"/>
<stop offset="0.172" stop-color="#A1601F"/>
<stop offset="0.375" stop-color="#B27025"/>
<stop offset="0.597" stop-color="#BC7928"/>
<stop offset="0.872" stop-color="#BF7C29"/>
</linearGradient>
<linearGradient id="paint5_linear" x1="24.0694" y1="17.5472" x2="31.9861" y2="17.5472" gradientUnits="userSpaceOnUse">
<stop stop-color="#8C4D18"/>
<stop offset="0.197" stop-color="#A1601F"/>
<stop offset="0.43" stop-color="#B27025"/>
<stop offset="0.685" stop-color="#BC7928"/>
<stop offset="1" stop-color="#BF7C29"/>
</linearGradient>
<linearGradient id="paint6_linear" x1="53.8814" y1="33.3431" x2="85.0619" y2="-1.55094" gradientUnits="userSpaceOnUse">
<stop stop-color="#F2C84C"/>
<stop offset="0.027" stop-color="#F2C84C"/>
<stop offset="0.275" stop-color="#F1C64B"/>
<stop offset="0.365" stop-color="#ECBF48"/>
<stop offset="0.428" stop-color="#E4B443"/>
<stop offset="0.48" stop-color="#D9A33B"/>
<stop offset="0.524" stop-color="#CA8D31"/>
<stop offset="0.549" stop-color="#BF7C29"/>
<stop offset="0.572" stop-color="#CA8D31"/>
<stop offset="0.609" stop-color="#D9A33B"/>
<stop offset="0.654" stop-color="#E4B443"/>
<stop offset="0.709" stop-color="#ECBF48"/>
<stop offset="0.786" stop-color="#F1C64B"/>
<stop offset="1" stop-color="#F2C84C"/>
</linearGradient>
<linearGradient id="paint7_linear" x1="66.355" y1="33.34" x2="97.6331" y2="4.56098" gradientUnits="userSpaceOnUse">
<stop stop-color="#F2C84C"/>
<stop offset="0.027" stop-color="#F2C84C"/>
<stop offset="0.275" stop-color="#F1C64B"/>
<stop offset="0.365" stop-color="#ECBF48"/>
<stop offset="0.428" stop-color="#E4B443"/>
<stop offset="0.48" stop-color="#D9A33B"/>
<stop offset="0.524" stop-color="#CA8D31"/>
<stop offset="0.549" stop-color="#BF7C29"/>
<stop offset="0.572" stop-color="#CA8D31"/>
<stop offset="0.609" stop-color="#D9A33B"/>
<stop offset="0.654" stop-color="#E4B443"/>
<stop offset="0.709" stop-color="#ECBF48"/>
<stop offset="0.786" stop-color="#F1C64B"/>
<stop offset="1" stop-color="#F2C84C"/>
</linearGradient>
<linearGradient id="paint8_linear" x1="79.4739" y1="33.351" x2="110.835" y2="2.68929" gradientUnits="userSpaceOnUse">
<stop stop-color="#F2C84C"/>
<stop offset="0.027" stop-color="#F2C84C"/>
<stop offset="0.275" stop-color="#F1C64B"/>
<stop offset="0.365" stop-color="#ECBF48"/>
<stop offset="0.428" stop-color="#E4B443"/>
<stop offset="0.48" stop-color="#D9A33B"/>
<stop offset="0.524" stop-color="#CA8D31"/>
<stop offset="0.549" stop-color="#BF7C29"/>
<stop offset="0.572" stop-color="#CA8D31"/>
<stop offset="0.609" stop-color="#D9A33B"/>
<stop offset="0.654" stop-color="#E4B443"/>
<stop offset="0.709" stop-color="#ECBF48"/>
<stop offset="0.786" stop-color="#F1C64B"/>
<stop offset="1" stop-color="#F2C84C"/>
</linearGradient>
</defs>
</svg>
