<svg width="134" height="28" viewBox="0 0 134 28" fill="none" xmlns="http://www.w3.org/2000/svg">
<g clip-path="url(#clip0)">
<path d="M35.8018 22.3945L35.0911 20.2784H30.5058L29.7951 22.3945H25.971L31.0469 9.3425H34.5317L39.7245 22.3945H35.8018ZM34.2291 17.463L32.7916 13.4188L31.3702 17.463H34.2291Z" fill="white"/>
<path d="M49.1519 15.5005C49.7617 15.7917 50.2523 16.2181 50.6077 16.7798C50.963 17.3438 51.1327 17.9743 51.1327 18.6735C51.1327 19.7304 50.7269 20.6177 49.9314 21.3192C49.1358 22.0368 48.1385 22.3762 46.9372 22.3762H40.9809V9.34021H46.818C47.9689 9.34021 48.9157 9.64742 49.6608 10.2779C50.4059 10.9084 50.7773 11.7108 50.7773 12.6668C50.7773 13.2469 50.626 13.7765 50.3372 14.2877C50.0483 14.8013 49.6425 15.1933 49.1519 15.5005ZM47.0701 14.102C47.2902 13.898 47.3911 13.6251 47.3911 13.2835C47.3911 12.9419 47.2902 12.6691 47.0701 12.4651C46.8501 12.261 46.5635 12.1579 46.1898 12.1579H44.3969V14.4276H46.1898C46.5612 14.4092 46.8501 14.3061 47.0701 14.102ZM46.325 19.4416C46.7148 19.4416 47.0197 19.3384 47.2558 19.1183C47.492 18.8959 47.6112 18.6071 47.6112 18.2654C47.6112 17.9238 47.492 17.635 47.2558 17.4126C47.0197 17.1902 46.7148 17.0893 46.325 17.0893H44.3969V19.4599H46.325V19.4416Z" fill="white"/>
<path d="M53.8105 10.5851V8.76018H55.5186V10.5851H53.8105ZM53.861 22.3922V12.3252H55.4337V22.3922H53.861Z" fill="white"/>
<path d="M62.8917 12.1028C64.0586 12.1028 64.9895 12.4949 65.7002 13.2973C66.3948 14.0997 66.7502 15.1062 66.7502 16.3694V22.3922H65.1775V16.7271C65.1775 15.7023 64.9413 14.9182 64.4828 14.3725C64.0265 13.8269 63.3502 13.5357 62.4859 13.5357C61.6399 13.5357 60.9131 13.859 60.3377 14.5078C59.7622 15.1566 59.4757 15.9407 59.4757 16.8967V22.3899H57.9029V12.3252H59.0194L59.3243 13.8957C59.6957 13.3317 60.2047 12.8892 60.8306 12.582C61.4381 12.2564 62.1305 12.1028 62.8917 12.1028Z" fill="white"/>
<path d="M76.4939 12.3252H78.1011L73.8872 22.3922H72.4657L68.151 12.3252H69.7925L73.1765 20.3265L76.4939 12.3252Z" fill="white"/>
<path d="M89.0323 17.392C89.0323 17.58 89.0163 17.768 88.9979 17.9559H80.4877C80.6069 18.8936 80.9943 19.6456 81.6202 20.2073C82.2622 20.7713 83.0577 21.0602 83.9885 21.0602C84.6832 21.0602 85.2907 20.9066 85.8158 20.5994C86.3408 20.2921 86.781 19.8657 87.0836 19.3201H88.7412C88.317 20.3609 87.6911 21.1634 86.8452 21.7434C86.0152 22.3234 85.0523 22.6123 83.9702 22.6123C83.0233 22.6123 82.159 22.3899 81.3818 21.9291C80.6046 21.4683 79.9948 20.8538 79.5546 20.0514C79.1144 19.249 78.8943 18.3617 78.8943 17.3736C78.8943 16.3832 79.1144 15.4959 79.5546 14.6958C79.9948 13.8934 80.6046 13.2629 81.3818 12.8021C82.159 12.3413 83.0233 12.1189 83.9702 12.1189C84.9514 12.1189 85.8318 12.3573 86.609 12.8365C87.3862 13.3134 87.9617 13.9461 88.3858 14.7485C88.8283 15.5326 89.0323 16.4199 89.0323 17.392ZM84.0069 13.6045C83.1105 13.6045 82.3493 13.8613 81.7234 14.3886C81.0975 14.9182 80.7078 15.6175 80.5381 16.4864H87.4756C87.306 15.5991 86.9185 14.8815 86.2926 14.3703C85.6645 13.8613 84.9033 13.6045 84.0069 13.6045Z" fill="white"/>
<path d="M94.5461 22.5963C93.3608 22.5963 92.414 22.3074 91.7032 21.709C90.9925 21.1129 90.6028 20.3105 90.5707 19.304H92.1113C92.1457 19.8841 92.3979 20.3449 92.8564 20.6521C93.3127 20.9754 93.8881 21.129 94.6149 21.129C95.3096 21.129 95.8667 20.9914 96.3068 20.7025C96.747 20.4297 96.9671 20.0377 96.9671 19.5585C96.9671 19.3705 96.9327 19.2009 96.8823 19.0472C96.8135 18.8936 96.731 18.7744 96.5934 18.6552C96.4582 18.552 96.3229 18.4512 96.2037 18.3824C96.0684 18.3136 95.8827 18.2448 95.6626 18.1783C95.4265 18.1096 95.2408 18.0752 95.0711 18.0408C94.9015 18.0064 94.6814 17.972 94.3948 17.9216C94.1747 17.8872 94.005 17.8528 93.8698 17.8367C93.7506 17.8207 93.5832 17.768 93.3631 17.7336C93.143 17.6831 92.9734 17.6304 92.8564 17.596C92.7372 17.5616 92.5699 17.4928 92.3819 17.4264C92.1962 17.3576 92.0426 17.2888 91.9417 17.204C91.8225 17.1191 91.7055 17.0343 91.5703 16.9311C91.435 16.828 91.3158 16.7088 91.2493 16.5735C91.1645 16.4543 91.0796 16.3007 91.0132 16.1471C90.9283 15.9935 90.8779 15.8238 90.8435 15.6175C90.8091 15.4295 90.7931 15.2071 90.7931 14.987C90.7931 14.1158 91.1324 13.4165 91.8247 12.8892C92.5194 12.3596 93.4319 12.0868 94.5484 12.0868C95.6649 12.0868 96.5774 12.3596 97.256 12.9236C97.9323 13.4876 98.2877 14.2373 98.3221 15.1933H96.8341C96.7998 14.6477 96.5797 14.2212 96.1922 13.9301C95.7864 13.6389 95.227 13.4876 94.5346 13.4876C93.8583 13.4876 93.3333 13.6252 92.9275 13.8796C92.5378 14.1364 92.336 14.4941 92.336 14.9365C92.336 15.1062 92.3704 15.2598 92.4208 15.3974C92.4713 15.5349 92.5721 15.6541 92.6914 15.755C92.8106 15.8582 92.9459 15.9247 93.0628 15.9935C93.182 16.0622 93.3677 16.1127 93.5878 16.1814C93.8079 16.2319 93.9936 16.2846 94.1632 16.3007C94.3145 16.3351 94.5346 16.3694 94.8235 16.4038C95.8048 16.5735 96.5155 16.7454 96.9373 16.9151C97.9186 17.3415 98.4596 18.0752 98.5445 19.116C98.5605 19.2352 98.5605 19.3545 98.5605 19.4576C98.5605 20.3953 98.2051 21.1473 97.4784 21.709C96.6966 22.3234 95.7314 22.5963 94.5461 22.5963Z" fill="white"/>
<path d="M104.918 20.9249H106V22.3922H104.714C103.632 22.3922 102.786 22.085 102.176 21.4545C101.566 20.824 101.245 19.9712 101.245 18.8776V13.7421H99.4868V13.4509L102.566 10.1747H102.802V12.3069H105.931V13.7398H102.802V18.8065C102.802 19.4897 102.988 20.001 103.343 20.3586C103.717 20.7392 104.226 20.9249 104.918 20.9249Z" fill="white"/>
<path d="M108.031 10.5851V8.76018H109.739V10.5851H108.031ZM108.082 22.3922V12.3252H109.655V22.3922H108.082Z" fill="white"/>
<path d="M117.81 12.1028C118.976 12.1028 119.907 12.4949 120.618 13.2973C121.31 14.0997 121.668 15.1062 121.668 16.3694V22.3922H120.095V16.7271C120.095 15.7023 119.859 14.9182 119.403 14.3725C118.947 13.8269 118.268 13.5357 117.406 13.5357C116.56 13.5357 115.833 13.859 115.258 14.5078C114.682 15.1566 114.396 15.9407 114.396 16.8967V22.3899H112.823V12.3252H113.94L114.244 13.8957C114.616 13.3317 115.125 12.8892 115.751 12.582C116.356 12.2564 117.048 12.1028 117.81 12.1028Z" fill="white"/>
<path d="M132.918 12.3252H133.968V20.9754C133.968 22.5963 133.528 23.8755 132.666 24.8155C131.786 25.7372 130.603 26.214 129.078 26.214C127.861 26.214 126.829 25.9068 125.999 25.3107C125.169 24.7147 124.612 23.8595 124.341 22.8026H125.914C126.134 23.417 126.524 23.9122 127.099 24.2538C127.675 24.5954 128.335 24.7834 129.078 24.7834C130.094 24.7834 130.905 24.4602 131.515 23.8274C132.125 23.1969 132.427 22.3257 132.427 21.2161V20.5673C131.971 21.0441 131.446 21.4041 130.82 21.6769C130.194 21.9337 129.518 22.0689 128.807 22.0689C127.895 22.0689 127.065 21.8466 126.32 21.4201C125.575 20.9754 124.983 20.3793 124.543 19.6296C124.121 18.8615 123.901 18.0247 123.901 17.1054C123.901 16.186 124.121 15.3469 124.543 14.5812C124.965 13.8131 125.559 13.2171 126.32 12.7723C127.065 12.3275 127.911 12.1235 128.807 12.1235C129.603 12.1235 130.33 12.2771 130.99 12.6003C131.666 12.9076 132.226 13.35 132.682 13.914L132.918 12.3252ZM126.49 19.5608C127.15 20.2257 127.977 20.5512 128.977 20.5512C129.974 20.5512 130.804 20.228 131.446 19.5791C132.088 18.9303 132.427 18.0958 132.427 17.1054C132.427 16.115 132.106 15.2804 131.446 14.6133C130.804 13.9645 129.974 13.6229 128.977 13.6229C127.98 13.6229 127.15 13.9461 126.49 14.6133C125.829 15.2781 125.508 16.0966 125.508 17.087C125.492 18.0752 125.829 18.8936 126.49 19.5608Z" fill="white"/>
<path d="M12.6645 6.94211L10.0257 3.44584L6.02502 12.5453L9.52588 14.0837L12.6645 6.94211Z" fill="#C48100"/>
<path d="M22.814 11.4059L20.1752 7.9096L16.1746 17.0091L19.6754 18.5475L22.814 11.4059Z" fill="#C48100"/>
<path d="M17.8688 13.1575L16.7408 11.9217L18.2609 8.46442L18.6116 8.61803L19.1137 8.83812L19.6617 9.07885L17.8688 13.1575Z" fill="url(#paint0_linear)"/>
<path d="M15.097 19.4599L13.4234 19.4645L11.9034 22.9218L12.2542 23.0754L12.7562 23.2955L13.3042 23.5362L15.097 19.4599Z" fill="url(#paint1_linear)"/>
<path d="M18.4718 1.33432L17.3874 0L15.5418 4.20011L16.9426 4.81454L18.4718 1.33432Z" fill="#C48100"/>
<path d="M6.79308 27.8968L5.07819 28L6.92376 23.7999L8.32456 24.4143L6.79308 27.8968Z" fill="#C48100"/>
<path d="M22.3372 6.79079L21.2527 5.45648L19.4072 9.65659L20.808 10.271L22.3372 6.79079Z" fill="#C48100"/>
<path d="M13.428 27.0554L11.7131 27.1586L13.5587 22.9585L14.9595 23.5729L13.428 27.0554Z" fill="#C48100"/>
<path d="M12.1877 2.32932L11.1033 0.995008L9.25769 5.19512L10.6585 5.80955L12.1877 2.32932Z" fill="#C48100"/>
<path d="M3.27849 22.594L1.5636 22.6971L3.40917 18.497L4.80998 19.1114L3.27849 22.594Z" fill="#C48100"/>
<path fill-rule="evenodd" clip-rule="evenodd" d="M9.42963 1.00188L11.1033 0.997293L10.0257 3.44812L6.02506 12.5476L4.94752 14.9984L3.15467 19.0748L2.63883 20.2486L1.56129 22.6971L0.435601 21.4614L1.58421 18.8478L0 16.75L3.14092 9.60845L5.66511 3.86538L8.28101 3.61319L9.42963 1.00188Z" fill="#FBDC79"/>
<path fill-rule="evenodd" clip-rule="evenodd" d="M19.5791 5.46336L21.2528 5.45877L19.4599 9.53509L16.1746 17.0091L13.5036 23.0823L11.7108 27.1586L10.5828 25.9229L11.7314 23.3093L10.1472 21.2115L13.2881 14.0699L15.8123 8.32916L18.4282 8.07697L19.5791 5.46336Z" fill="#FBDC79"/>
<path d="M6.99939 19.8267L2.63879 20.2463L6.63945 11.1468L10.1403 12.6852L6.99939 19.8267Z" fill="#C48100"/>
<path d="M17.1512 24.2882L12.7906 24.7078L16.7913 15.6083L20.2922 17.1466L17.1512 24.2882Z" fill="#C48100"/>
<path d="M10.7754 25.4941L6.00214 25.9022L11.5412 13.3019L15.3905 14.9939L10.7754 25.4941Z" fill="#C48100"/>
<path fill-rule="evenodd" clip-rule="evenodd" d="M15.7138 0.00458528L17.3874 0L15.794 3.62466L14.0011 7.70097L10.9244 14.7004L8.46213 20.3013L6.66929 24.3776L5.99984 25.9022L5.07591 28.0023L3.94793 26.7666L4.96815 24.4464L3.42291 22.2638L8.038 11.7635L12.0387 2.66405L14.6935 2.32703L15.7138 0.00458528Z" fill="#FBDC79"/>
<path d="M19.3682 5.9471L16.4634 2.10005L10.9244 14.7004L14.7737 16.3924L19.3682 5.9471Z" fill="#C48100"/>
</g>
<defs>
<linearGradient id="paint0_linear" x1="21.0548" y1="2.99989" x2="17.2758" y2="12.9331" gradientUnits="userSpaceOnUse">
<stop stop-color="#FBDC79"/>
<stop offset="1" stop-color="#DDB32A"/>
</linearGradient>
<linearGradient id="paint1_linear" x1="9.76719" y1="28.675" x2="14.5314" y2="19.1748" gradientUnits="userSpaceOnUse">
<stop stop-color="#FBDC79"/>
<stop offset="1" stop-color="#DDB32A"/>
</linearGradient>
<clipPath id="clip0">
<rect width="133.968" height="28" fill="white"/>
</clipPath>
</defs>
</svg>
