<svg width="133" height="19" viewBox="0 0 133 19" fill="none" xmlns="http://www.w3.org/2000/svg">
<path d="M5.01601 5.592H0.0960083V1.2H15.6V5.592H10.68V18H5.01601V5.592Z" fill="white"/>
<path d="M25.3281 1.2V18H19.6641V5.472H16.7841V1.2H25.3281Z" fill="white"/>
<path d="M43.0633 18L43.0153 10.344L39.3673 16.488H36.8713L33.2233 10.608V18H28.0633V1.2H32.7193L38.1913 10.152L43.5193 1.2H48.1753L48.2233 18H43.0633Z" fill="white"/>
<path d="M56.6738 4.632C58.9778 4.632 60.7378 5.152 61.9538 6.192C63.1698 7.216 63.7778 8.8 63.7778 10.944V18H58.7378V16.272C58.1138 17.584 56.8738 18.24 55.0178 18.24C53.9778 18.24 53.0898 18.064 52.3538 17.712C51.6338 17.344 51.0818 16.856 50.6978 16.248C50.3298 15.624 50.1458 14.928 50.1458 14.16C50.1458 12.864 50.6418 11.88 51.6338 11.208C52.6258 10.536 54.1298 10.2 56.1458 10.2H58.3298C58.1538 9.176 57.3298 8.664 55.8578 8.664C55.2658 8.664 54.6658 8.76 54.0578 8.952C53.4498 9.128 52.9298 9.376 52.4978 9.696L50.7698 6.12C51.5218 5.656 52.4258 5.296 53.4818 5.04C54.5538 4.768 55.6178 4.632 56.6738 4.632ZM56.6498 14.976C57.0338 14.976 57.3778 14.872 57.6818 14.664C57.9858 14.456 58.2098 14.144 58.3538 13.728V12.816H57.0098C55.9058 12.816 55.3538 13.184 55.3538 13.92C55.3538 14.224 55.4658 14.48 55.6898 14.688C55.9298 14.88 56.2498 14.976 56.6498 14.976Z" fill="white"/>
<path d="M71.2819 6.288C72.2419 5.184 73.6579 4.632 75.5299 4.632V9.432C75.0979 9.368 74.6979 9.336 74.3299 9.336C72.4739 9.336 71.5459 10.28 71.5459 12.168V18H66.1219V4.872H71.2819V6.288Z" fill="white"/>
<path d="M83.3552 13.968L82.4912 14.904V18H77.0672V0.191999H82.4912V8.688L86.2592 4.872H92.6672L87.2432 10.56L93.0992 18H86.5472L83.3552 13.968Z" fill="white"/>
<path d="M107.535 11.424C107.535 11.504 107.511 11.928 107.463 12.696H98.3432C98.5352 13.192 98.8552 13.576 99.3032 13.848C99.7512 14.104 100.311 14.232 100.983 14.232C101.559 14.232 102.039 14.16 102.423 14.016C102.823 13.872 103.255 13.624 103.719 13.272L106.551 16.128C105.271 17.536 103.359 18.24 100.815 18.24C99.2312 18.24 97.8392 17.952 96.6392 17.376C95.4392 16.784 94.5112 15.968 93.8552 14.928C93.1992 13.888 92.8712 12.72 92.8712 11.424C92.8712 10.112 93.1912 8.944 93.8312 7.92C94.4872 6.88 95.3752 6.072 96.4952 5.496C97.6312 4.92 98.9032 4.632 100.311 4.632C101.639 4.632 102.847 4.896 103.935 5.424C105.039 5.952 105.911 6.728 106.551 7.752C107.207 8.776 107.535 10 107.535 11.424ZM100.359 8.328C99.7992 8.328 99.3352 8.48 98.9672 8.784C98.5992 9.088 98.3592 9.52 98.2472 10.08H102.471C102.359 9.536 102.119 9.112 101.751 8.808C101.383 8.488 100.919 8.328 100.359 8.328Z" fill="white"/>
<path d="M118.919 17.544C118.103 18.008 116.991 18.24 115.583 18.24C113.743 18.24 112.327 17.8 111.335 16.92C110.343 16.024 109.847 14.688 109.847 12.912V9.552H108.047V5.592H109.847V1.92H115.271V5.592H117.959V9.552H115.271V12.864C115.271 13.264 115.375 13.576 115.583 13.8C115.791 14.024 116.063 14.136 116.399 14.136C116.863 14.136 117.271 14.016 117.623 13.776L118.919 17.544Z" fill="white"/>
<path d="M125.422 18.24C124.302 18.24 123.198 18.12 122.11 17.88C121.022 17.64 120.142 17.328 119.47 16.944L120.958 13.368C121.566 13.736 122.286 14.024 123.118 14.232C123.95 14.44 124.758 14.544 125.542 14.544C126.166 14.544 126.598 14.496 126.838 14.4C127.094 14.288 127.222 14.128 127.222 13.92C127.222 13.712 127.062 13.568 126.742 13.488C126.438 13.408 125.934 13.328 125.23 13.248C124.158 13.12 123.246 12.96 122.494 12.768C121.742 12.56 121.078 12.168 120.502 11.592C119.942 11.016 119.662 10.192 119.662 9.12C119.662 8.272 119.918 7.512 120.43 6.84C120.942 6.168 121.702 5.632 122.71 5.232C123.734 4.832 124.958 4.632 126.382 4.632C127.374 4.632 128.342 4.728 129.286 4.92C130.246 5.096 131.062 5.36 131.734 5.712L130.246 9.288C129.094 8.648 127.83 8.328 126.454 8.328C125.27 8.328 124.678 8.536 124.678 8.952C124.678 9.16 124.838 9.312 125.158 9.408C125.478 9.488 125.982 9.568 126.67 9.648C127.742 9.776 128.646 9.944 129.382 10.152C130.134 10.36 130.79 10.752 131.35 11.328C131.926 11.904 132.214 12.728 132.214 13.8C132.214 14.616 131.958 15.36 131.446 16.032C130.934 16.704 130.166 17.24 129.142 17.64C128.118 18.04 126.878 18.24 125.422 18.24Z" fill="white"/>
</svg>
