<svg width="137" height="29" viewBox="0 0 137 29" fill="none" xmlns="http://www.w3.org/2000/svg">
<path fill-rule="evenodd" clip-rule="evenodd" d="M55.494 11.2567C58.4482 11.2567 60.3577 13.2807 60.3577 16.413V23.3611H56.8205V16.7996C56.8205 15.2381 56.0231 14.3424 54.633 14.3424C53.2172 14.3424 52.405 15.2381 52.405 16.7996V23.3611H48.8682V11.4199H52.405V12.3282C53.2191 11.6396 54.3051 11.2567 55.494 11.2567ZM70.2449 11.4197H74.239L69.4808 23.3614H65.2997L60.5642 11.4197H64.5797L67.4122 19.4054L70.2449 11.4197ZM77.5224 15.8166H82.1357C81.9479 14.765 81.0316 14.0579 79.7986 14.0579C78.664 14.0579 77.8198 14.7219 77.5224 15.8166ZM79.8803 11.0532C83.3714 11.0532 85.8101 13.4833 85.8101 16.963C85.8101 17.3923 85.7811 17.7698 85.7231 18.1167L85.6764 18.394H77.4765C77.7121 19.6015 78.5831 20.3358 79.8187 20.3358C80.7598 20.3358 81.405 19.9512 81.7938 19.1589L81.8851 18.9719H85.6349L85.5093 19.397C84.7851 21.8426 82.6286 23.3611 79.8803 23.3611C76.3289 23.3611 73.849 20.8309 73.849 17.2071C73.849 13.5258 76.2726 11.0532 79.8803 11.0532ZM92.6625 15.861C94.4438 16.3207 96.8829 16.9509 96.9356 19.6233C96.9356 21.8264 94.9607 23.361 92.1334 23.361C89.2046 23.361 86.9783 21.654 86.8409 19.3028L86.8201 18.952H90.3602L90.3955 19.2446C90.4811 19.959 91.1877 20.4586 92.1135 20.4586C92.9683 20.4586 93.5213 20.1328 93.5213 19.63C93.5213 19.0979 92.7245 18.8603 91.4115 18.5319C89.5945 18.0781 87.1065 17.4559 87.1065 14.7643C87.1065 12.579 89.0898 11.0531 91.9288 11.0531C94.771 11.0531 96.6498 12.5981 96.8323 15.0862L96.8581 15.4417H93.4484L93.4205 15.1411C93.3518 14.4113 92.764 13.9762 91.8468 13.9762C91.3673 13.9762 90.5618 14.0737 90.5618 14.7232C90.5618 15.2785 91.3552 15.5233 92.6625 15.861ZM102.593 8.63051V11.4197H105.134V14.4243H102.593V19.5486C102.593 20.0999 102.725 20.2956 103.469 20.2956H105.134V23.3614H102.997C100.368 23.3614 99.0351 22.0717 99.0351 19.5281V14.4243H97.6827V11.4197H99.0351V8.63051H102.593ZM106.679 23.3615V11.4197H110.216V23.3615H106.679ZM108.447 6.57126C109.423 6.57126 110.216 7.35939 110.216 8.32804C110.216 9.29669 109.423 10.0848 108.447 10.0848C107.472 10.0848 106.679 9.29669 106.679 8.32804C106.679 7.35939 107.472 6.57126 108.447 6.57126ZM118.559 11.2567C121.513 11.2567 123.423 13.2807 123.423 16.413V23.3611H119.886V16.7996C119.886 15.2381 119.088 14.3424 117.698 14.3424C116.282 14.3424 115.47 15.2381 115.47 16.7996V23.3611H111.933V11.4199H115.47V12.3282C116.284 11.6396 117.37 11.2567 118.559 11.2567ZM133.442 17.3767C133.442 15.3245 132.053 14.3905 130.763 14.3905C129.483 14.3905 128.105 15.312 128.105 17.3362C128.105 19.3238 129.442 20.3634 130.763 20.3634C132.053 20.3634 133.442 19.4286 133.442 17.3767ZM133.442 11.4057H137V23.0975C137 26.6249 134.664 28.9051 131.05 28.9051C127.676 28.9051 125.301 27.1511 125 24.4363L124.959 24.0679H128.434L128.502 24.3108C128.754 25.2031 129.699 25.7579 130.968 25.7579C131.892 25.7579 133.442 25.4122 133.442 23.0975V22.2384C132.562 23.059 131.341 23.5307 130.025 23.5307C126.827 23.5307 124.506 20.926 124.506 17.3362C124.506 13.7941 126.827 11.2226 130.025 11.2226C131.355 11.2226 132.575 11.6751 133.442 12.464V11.4057ZM16.1908 7.76955C16.1908 10.5095 14.6745 13.282 11.0606 14.2492L16.4492 23.3729H11.2222L6.25357 14.6036H4.12417V11.2188H7.89875C10.4153 11.2188 11.5442 9.89719 11.5442 7.86649C11.5442 5.86744 10.4153 4.61032 7.89875 4.61032H0V0.871212H8.06036C13.4803 0.871212 16.1908 3.9972 16.1908 7.76955ZM41.9626 23.3727V6.48895H46.4476V23.3727H41.9626ZM21.7298 17.2221C21.7298 19.9694 22.7644 22.1116 24.4861 23.3728H18.8418C17.7558 21.6373 17.1171 19.5541 17.1171 17.2221C17.1171 10.5725 22.2735 5.86278 28.5853 5.86278C34.9597 5.86278 40.0212 10.5725 40.0212 17.2221C40.0212 19.5541 39.3902 21.6373 38.3135 23.3728H32.6589C34.3741 22.1116 35.4079 19.9694 35.4079 17.2221C35.4079 12.7041 32.6215 9.87208 28.5853 9.87208C24.5162 9.87208 21.7298 12.7041 21.7298 17.2221ZM44.3188 5.10482H44.3088C43.0732 5.10482 42.0713 4.10962 42.0713 2.88219V2.87236C42.0713 1.64493 43.0732 0.649933 44.3088 0.649933H44.3188C45.5551 0.649933 46.5563 1.64493 46.5563 2.87236V2.88219C46.5563 4.10962 45.5551 5.10482 44.3188 5.10482Z" fill="white"/>
</svg>
