<svg width="112" height="22" viewBox="0 0 112 22" fill="none" xmlns="http://www.w3.org/2000/svg">
<path d="M75.7744 17.8581H81.6566V12.1308H86.9635V7.1082H81.6566V5.20887H87.602V0H75.7744V17.8581ZM105.763 3.57793C104.083 3.57793 102.729 4.15873 101.748 5.2096L101.297 4.09567H97.282V17.8581H102.869V10.2938C102.869 9.05447 103.445 8.33287 104.425 8.33287C105.265 8.33287 105.717 8.9914 105.717 10.153V17.9043H111.273V9.43213C111.273 5.93267 109.001 3.57867 105.763 3.57867V3.57793ZM92.8464 0H91.5395V4.11107H89.4071V17.8581H94.9788V4.11107H92.8464V0ZM92.8311 19.4267H91.5395V21.9692H92.8311V19.4275V19.4267Z" fill="white"/>
<path d="M21.1345 5.47653L20.3564 4.11107H16.4189V17.8735H21.9745V10.4353C21.9745 9.71373 22.5505 9.13293 23.2662 9.13293H25.8495V4.04873H24.6822C23.2036 4.04873 22.1149 4.42493 21.1338 5.47653H21.1345ZM52.3055 3.57793C51.5128 3.57368 50.7283 3.73938 50.0039 4.06405C49.2796 4.38871 48.632 4.86494 48.104 5.46113C47.2015 4.28413 45.8473 3.57793 44.2291 3.57793C43.4958 3.57271 42.7701 3.72703 42.1014 4.03039C41.4327 4.33374 40.8367 4.77899 40.3542 5.33573L39.84 4.0964H35.9033V17.8581H41.4589V10.1053C41.4589 8.92833 41.9098 8.22213 42.7506 8.22213C43.4662 8.22213 43.856 8.80293 43.856 9.7284V17.8728H49.2865V10.1061C49.2865 8.86673 49.7375 8.22287 50.5782 8.22287C51.2945 8.22287 51.6836 8.67753 51.6836 9.72913V17.8735H57.24V9.196C57.1455 5.93193 55.3404 3.57793 52.3062 3.57793H52.3055ZM74.1556 10.7492C74.1556 6.57507 70.9811 3.5772 66.3906 3.5772C61.8611 3.5772 58.7026 6.63813 58.7026 10.9377C58.7026 15.2372 61.9389 18.3759 66.3898 18.3759C70.016 18.3759 72.9266 16.4142 73.8291 13.1032H68.5222C68.1331 13.8248 67.2931 14.1387 66.328 14.1387C65.0989 14.1387 64.2582 13.4794 63.9316 12.1147H73.9535C74.0938 11.6747 74.1556 11.22 74.1556 10.7492ZM64.0095 9.526C64.336 8.349 65.176 7.70587 66.344 7.70587C67.6349 7.70587 68.4749 8.36513 68.7404 9.526H64.0095ZM30.1295 4.11107H27.9971V17.8581H33.5535V4.11107H30.1295ZM8.27927 0H0V17.8581H5.82036V13.5579H8.27927C12.2167 13.5579 15.0647 10.7492 15.0647 6.71587C15.0647 2.684 12.1542 0 8.27927 0ZM6.72291 9.98067L3.29964 7.09207L4.79346 5.28807L6.42764 6.6682L9.07273 3.4826L10.8625 4.9896L6.72291 9.97993V9.98067ZM33.6153 0H27.8575V2.66787H33.6153V0Z" fill="#52BF66"/>
</svg>
