<svg width="160" height="28" viewBox="0 0 160 28" fill="none" xmlns="http://www.w3.org/2000/svg">
<path d="M7.12909 3.32925H8.64482C8.70437 3.32868 8.76344 3.33999 8.81857 3.36252C8.87369 3.38505 8.92378 3.41834 8.96589 3.46045C9.008 3.50256 9.04129 3.55264 9.06382 3.60777C9.08635 3.6629 9.09766 3.72197 9.09708 3.78152V16.7895C9.09708 20.7255 5.90509 23.9181 1.96855 23.9181H0.452287C0.392736 23.9186 0.333669 23.9073 0.27854 23.8848C0.223411 23.8623 0.173327 23.829 0.131216 23.7869C0.0891053 23.7447 0.0558131 23.6947 0.0332864 23.6395C0.0107597 23.5844 -0.00054939 23.5253 2.05155e-05 23.4658V10.4583C2.05155e-05 6.52125 3.19202 3.32925 7.12909 3.32925ZM49.9819 3.19645H51.4981C51.5577 3.19588 51.6168 3.20719 51.6719 3.22972C51.727 3.25225 51.7771 3.28554 51.8192 3.32765C51.8613 3.36976 51.8946 3.41984 51.9171 3.47497C51.9397 3.5301 51.951 3.58917 51.9504 3.64872V16.9223C51.9504 20.8589 48.7584 24.0509 44.8213 24.0509H43.3051C43.2456 24.0514 43.1866 24.04 43.1315 24.0174C43.0764 23.9949 43.0264 23.9616 42.9844 23.9195C42.9423 23.8774 42.9091 23.8273 42.8866 23.7722C42.8641 23.7171 42.8528 23.6581 42.8533 23.5986V10.3255C42.8533 6.38845 46.0453 3.19645 49.9819 3.19645ZM38.8896 8.96872C36.336 1.89299 28.5157 -1.75128 21.44 0.828987C14.391 3.40925 10.7467 11.2295 13.3003 18.2786C15.8806 25.3543 23.7008 28.9986 30.7499 26.4183C37.8256 23.8381 41.4699 16.0178 38.8896 8.96872ZM29.4997 20.5133C29.4997 20.6466 29.3931 20.7261 29.2869 20.7261H26.84V23.0141C26.84 23.1463 26.7333 23.2263 26.6267 23.2263H25.616C25.4827 23.2263 25.4032 23.1197 25.4032 23.0135V20.7255H22.9563C22.8229 20.7255 22.743 20.6194 22.743 20.5133V6.73405C22.743 6.60125 22.8496 6.52125 22.9563 6.52125H25.4032V4.23379C25.4032 4.10045 25.5099 4.02099 25.6165 4.02099H26.6272C26.76 4.02099 26.84 4.12765 26.84 4.23432V6.52125H29.2869C29.4203 6.52125 29.5003 6.62792 29.5003 6.73459V20.5133H29.4997Z" fill="#FFB800"/>
<path d="M65.6225 7.58525C66.2075 7.42579 66.9526 7.26632 67.8571 7.10685C68.7878 6.94685 69.7985 6.89352 70.9158 6.89352C71.9798 6.89352 72.8577 7.02685 73.5494 7.31965C74.2678 7.61192 74.8262 8.01085 75.2518 8.51645C75.6774 9.02205 75.9702 9.66045 76.1297 10.405C76.3028 11.1914 76.392 11.9939 76.3958 12.7991V20.061H73.4166V13.2781C73.4166 12.5863 73.3633 12.0013 73.2833 11.5223C73.2038 11.0434 73.0438 10.6445 72.831 10.3255C72.6182 10.0322 72.3526 9.79325 71.9798 9.66045C71.6342 9.52712 71.1819 9.44712 70.6763 9.44712C70.3041 9.44712 69.9051 9.47379 69.4795 9.52712C69.0806 9.58045 68.7611 9.60712 68.575 9.66045V20.0871H65.5958V7.58579H65.6225V7.58525ZM83.0454 20.061C82.2209 18.3586 81.3697 16.4167 80.4918 14.2354C79.6139 12.0274 78.8427 9.68659 78.1243 7.15965H81.3163C81.503 7.87805 81.7158 8.64925 81.9547 9.50099C82.1942 10.3255 82.4603 11.1501 82.7265 12.0013C82.99 12.815 83.2738 13.622 83.5777 14.4215C83.8699 15.1933 84.1361 15.9111 84.3755 16.5229C84.615 15.8845 84.8811 15.1933 85.1734 14.4215C85.4662 13.6503 85.7323 12.8258 85.9979 12.0013C86.2641 11.1767 86.5302 10.3517 86.7697 9.50045C87.0091 8.67592 87.2219 7.90472 87.4081 7.15965H90.4934C89.7755 9.68659 89.0038 12.0279 88.1259 14.2354C87.2486 16.4434 86.4235 18.3847 85.5723 20.061H83.0454ZM91.6907 13.677C91.6907 12.533 91.8502 11.549 92.1963 10.6978C92.5419 9.84659 92.9942 9.12819 93.5526 8.56979C94.0986 8.01974 94.75 7.58549 95.4678 7.29299C96.1862 7.00019 96.9307 6.86739 97.7025 6.86739C99.4843 6.86739 100.868 7.42579 101.852 8.51645C102.836 9.60712 103.341 11.2562 103.341 13.4642V14.1826C103.341 14.3954 103.155 14.5815 102.916 14.5815H94.7761C94.8561 15.6189 95.2283 16.4167 95.8667 16.9751C96.5051 17.5341 97.463 17.8263 98.6865 17.8263C99.4049 17.8263 100.07 17.773 100.682 17.6402C101.293 17.5069 101.746 17.3746 102.091 17.2146L102.49 19.6621C102.331 19.7421 102.091 19.8221 101.799 19.9282C101.473 20.0171 101.145 20.097 100.814 20.1677C100.442 20.2477 100.043 20.3005 99.6177 20.3538C99.1853 20.4077 98.7499 20.4345 98.3142 20.4338C97.1702 20.4338 96.1862 20.2738 95.3617 19.9282C94.5105 19.5821 93.8187 19.1298 93.2865 18.5181C92.7547 17.9063 92.3291 17.2146 92.0897 16.3901C91.8235 15.5389 91.6907 14.661 91.6907 13.677ZM100.362 12.3469C100.362 11.9479 100.309 11.549 100.203 11.1767C100.1 10.8269 99.9278 10.5013 99.6971 10.2189C99.4843 9.95272 99.1921 9.73992 98.8726 9.58045C98.5537 9.42045 98.1809 9.34099 97.7291 9.34099C97.2769 9.34099 96.8779 9.42099 96.5318 9.60712C96.1862 9.79379 95.8934 10.0061 95.6539 10.2989C95.4176 10.5859 95.2291 10.9092 95.0955 11.2562C94.9694 11.6187 94.8803 11.9931 94.8294 12.3735H100.362V12.3469ZM109.725 17.933C110.523 17.933 111.082 17.8263 111.454 17.6402C111.827 17.4541 111.986 17.1351 111.986 16.6562C111.986 16.2306 111.8 15.8845 111.401 15.5922C111.002 15.2994 110.364 15.0071 109.486 14.6877C108.974 14.512 108.476 14.2986 107.996 14.0493C107.57 13.8521 107.175 13.5922 106.826 13.2781C106.502 12.9768 106.24 12.6154 106.054 12.2141C105.868 11.7885 105.762 11.2829 105.762 10.6711C105.762 9.47432 106.188 8.54312 107.065 7.87805C107.943 7.18632 109.114 6.84072 110.63 6.84072C111.374 6.84072 112.12 6.92072 112.811 7.05352C113.502 7.18685 114.008 7.31965 114.354 7.45245L113.822 9.87325C113.502 9.71325 113.077 9.58045 112.572 9.47432C112.066 9.34099 111.481 9.28765 110.789 9.28765C110.178 9.28765 109.699 9.39432 109.3 9.60712C108.928 9.81992 108.741 10.1389 108.741 10.5645C108.741 10.7778 108.768 10.9634 108.848 11.1234C108.928 11.2829 109.06 11.4423 109.22 11.5757C109.406 11.709 109.645 11.8679 109.938 12.0013C110.231 12.1346 110.603 12.2935 111.029 12.4269C111.747 12.6925 112.332 12.9586 112.837 13.1981C113.292 13.4089 113.706 13.6969 114.061 14.0493C114.38 14.3687 114.62 14.741 114.753 15.1399C114.913 15.5389 114.965 16.0445 114.965 16.6295C114.965 17.853 114.514 18.8109 113.582 19.4226C112.651 20.0343 111.374 20.3799 109.672 20.3799C108.529 20.3799 107.624 20.2733 106.932 20.0877C106.439 19.9576 105.95 19.8067 105.469 19.6354L105.975 17.1351C106.427 17.3213 106.959 17.4807 107.571 17.6402C108.236 17.8535 108.928 17.933 109.725 17.933ZM117.626 3.75485L120.605 3.24979V7.15965H125.207V7.47912C125.207 8.67592 124.223 9.66045 123.026 9.66045H120.605V14.9271C120.605 15.9645 120.765 16.7095 121.11 17.1618C121.43 17.6135 121.988 17.8263 122.787 17.8263C123.318 17.8263 123.824 17.773 124.223 17.6669C124.567 17.5836 124.904 17.477 125.234 17.3479L125.739 19.7154C125.393 19.8749 124.941 20.0077 124.382 20.1671C123.824 20.3271 123.159 20.4071 122.414 20.4071C121.483 20.4071 120.712 20.2738 120.1 20.0343C119.488 19.7949 118.982 19.4226 118.637 18.9703C118.265 18.4914 118.025 17.933 117.866 17.2679C117.706 16.6029 117.653 15.8317 117.653 14.9799V3.75539H117.626V3.75485ZM134.916 7.58525C135.501 7.42579 136.246 7.26632 137.15 7.10685C138.081 6.94685 139.092 6.89352 140.209 6.89352C141.273 6.89352 142.151 7.02685 142.843 7.31965C143.561 7.61192 144.12 8.01085 144.545 8.51645C144.971 9.02205 145.263 9.66045 145.423 10.405C145.582 11.1501 145.689 11.9479 145.689 12.7991V20.061H142.709V13.2781C142.713 12.6902 142.669 12.1029 142.577 11.5223C142.497 11.0434 142.337 10.6445 142.124 10.3255C141.912 10.0322 141.645 9.79325 141.273 9.66045C140.928 9.52712 140.475 9.44712 139.97 9.44712C139.597 9.44712 139.198 9.47379 138.773 9.52712C138.374 9.58045 138.054 9.60712 137.868 9.66045V20.0871H134.889V7.58579H134.916V7.58525ZM160 18.7575C160 20.8055 159.468 22.3218 158.43 23.2797C157.393 24.237 155.797 24.7159 153.643 24.7159C152.845 24.7159 152.073 24.6626 151.329 24.5298C150.584 24.3965 149.892 24.237 149.28 24.0242L149.812 21.4706C150.367 21.7056 150.947 21.8753 151.541 21.9762C152.18 22.1095 152.898 22.1623 153.643 22.1623C154.84 22.1623 155.691 21.9229 156.223 21.4178C156.728 20.9122 156.994 20.1938 156.994 19.2098V18.7042C156.702 18.8642 156.302 18.997 155.824 19.1565C155.345 19.3165 154.786 19.3698 154.148 19.3698C153.323 19.3698 152.579 19.2365 151.887 18.9703C151.195 18.7042 150.61 18.3319 150.131 17.8002C149.653 17.2946 149.28 16.6562 148.988 15.885C148.695 15.1133 148.589 14.2354 148.589 13.2247C148.589 12.2935 148.722 11.4157 149.014 10.6445C149.286 9.89116 149.712 9.20276 150.265 8.62312C150.823 8.06419 151.488 7.63859 152.286 7.31965C153.084 7.00019 153.962 6.84072 154.973 6.84072C155.93 6.84072 156.861 6.92072 157.739 7.05352C158.617 7.21352 159.362 7.34579 159.973 7.53245V18.7575H160ZM151.701 13.2781C151.701 14.5549 151.967 15.4594 152.525 16.0445C153.084 16.6295 153.776 16.9223 154.653 16.9223C155.132 16.9223 155.585 16.869 156.01 16.7357C156.436 16.6029 156.781 16.4434 157.048 16.2573V9.58045C156.835 9.52712 156.569 9.47379 156.25 9.44712C155.93 9.39379 155.531 9.39379 155.052 9.39379C153.962 9.39379 153.137 9.74045 152.552 10.4583C151.967 11.1767 151.701 12.1074 151.701 13.2781ZM60.9409 5.27112C60.5409 5.26975 60.145 5.35187 59.7786 5.51221C59.4122 5.67256 59.0833 5.9076 58.8129 6.20232V5.32445C58.8146 4.76059 59.0393 4.22031 59.438 3.82159C59.8367 3.42288 60.377 3.19814 60.9409 3.19645H61.6326C61.7393 3.19645 61.7921 3.27645 61.7921 3.35645V5.08499C61.7921 5.16499 61.7126 5.24499 61.6326 5.24499L60.9409 5.27165V5.27112ZM59.6907 20.061H58.999C58.8929 20.061 58.8395 19.981 58.8395 19.901V8.43752C58.8412 7.87366 59.066 7.33337 59.4647 6.93466C59.8634 6.53595 60.4037 6.31121 60.9675 6.30952H61.6593C61.7659 6.30952 61.8187 6.38952 61.8187 6.46899V17.9335C61.8201 18.2134 61.7661 18.4907 61.6596 18.7495C61.5532 19.0084 61.3965 19.2435 61.1986 19.4414C61.0007 19.6393 60.7656 19.796 60.5068 19.9024C60.2479 20.0089 59.9706 20.0629 59.6907 20.0615V20.061ZM130.899 5.27112C130.499 5.26975 130.103 5.35187 129.737 5.51221C129.371 5.67256 129.042 5.9076 128.771 6.20232V5.32445C128.773 4.76059 128.998 4.22031 129.396 3.82159C129.795 3.42288 130.335 3.19814 130.899 3.19645H131.591C131.698 3.19645 131.75 3.27645 131.75 3.35645V5.08499C131.75 5.16499 131.671 5.24499 131.591 5.24499L130.899 5.27165V5.27112ZM129.649 20.061H128.957C128.851 20.061 128.798 19.981 128.798 19.901V8.43752C128.8 7.87366 129.024 7.33337 129.423 6.93466C129.822 6.53595 130.362 6.31121 130.926 6.30952H131.618C131.724 6.30952 131.777 6.38952 131.777 6.46899V17.9335C131.75 19.1303 130.82 20.0615 129.649 20.0615V20.061Z" fill="white"/>
</svg>
