<svg width="135" height="31" viewBox="0 0 135 31" fill="none" xmlns="http://www.w3.org/2000/svg">
<g clip-path="url(#clip0)">
<path fill-rule="evenodd" clip-rule="evenodd" d="M133.461 25.2659C133.502 25.2126 133.542 25.1552 133.575 25.0855C133.575 25.0855 134.155 24.8189 134.641 24.0026C134.914 23.5433 135.016 23.2356 135 22.8788C134.992 22.522 134.886 21.837 134.841 21.554C134.8 21.2669 134.694 20.7501 134.669 20.6352C134.641 20.5122 134.526 20.4589 134.404 20.586C134.29 20.7255 133.84 21.2915 133.64 21.595C133.64 21.595 133.559 21.3776 133.485 21.2094C133.571 21.2464 133.914 20.9428 134.077 20.7501C134.241 20.5655 134.628 20.0815 134.739 19.495C134.849 18.9125 134.563 17.8666 134.481 17.477C134.408 17.0791 134.318 16.7428 134.285 16.632C134.253 16.5295 134.126 16.4393 133.991 16.632C133.991 16.632 134.269 16.1152 134.408 15.6559C134.539 15.1965 134.449 14.7494 134.375 14.3967C134.306 14.0398 134.122 13.3713 134.081 13.2154C134.032 13.0554 133.926 12.9488 133.775 13.1498C133.693 13.2523 133.563 13.4246 133.461 13.5681C133.359 13.7035 133.277 13.8142 133.277 13.8142C133.277 13.8142 133.003 13.2441 132.95 13.1498C132.889 13.0595 132.775 13.0103 132.693 13.1539C132.693 13.1621 132.693 13.1662 132.685 13.1662C132.611 13.3343 132.44 13.7568 132.44 13.7568C132.44 13.7568 132.399 13.6953 132.33 13.6051C132.224 13.4533 132.056 13.2277 131.954 13.1047C131.844 12.9611 131.721 13.0636 131.697 13.1826C131.681 13.2318 131.652 13.4164 131.611 13.6379C131.558 13.9619 131.493 14.3351 131.493 14.3351V5.5782H128.978H125.152H123.743H119.705H117.427V14.6838C117.427 14.6838 117.353 14.1342 117.329 13.9783C117.317 13.9209 117.304 13.8471 117.288 13.7568C117.255 13.5558 117.206 13.3056 117.186 13.2072C117.165 13.0677 117.051 12.9652 116.929 13.1088C116.847 13.199 116.663 13.4533 116.553 13.6092C116.492 13.6912 116.451 13.7486 116.451 13.7486C116.451 13.7486 116.255 13.281 116.186 13.1539C116.116 13.0226 115.99 13.0431 115.932 13.158C115.879 13.2769 115.606 13.8224 115.606 13.8224C115.606 13.8224 115.532 13.7158 115.426 13.5722C115.291 13.3918 115.108 13.1416 115.059 13.0842C114.969 12.9939 114.854 13.0308 114.81 13.2031C114.752 13.3754 114.638 13.8265 114.565 14.1629C114.491 14.4992 114.401 15.0488 114.401 15.2539C114.401 15.459 114.605 16.1645 114.899 16.6485C114.899 16.6485 114.818 16.5172 114.716 16.5254C114.585 16.5459 114.573 16.7428 114.52 16.993C114.467 17.2391 114.377 17.5754 114.258 18.1866C114.136 18.8059 114.075 19.175 114.144 19.4827C114.205 19.8067 114.348 20.1553 114.659 20.5737C114.981 20.9921 115.3 21.2053 115.398 21.2094L115.255 21.595C115.255 21.595 115.095 21.3694 114.879 21.0946C114.667 20.8198 114.503 20.6147 114.434 20.545C114.365 20.4753 114.238 20.4753 114.201 20.6967C114.16 20.91 113.96 22.0503 113.915 22.4933C113.883 22.9362 113.932 23.3218 113.993 23.4899C114.058 23.6581 114.201 23.9903 114.516 24.38C114.822 24.7655 115.034 24.9255 115.304 25.0855C115.304 25.0855 115.344 25.1634 115.426 25.2577C115.496 25.3398 115.589 25.4423 115.712 25.5243L115.822 25.9058C115.822 25.9058 115.647 25.8812 115.426 25.8443C115.116 25.791 114.703 25.7294 114.638 25.7294C114.52 25.7294 114.442 25.8033 114.528 25.8935C114.577 25.9468 114.654 26.1191 114.814 26.4144C114.948 26.6605 115.161 27.0543 115.426 27.4849C115.467 27.5546 115.516 27.6244 115.557 27.6941C115.802 28.0756 115.977 28.3175 116.181 28.5021C116.251 28.5636 116.324 28.6129 116.406 28.658C116.447 28.6867 116.496 28.7154 116.549 28.7441C116.753 28.8549 116.998 28.9492 117.284 29.0189C117.427 29.0599 117.578 29.0887 117.741 29.1133C118.305 29.2035 118.701 29.142 118.835 29.101C118.97 29.064 119.04 29.064 119.06 29.064C119.08 29.064 119.146 28.9902 119.146 28.9902C119.146 28.9902 119.231 28.9738 119.24 28.8795C119.244 28.7892 119.256 28.7482 119.256 28.7482C119.256 28.7482 119.476 28.8549 119.705 28.9615L119.889 29.0517L119.705 29.183L118.942 29.7449C118.942 29.7449 118.799 29.909 118.991 29.991C119.105 30.0402 119.395 30.1346 119.705 30.233C119.913 30.2945 120.142 30.3478 120.33 30.3971C120.812 30.5078 121.24 30.6268 122.02 30.3971C122.02 30.3971 121.898 30.5857 121.845 30.6924C121.783 30.7949 121.767 30.8688 121.775 30.9139C121.787 30.9467 121.816 31.0574 122.326 30.9672C122.829 30.8687 123.188 30.7539 123.498 30.4996C123.608 30.4135 123.69 30.3232 123.743 30.2248C123.849 30.0525 123.886 29.8475 123.866 29.5808C123.866 29.5808 124.029 29.8762 124.409 29.8844C124.801 29.9008 124.956 29.6834 125.025 29.5767C125.025 29.5767 124.993 29.9131 125.086 30.1182C125.107 30.1592 125.127 30.2002 125.152 30.2412C125.258 30.4012 125.425 30.5447 125.642 30.6719C125.919 30.8318 126.197 30.9057 126.356 30.9426C126.52 30.9754 127.099 31.0738 127.12 30.8934C127.132 30.7826 126.867 30.4012 126.867 30.4012C126.867 30.4012 127.308 30.5365 127.675 30.5365C128.038 30.5365 128.439 30.434 128.867 30.3191C128.9 30.3027 128.941 30.2986 128.978 30.2822C129.386 30.1633 129.823 30.0279 129.904 29.991C129.994 29.9664 130.068 29.8392 129.917 29.7244C129.774 29.6096 129.288 29.2445 128.99 29.0517C128.99 29.0517 129.427 28.8672 129.631 28.7523C129.631 28.7523 129.59 28.9738 129.868 29.0681C130.145 29.1584 130.468 29.1994 131.093 29.1215C131.272 29.101 131.448 29.0681 131.611 29.0189C131.876 28.9492 132.126 28.859 132.326 28.7523C132.464 28.6908 132.579 28.617 132.673 28.539C132.677 28.539 132.685 28.5308 132.685 28.5308C132.93 28.3299 133.236 27.85 133.453 27.4931C133.534 27.3578 133.604 27.2388 133.653 27.1568C133.828 26.8615 134.277 26.0453 134.33 25.9222C134.33 25.9222 134.461 25.7992 134.318 25.7376C134.261 25.7171 133.8 25.7951 133.453 25.8566C133.228 25.8976 133.044 25.9263 133.044 25.9263C133.044 25.9263 133.154 25.6105 133.163 25.549C133.167 25.549 133.318 25.4464 133.461 25.2659ZM133.461 17.4114C133.555 17.2883 133.632 17.1899 133.632 17.1899L133.461 17.4975L133.338 17.7149L133.285 17.6082C133.342 17.5508 133.404 17.4729 133.461 17.4114ZM115.561 17.719L115.438 17.5098L115.263 17.194C115.263 17.194 115.344 17.2883 115.438 17.4073C115.5 17.4688 115.561 17.5426 115.622 17.6123L115.561 17.719ZM116.561 17.4196L116.68 17.3252L116.561 17.518L116.492 17.6287L116.439 17.518L116.561 17.4196ZM116.194 21.3776C116.235 21.3366 116.284 21.2874 116.345 21.2259C116.345 21.2259 116.284 21.353 116.194 21.5622C116.173 21.595 116.161 21.636 116.141 21.6852C116.141 21.6852 116.071 21.5417 116.047 21.5048C116.043 21.5048 116.104 21.4637 116.194 21.3776ZM116.561 25.6228C116.451 25.5736 116.324 25.5202 116.194 25.4628C116.161 25.4505 116.124 25.4382 116.092 25.4218C116.092 25.4218 116.141 25.3726 116.194 25.2988C116.226 25.2577 116.267 25.2085 116.304 25.1634C116.304 25.1634 116.455 25.348 116.529 25.3562C116.541 25.3562 116.553 25.3562 116.565 25.348C116.635 25.3316 116.696 25.2577 116.696 25.2577C116.696 25.2577 116.765 25.5531 116.818 25.7335C116.814 25.7335 116.712 25.6925 116.561 25.6228ZM117.296 16.4434C117.406 16.2301 117.435 16.0865 117.435 16.0865V17.2801C117.374 17.0135 117.337 16.8617 117.296 16.7715C117.263 16.6977 117.223 16.6772 117.161 16.6772C117.214 16.5951 117.263 16.509 117.296 16.4434ZM117.296 20.6352C117.394 20.4999 117.435 20.4178 117.435 20.4178V22.3989C117.386 22.2267 117.337 22.0708 117.296 21.9313C117.121 21.3407 116.998 21.0249 116.998 21.0249C117.125 20.8772 117.227 20.7378 117.296 20.6352ZM117.296 24.9173C117.231 24.8763 117.161 24.8353 117.1 24.8066C117.1 24.8066 117.194 24.6917 117.296 24.5071C117.345 24.4169 117.402 24.3144 117.439 24.1954C117.439 24.1954 117.459 24.7327 117.733 25.1798C117.733 25.1798 117.513 25.0404 117.296 24.9173ZM119.713 28.3134C119.562 28.375 119.399 28.4447 119.256 28.5103L119.244 28.3504C119.244 28.3504 119.497 28.3914 119.566 28.3216C119.628 28.2519 119.628 28.0058 119.636 27.8213C119.636 27.8213 119.668 27.8418 119.717 27.8746C119.819 27.9279 119.991 28.0304 120.195 28.1371C120.191 28.1412 119.97 28.2109 119.713 28.3134ZM119.713 27.0584C119.652 27.0871 119.599 27.1076 119.538 27.1281C119.538 27.1281 119.476 26.7999 119.264 26.4308C119.264 26.4308 119.427 26.4964 119.713 26.5867C119.93 26.6564 120.22 26.7302 120.55 26.7999C120.55 26.7958 120.109 26.9189 119.713 27.0584ZM123.809 28.2314C123.788 28.2109 123.768 28.1904 123.747 28.174C123.678 28.1207 123.604 28.0756 123.604 28.0756C123.706 28.014 123.735 27.9402 123.735 27.9402C123.743 27.9402 123.743 27.9443 123.751 27.9525C123.8 27.9935 123.894 28.0632 123.894 28.0632C123.837 28.1412 123.809 28.2314 123.809 28.2314ZM125.156 28.174C125.115 28.2068 125.095 28.2314 125.095 28.2314C125.074 28.1535 125.025 28.0838 125.025 28.0838C125.058 28.0591 125.119 28.0099 125.156 27.9812L125.176 27.9607C125.233 28.0304 125.287 28.0756 125.287 28.0756C125.233 28.1207 125.193 28.1494 125.156 28.174ZM128.982 26.6523C129.39 26.5415 129.619 26.439 129.619 26.439C129.447 26.7343 129.357 27.124 129.357 27.124C129.227 27.0748 129.096 27.0296 128.982 26.9886C128.622 26.8656 128.349 26.7958 128.349 26.7958C128.594 26.7548 128.806 26.7015 128.982 26.6523ZM129.643 28.5185C129.398 28.3996 129.161 28.3052 128.982 28.2355C128.818 28.174 128.708 28.1412 128.708 28.1412C128.798 28.092 128.892 28.0468 128.982 27.9894C129.137 27.9074 129.259 27.8295 129.259 27.8295C129.259 27.8295 129.288 28.2765 129.349 28.3299C129.414 28.3832 129.655 28.3504 129.655 28.3504C129.643 28.3955 129.643 28.5185 129.643 28.5185ZM131.505 16.2301C131.538 16.3285 131.578 16.4106 131.615 16.4844C131.676 16.5992 131.734 16.6772 131.734 16.6772C131.676 16.6772 131.644 16.6977 131.615 16.7387C131.57 16.8166 131.546 16.952 131.505 17.1037V16.2301ZM131.615 24.9009C131.448 25.0075 131.235 25.1265 131.235 25.1265C131.476 24.704 131.493 24.2857 131.493 24.2857C131.521 24.3595 131.57 24.4497 131.615 24.5318C131.705 24.6753 131.795 24.8066 131.795 24.8066C131.754 24.8271 131.689 24.8599 131.615 24.9009ZM131.615 21.8862C131.554 22.0995 131.505 22.2513 131.505 22.2513V20.504C131.538 20.5655 131.578 20.627 131.615 20.6803C131.758 20.8731 131.905 21.0249 131.905 21.0249C131.807 21.2956 131.701 21.6319 131.615 21.8862ZM132.33 17.4196C132.42 17.4934 132.452 17.5098 132.452 17.5098L132.403 17.6369L132.33 17.5057L132.207 17.2965C132.256 17.3498 132.297 17.3908 132.33 17.4196ZM132.689 25.471C132.599 25.5079 132.456 25.5695 132.33 25.6228C132.236 25.6638 132.146 25.7048 132.077 25.7376C132.077 25.7376 132.158 25.5285 132.207 25.2577C132.207 25.2577 132.268 25.3275 132.33 25.348H132.366C132.44 25.3398 132.603 25.1634 132.603 25.1634C132.603 25.1634 132.644 25.2249 132.693 25.2947C132.734 25.3357 132.775 25.389 132.811 25.4259C132.807 25.4259 132.758 25.4382 132.689 25.471ZM132.758 21.6852C132.746 21.6442 132.718 21.5827 132.689 21.5253C132.624 21.3735 132.534 21.2053 132.534 21.2053C132.587 21.2669 132.644 21.3284 132.689 21.3694C132.779 21.4596 132.844 21.513 132.844 21.513C132.82 21.5581 132.758 21.6852 132.758 21.6852Z" fill="#00539F"/>
<path d="M118.501 25.307C118.897 25.713 119.399 25.9263 119.95 26.0904C120.509 26.2626 121.257 26.3939 121.645 26.4472C122.041 26.5046 122.412 26.5292 122.923 26.7794C123.425 27.0255 123.951 27.4111 124.466 27.8377C124.862 27.53 125.25 27.2265 125.589 27.0296C125.932 26.8246 126.262 26.6359 126.577 26.5744C126.891 26.5046 127.32 26.4431 127.761 26.3734C128.022 26.3283 128.304 26.2749 128.586 26.2011C128.786 26.1519 128.99 26.0945 129.182 26.0288C129.651 25.8771 130.068 25.6843 130.366 25.3767C130.668 25.0732 130.905 24.7245 130.958 24.2323C130.974 24.1421 130.966 23.9534 130.966 23.9534C130.966 20.5327 130.966 17.1078 130.966 13.683C130.966 11.1646 130.966 8.6421 130.966 6.12371C130.313 6.12371 129.659 6.12371 129.006 6.12371C125.327 6.12371 121.649 6.12371 117.97 6.12371C117.97 8.6298 117.97 11.14 117.97 13.6461C117.97 16.6854 117.97 19.7206 117.97 22.7599C117.97 22.9362 117.97 23.1167 117.97 23.2931C117.97 23.5802 117.97 23.8632 117.97 24.1503C117.97 24.4005 118.113 24.905 118.501 25.307Z" fill="url(#paint0_radial)"/>
<path d="M132.701 6.8702H116.137V12.8832H132.701V6.8702Z" fill="#88C9EF"/>
<path d="M132.452 9.24094H116.328V10.4468H132.452V9.24094Z" fill="white"/>
<path fill-rule="evenodd" clip-rule="evenodd" d="M116.018 13.6461L115.745 17.3334C115.745 17.3334 115.369 16.7961 115.296 15.865C115.226 14.8724 116.018 13.6461 116.018 13.6461Z" fill="#00A88E"/>
<path fill-rule="evenodd" clip-rule="evenodd" d="M116.181 13.8593L116.034 16.8986C116.034 16.8986 116.206 16.8289 116.247 17.0627C116.247 17.0627 116.578 16.6731 116.639 15.8445C116.692 15.0078 116.181 13.8593 116.181 13.8593Z" fill="#00A88E"/>
<path fill-rule="evenodd" clip-rule="evenodd" d="M116.798 13.7486L116.692 14.2695L116.594 14.0521L116.798 13.7486Z" fill="#00A88E"/>
<path fill-rule="evenodd" clip-rule="evenodd" d="M117.018 13.6215L116.814 14.6715C116.814 14.6715 116.978 15.0816 116.965 15.5287C116.945 15.9717 116.851 16.5377 116.373 17.2145C116.373 17.2145 116.904 16.7551 117.219 15.6723C117.386 15.0734 117.018 13.6215 117.018 13.6215Z" fill="#00A88E"/>
<path fill-rule="evenodd" clip-rule="evenodd" d="M115.234 13.7691L115.365 14.3679L115.479 14.1136L115.234 13.7691Z" fill="#00A88E"/>
<path fill-rule="evenodd" clip-rule="evenodd" d="M115.03 13.5271C115.03 13.5271 114.724 14.9914 114.757 15.3729C114.789 15.7584 115.014 16.2301 115.104 16.4147C115.104 16.4147 114.826 15.3975 115.234 14.6715L115.03 13.5271Z" fill="#00A88E"/>
<path fill-rule="evenodd" clip-rule="evenodd" d="M114.969 17.2596L115.157 18.5475L115.418 18.0184C115.418 18.0225 115.091 17.4442 114.969 17.2596Z" fill="#00A88E"/>
<path fill-rule="evenodd" clip-rule="evenodd" d="M115.234 20.787C114.712 19.5811 114.997 18.9823 114.997 18.9823L114.761 17.1078C114.761 17.1078 114.536 18.0061 114.467 18.3301C114.41 18.6541 114.328 19.1135 114.655 19.8313C114.969 20.5696 115.234 20.787 115.234 20.787Z" fill="#00A88E"/>
<path fill-rule="evenodd" clip-rule="evenodd" d="M115.908 17.6574L115.749 20.9428C115.749 20.9428 115.72 20.8485 115.585 20.8608C115.585 20.8608 115.271 20.1184 115.291 19.3719C115.316 18.8182 115.908 17.6574 115.908 17.6574Z" fill="#00A88E"/>
<path fill-rule="evenodd" clip-rule="evenodd" d="M116.067 17.3621L115.998 21.1848C115.998 21.1848 116.333 20.9182 116.541 20.2784C116.761 19.6426 116.561 18.7362 116.406 18.2768C116.247 17.8174 116.067 17.3621 116.067 17.3621Z" fill="#00A88E"/>
<path fill-rule="evenodd" clip-rule="evenodd" d="M116.622 17.9405L116.806 18.3875L116.941 17.4114L116.622 17.9405Z" fill="#00A88E"/>
<path fill-rule="evenodd" clip-rule="evenodd" d="M117.161 17.2883L116.965 18.9084C117.141 19.335 117.043 20.184 116.774 20.6024C116.774 20.6024 116.863 20.6147 116.892 20.6968C117.206 20.3194 117.484 19.5237 117.517 19.0848C117.549 18.6459 117.235 17.5221 117.161 17.2883Z" fill="#00A88E"/>
<path fill-rule="evenodd" clip-rule="evenodd" d="M114.369 21.3079L114.818 23.0634C114.818 23.0634 114.679 23.5228 115.067 24.5441C115.067 24.5441 114.552 24.0847 114.283 23.1454C114.132 22.604 114.369 21.3079 114.369 21.3079Z" fill="#00A88E"/>
<path fill-rule="evenodd" clip-rule="evenodd" d="M114.548 21.0905L114.92 22.5712L115.144 21.919L114.548 21.0905Z" fill="#00A88E"/>
<path fill-rule="evenodd" clip-rule="evenodd" d="M115.528 21.6442L115.7 25.1429C115.7 25.1429 115.463 24.8763 115.255 24.2857C115.051 23.695 115.018 23.1454 115.21 22.5507C115.406 21.96 115.528 21.6442 115.528 21.6442Z" fill="#00A88E"/>
<path fill-rule="evenodd" clip-rule="evenodd" d="M115.794 21.5827L115.888 25.2454C115.888 25.2454 116.177 24.9829 116.349 24.4169C116.52 23.855 116.451 23.2274 116.218 22.5794C115.986 21.9354 115.794 21.5827 115.794 21.5827Z" fill="#00A88E"/>
<path fill-rule="evenodd" clip-rule="evenodd" d="M116.284 22.0011L116.537 22.6245L116.594 21.3489L116.284 22.0011Z" fill="#00A88E"/>
<path fill-rule="evenodd" clip-rule="evenodd" d="M116.733 21.0618L116.692 23.4366C116.692 23.4366 116.778 23.7647 116.692 24.1093L116.684 24.6015C116.684 24.6015 116.733 24.5687 116.855 24.6548C116.855 24.6548 117.072 24.2651 117.223 23.7073C117.386 23.1126 117.345 22.7763 117.108 22.0749C116.867 21.3776 116.733 21.0618 116.733 21.0618Z" fill="#00A88E"/>
<path fill-rule="evenodd" clip-rule="evenodd" d="M132.885 13.6461L133.154 17.3375C133.154 17.3375 133.538 16.8084 133.604 15.8691C133.677 14.8848 132.885 13.6461 132.885 13.6461Z" fill="#00A88E"/>
<path fill-rule="evenodd" clip-rule="evenodd" d="M132.718 13.8593L132.86 16.8904C132.86 16.8904 132.693 16.8412 132.648 17.0668C132.648 17.0668 132.33 16.6813 132.268 15.8527C132.215 15.0242 132.718 13.8593 132.718 13.8593Z" fill="#00A88E"/>
<path fill-rule="evenodd" clip-rule="evenodd" d="M132.105 13.7609L132.215 14.2736L132.309 14.0603L132.105 13.7609Z" fill="#00A88E"/>
<path fill-rule="evenodd" clip-rule="evenodd" d="M131.889 13.6256L132.077 14.6674C132.077 14.6674 131.93 15.0939 131.942 15.5328C131.962 15.9799 132.052 16.5418 132.526 17.2268C132.526 17.2268 131.995 16.7674 131.685 15.6846C131.517 15.0816 131.889 13.6256 131.889 13.6256Z" fill="#00A88E"/>
<path fill-rule="evenodd" clip-rule="evenodd" d="M133.665 13.7609L133.534 14.3556L133.416 14.1013L133.665 13.7609Z" fill="#00A88E"/>
<path fill-rule="evenodd" clip-rule="evenodd" d="M133.861 13.5271C133.861 13.5271 134.175 14.9955 134.147 15.3893C134.114 15.7707 133.881 16.226 133.791 16.4188C133.791 16.4188 134.065 15.4016 133.665 14.6756L133.861 13.5271Z" fill="#00A88E"/>
<path fill-rule="evenodd" clip-rule="evenodd" d="M133.914 17.2678L133.738 18.5393L133.485 18.0184C133.489 18.0143 133.791 17.4442 133.914 17.2678Z" fill="#00A88E"/>
<path fill-rule="evenodd" clip-rule="evenodd" d="M133.665 20.8034C134.179 19.5975 133.91 18.9905 133.91 18.9905L134.134 17.1201C134.134 17.1201 134.367 18.0266 134.432 18.3424C134.494 18.6623 134.579 19.1258 134.257 19.8518C133.93 20.5778 133.665 20.8034 133.665 20.8034Z" fill="#00A88E"/>
<path fill-rule="evenodd" clip-rule="evenodd" d="M132.991 17.6779L133.146 20.9428C133.146 20.9428 133.183 20.8485 133.314 20.869C133.314 20.869 133.632 20.1348 133.612 19.3883C133.591 18.8223 132.991 17.6779 132.991 17.6779Z" fill="#00A88E"/>
<path fill-rule="evenodd" clip-rule="evenodd" d="M132.828 17.358L132.897 21.1807C132.897 21.1807 132.562 20.9141 132.35 20.2743C132.138 19.6385 132.33 18.7321 132.485 18.2727C132.644 17.8092 132.828 17.358 132.828 17.358Z" fill="#00A88E"/>
<path fill-rule="evenodd" clip-rule="evenodd" d="M132.268 17.9323L132.085 18.3793L131.95 17.4072L132.268 17.9323Z" fill="#00A88E"/>
<path fill-rule="evenodd" clip-rule="evenodd" d="M131.734 17.2965L131.942 18.9248C131.758 19.3514 131.86 20.1799 132.13 20.5983C132.13 20.5983 132.04 20.6188 132.011 20.7008C131.701 20.3235 131.423 19.5319 131.391 19.1012C131.358 18.6541 131.656 17.5303 131.734 17.2965Z" fill="#00A88E"/>
<path fill-rule="evenodd" clip-rule="evenodd" d="M134.514 21.3243L134.085 23.0716C134.085 23.0716 134.187 23.5679 133.836 24.5605C133.836 24.5605 134.375 23.9903 134.62 23.1536C134.771 22.6245 134.514 21.3243 134.514 21.3243Z" fill="#00A88E"/>
<path fill-rule="evenodd" clip-rule="evenodd" d="M134.351 21.0905L133.971 22.5712L133.759 21.9149C133.759 21.9149 133.93 21.6688 134.004 21.5663C134.081 21.4637 134.351 21.0905 134.351 21.0905Z" fill="#00A88E"/>
<path fill-rule="evenodd" clip-rule="evenodd" d="M133.375 21.6442L133.203 25.1388C133.203 25.1388 133.428 24.8927 133.632 24.3021C133.836 23.7032 133.885 23.1577 133.685 22.5671C133.489 21.9723 133.375 21.6442 133.375 21.6442Z" fill="#00A88E"/>
<path fill-rule="evenodd" clip-rule="evenodd" d="M133.114 21.595L133.012 25.229C133.012 25.229 132.726 24.9911 132.558 24.4292C132.387 23.8591 132.456 23.2357 132.689 22.5917C132.922 21.9395 133.114 21.595 133.114 21.595Z" fill="#00A88E"/>
<path fill-rule="evenodd" clip-rule="evenodd" d="M132.616 22.001L132.362 22.6245L132.301 21.3448L132.616 22.001Z" fill="#00A88E"/>
<path fill-rule="evenodd" clip-rule="evenodd" d="M132.166 21.0577L132.207 23.4325C132.207 23.4325 132.117 23.7607 132.207 24.1093L132.215 24.5974C132.215 24.5974 132.166 24.5728 132.044 24.6589C132.044 24.6589 131.827 24.2693 131.676 23.7114C131.513 23.1167 131.554 22.7804 131.795 22.079C132.032 21.3776 132.166 21.0577 132.166 21.0577Z" fill="#00A88E"/>
<path fill-rule="evenodd" clip-rule="evenodd" d="M116.941 25.0198C116.941 25.0198 118.056 25.5407 118.501 25.9468C118.933 26.3488 119.227 27.2347 119.227 27.2347C119.227 27.2347 119.035 27.2675 119.052 27.3783C119.072 27.4931 119.101 27.5218 119.346 27.6531L119.366 27.891C119.366 27.891 119.162 27.6449 119.052 27.5341C119.052 27.5341 119.019 27.1568 118.256 26.5744L116.941 25.0198Z" fill="#00A88E"/>
<path fill-rule="evenodd" clip-rule="evenodd" d="M116.978 25.2947L117.655 26.1888C117.655 26.1888 117.439 26.0288 117.137 25.8812L116.978 25.2947Z" fill="#00A88E"/>
<path fill-rule="evenodd" clip-rule="evenodd" d="M116.096 25.7253C116.096 25.7253 117.104 26.0904 117.696 26.5169C118.296 26.9353 118.917 27.5259 118.991 28.539C118.991 28.539 118.207 27.772 117.717 27.2962C117.227 26.8328 116.096 25.7253 116.096 25.7253Z" fill="#00A88E"/>
<path fill-rule="evenodd" clip-rule="evenodd" d="M116.206 26.0494L118.762 28.7031C118.762 28.7031 118.566 28.7359 118.003 28.4119C117.431 28.0879 116.998 27.69 116.88 27.5218C116.757 27.3537 116.431 26.6318 116.206 26.0494Z" fill="#00A88E"/>
<path fill-rule="evenodd" clip-rule="evenodd" d="M115.941 26.2134L116.104 26.7056L115.238 26.1027L115.941 26.2134Z" fill="#00A88E"/>
<path fill-rule="evenodd" clip-rule="evenodd" d="M114.997 26.1601L116.235 27.0255C116.488 27.8418 116.786 28.0468 117.214 28.334C117.639 28.6211 118.284 28.8836 118.284 28.8836C118.284 28.8836 117.794 28.8261 117.202 28.5882C116.614 28.3545 116.333 28.1412 116.181 27.9853C116.022 27.8254 115.447 26.9763 114.997 26.1601Z" fill="#00A88E"/>
<path fill-rule="evenodd" clip-rule="evenodd" d="M119.746 27.5916L121.579 27.813C121.579 27.813 121.11 27.8377 120.567 28.0263C120.563 28.0263 119.905 27.6941 119.746 27.5916Z" fill="#00A88E"/>
<path fill-rule="evenodd" clip-rule="evenodd" d="M119.664 28.6293C119.664 28.6293 120.55 28.2191 121.208 28.0714C121.869 27.9197 122.845 27.813 123.69 28.5472C123.69 28.5472 121.314 28.5883 120.771 28.6088C120.224 28.6211 119.664 28.6293 119.664 28.6293Z" fill="#00A88E"/>
<path fill-rule="evenodd" clip-rule="evenodd" d="M119.971 28.7728L123.686 28.8138C123.686 28.8138 123.421 29.0599 122.686 29.2158C121.951 29.3799 121.596 29.3594 121.318 29.2855C121.04 29.2117 120.122 28.8426 119.971 28.7728Z" fill="#00A88E"/>
<path fill-rule="evenodd" clip-rule="evenodd" d="M120.203 29.1707C120.203 29.1707 120.493 29.3224 120.787 29.4045L119.583 29.6178C119.583 29.6178 120.101 29.2445 120.203 29.1707Z" fill="#00A88E"/>
<path fill-rule="evenodd" clip-rule="evenodd" d="M119.354 29.7982C119.354 29.7982 120.375 29.6752 121.228 29.5234C122.016 29.626 123.221 29.4086 123.78 29.1133V29.3265C123.78 29.3265 123.531 29.589 122.906 29.8844C122.286 30.1879 121.902 30.2904 121.498 30.2781C121.093 30.2535 119.966 29.9992 119.354 29.7982Z" fill="#00A88E"/>
<path fill-rule="evenodd" clip-rule="evenodd" d="M119.591 27.4152C119.591 27.4152 120.583 27.0912 121.065 27.0255C121.534 26.9517 122.428 27.0255 123.294 27.731L119.591 27.4152Z" fill="#00A88E"/>
<path fill-rule="evenodd" clip-rule="evenodd" d="M122.49 30.2494C122.49 30.2494 122.224 30.5857 122.151 30.7088C122.151 30.7088 122.604 30.7006 122.914 30.5283C123.229 30.3601 123.429 30.1223 123.51 29.8187C123.51 29.8187 122.951 30.1469 122.49 30.2494Z" fill="#00A88E"/>
<path fill-rule="evenodd" clip-rule="evenodd" d="M124.111 28.5677C124.082 28.9246 124.049 29.2322 124.062 29.3019C124.082 29.3758 124.143 29.5767 124.384 29.589C124.621 29.6096 124.838 29.4209 124.854 29.2322C124.874 29.0394 124.895 28.6088 124.895 28.5062C124.895 28.4119 124.719 28.0386 124.486 28.0386C124.258 28.0386 124.143 28.2027 124.111 28.5677Z" fill="#00A88E"/>
<path fill-rule="evenodd" clip-rule="evenodd" d="M125.593 27.7351C125.593 27.7351 126.071 27.3167 126.712 27.124C127.357 26.9394 127.679 26.8656 129.292 27.4111L125.593 27.7351Z" fill="#00A88E"/>
<path fill-rule="evenodd" clip-rule="evenodd" d="M127.34 27.8007L129.116 27.5957L128.332 28.0345C128.337 28.0304 127.908 27.8746 127.34 27.8007Z" fill="#00A88E"/>
<path fill-rule="evenodd" clip-rule="evenodd" d="M125.201 28.5595C125.201 28.5595 125.711 28.092 126.348 27.9976C126.985 27.9033 127.834 27.9935 129.202 28.6211L125.201 28.5595Z" fill="#00A88E"/>
<path fill-rule="evenodd" clip-rule="evenodd" d="M125.225 28.822L128.912 28.781C128.912 28.781 128.206 29.1092 127.659 29.2609C127.128 29.4209 126.589 29.3348 125.997 29.1707C125.421 29.0066 125.225 28.822 125.225 28.822Z" fill="#00A88E"/>
<path fill-rule="evenodd" clip-rule="evenodd" d="M125.123 29.1092L125.229 29.1297C125.229 29.1297 126.14 29.6752 127.679 29.5275L129.549 29.8146C129.549 29.8146 127.904 30.2658 127.324 30.2822C126.744 30.2945 125.67 29.8228 125.123 29.3224V29.1092Z" fill="#00A88E"/>
<path fill-rule="evenodd" clip-rule="evenodd" d="M125.401 29.8228C125.401 29.8228 125.817 30.0771 126.401 30.2576C126.401 30.2576 126.597 30.4791 126.732 30.7129C126.732 30.7129 126.279 30.7129 125.87 30.4627C125.47 30.2125 125.401 29.8228 125.401 29.8228Z" fill="#00A88E"/>
<path fill-rule="evenodd" clip-rule="evenodd" d="M128.112 29.4045C128.112 29.4045 128.426 29.2978 128.688 29.1789L129.337 29.6342C129.337 29.6301 128.194 29.4373 128.112 29.4045Z" fill="#00A88E"/>
<path fill-rule="evenodd" clip-rule="evenodd" d="M129.655 27.2306C129.655 27.2306 129.962 26.4062 130.28 26.0699C130.594 25.7335 131.089 25.4792 131.975 24.9911L130.611 26.6113C130.611 26.6113 129.941 27.0871 129.835 27.5423L129.521 27.8992L129.541 27.6613C129.541 27.6613 129.786 27.5218 129.819 27.4562C129.86 27.3947 129.847 27.2757 129.655 27.2306Z" fill="#00A88E"/>
<path fill-rule="evenodd" clip-rule="evenodd" d="M129.909 28.5595C129.909 28.5595 129.941 27.9361 130.256 27.4398C130.574 26.9476 131.064 26.558 131.574 26.2749C132.085 25.996 132.799 25.7253 132.799 25.7253L129.909 28.5595Z" fill="#00A88E"/>
<path fill-rule="evenodd" clip-rule="evenodd" d="M130.113 28.7195L132.685 26.0494C132.685 26.0494 132.489 26.5826 132.244 27.1117C132.019 27.5916 131.725 27.8787 131.272 28.1945C130.856 28.4775 130.3 28.7113 130.113 28.7195Z" fill="#00A88E"/>
<path fill-rule="evenodd" clip-rule="evenodd" d="M131.215 26.1888L131.909 25.3111L131.77 25.8894L131.215 26.1888Z" fill="#00A88E"/>
<path fill-rule="evenodd" clip-rule="evenodd" d="M132.95 26.2134L132.787 26.7138L133.677 26.0822L132.95 26.2134Z" fill="#00A88E"/>
<path fill-rule="evenodd" clip-rule="evenodd" d="M132.665 27.0255L133.898 26.1601C133.898 26.1601 133.559 26.7917 133.208 27.3126C132.856 27.8295 132.685 28.1289 131.991 28.4652C131.297 28.8015 130.582 28.8795 130.582 28.8795C130.582 28.8795 131.003 28.781 131.627 28.3709C132.26 27.9566 132.366 27.813 132.665 27.0255Z" fill="#00A88E"/>
<path fill-rule="evenodd" clip-rule="evenodd" d="M119.921 0L120.689 1.56272L122.404 1.81291L121.163 3.03109L121.457 4.74967L119.921 3.93755L118.386 4.74967L118.68 3.03109L117.435 1.81291L119.154 1.56272L119.921 0Z" fill="url(#paint1_linear)"/>
<path fill-rule="evenodd" clip-rule="evenodd" d="M128.912 0L129.68 1.56272L131.395 1.81291L130.153 3.03109L130.443 4.74967L128.908 3.93755L127.373 4.74967L127.667 3.03109L126.426 1.81291L128.141 1.56272L128.912 0Z" fill="url(#paint2_linear)"/>
<path opacity="0.3" fill-rule="evenodd" clip-rule="evenodd" d="M132.452 12.4074L116.439 7.23935H132.452V12.4074Z" fill="white"/>
<path fill-rule="evenodd" clip-rule="evenodd" d="M123.461 22.887C123.331 22.7517 123.147 22.5261 123.074 22.3333C123 22.1405 122.706 21.2587 122.502 20.6434C122.298 20.0241 122.02 19.2161 121.828 18.6582C121.64 18.1004 121.387 17.3539 121.314 17.1242C121.24 16.8945 121.134 17.0873 121.085 17.2022C121.036 17.317 120.06 19.6057 119.775 20.2784C119.489 20.951 119.048 21.9764 118.848 22.3292C118.652 22.6819 118.423 22.8337 118.243 22.9157C118.064 22.9977 117.978 22.9526 117.933 23.0101C117.933 23.0101 117.905 23.0798 117.933 23.1208C117.933 23.1208 117.949 23.17 118.064 23.17H119.922C119.922 23.17 120.171 23.2028 120.162 23.0552C120.154 22.8788 119.954 22.9526 119.803 22.8501C119.615 22.7229 119.497 22.563 119.489 22.4071C119.476 22.161 119.628 21.9026 119.75 21.6524H121.514C121.616 21.9395 121.73 22.1159 121.669 22.4112C121.608 22.7065 121.4 22.9239 121.306 22.9649C121.212 23.006 121.224 23.1331 121.334 23.1331C121.444 23.1331 123.233 23.1372 123.372 23.1331C123.498 23.129 123.592 23.0265 123.461 22.887ZM119.999 21.0044L120.718 19.4047L121.318 21.0044H119.999Z" fill="#00539F"/>
<path fill-rule="evenodd" clip-rule="evenodd" d="M130.345 22.8952C130.231 22.8009 130.039 22.5671 129.945 22.3456C129.851 22.1241 129.561 21.2382 129.378 20.6762C129.194 20.1184 128.214 17.2268 128.169 17.0996C128.128 16.9725 128.055 16.9643 127.957 17.194C127.859 17.4237 127.402 18.527 127.067 19.3022C126.732 20.0774 126.369 20.9551 126.124 21.4843C125.879 22.0175 125.703 22.6163 125.131 22.9116V18.6664C125.581 18.6664 125.732 18.8305 125.748 19.093C125.764 19.3555 125.821 19.6057 126.034 19.6057C126.246 19.6057 126.197 18.9207 126.209 18.5475C126.222 18.1414 126.213 17.4196 126.213 17.2514C126.213 17.0873 126.177 16.8576 126.034 16.8453C125.891 16.833 125.789 17.0381 125.777 17.1776C125.764 17.3211 125.85 17.7969 125.14 17.7969V16.2506C125.14 16.2506 125.854 16.1686 126.287 16.1686C126.716 16.1686 127.242 16.3449 127.487 16.4598C127.732 16.5746 128.112 16.8412 128.198 16.7879C128.267 16.7428 128.034 16.1604 127.908 15.783C127.781 15.4057 127.634 15.0119 127.581 14.8724C127.528 14.733 127.446 14.692 127.238 14.8437C127.03 14.9955 126.703 15.1391 126.262 15.1432C125.821 15.1473 124.833 15.1144 124.466 15.1144C124.098 15.1144 123.396 15.1473 123.127 15.1473C122.861 15.1473 122.237 15.1185 121.8 14.9504C121.363 14.7822 120.746 14.2736 120.607 14.1178C120.473 13.9578 120.33 14.1137 120.46 14.4787C120.591 14.8478 120.897 15.3728 121.469 15.8117C122.041 16.2506 122.71 16.2957 123.6 16.2014V23.1536C123.6 23.4735 123.494 23.7114 123.135 23.9042C122.776 24.0929 122.686 24.2077 122.874 24.2733C123.061 24.339 123.706 24.4702 123.996 24.6261C124.192 24.7327 124.396 25.0937 124.695 25.307C124.988 25.5202 125.397 25.6966 125.997 25.43C126.593 25.1675 126.756 24.8886 126.801 24.823C126.842 24.7573 126.883 24.5851 126.532 24.6179C126.091 24.6589 125.728 24.4538 125.638 24.298C125.474 24.019 125.278 23.6909 125.14 23.613V23.1536H126.916C127.087 23.1536 127.112 22.9157 126.867 22.8911C126.622 22.8665 126.36 22.6286 126.36 22.3497C126.36 22.0708 126.638 21.636 126.638 21.636H128.381C128.381 21.636 128.577 22.0134 128.569 22.2513C128.561 22.522 128.357 22.846 128.222 22.9198C128.092 22.9895 128.067 23.1249 128.247 23.1249H130.268C130.386 23.1331 130.46 22.9854 130.345 22.8952ZM126.871 21.0085L127.593 19.4047L128.181 21.0085H126.871Z" fill="#00539F"/>
<path d="M0.75946 29.1215H1.55973C2.5029 29.1215 3.01735 28.539 3.01735 27.5382C3.01735 26.5415 2.5029 25.9837 1.54339 25.9837H0.75946V29.1215ZM1.15551 28.7933V26.316H1.51073C2.2375 26.316 2.60089 26.7507 2.60089 27.5423C2.60089 28.338 2.2375 28.7974 1.51073 28.7974H1.15551V28.7933Z" fill="black"/>
<path d="M3.94009 29.1215H4.33614V26.7958H3.94009V29.1215ZM4.14016 26.3201C4.29123 26.3201 4.40147 26.2216 4.40147 26.0617C4.40147 25.9099 4.29123 25.8032 4.14016 25.8032C3.98909 25.8032 3.87885 25.9099 3.87885 26.0617C3.87885 26.2175 3.985 26.3201 4.14016 26.3201Z" fill="black"/>
<path d="M6.18168 30.192C6.90028 30.192 7.35349 29.8187 7.35349 29.384C7.35349 29.0025 7.08402 28.8302 6.54506 28.8302H6.09593C5.78563 28.8302 5.69172 28.7236 5.69172 28.58C5.69172 28.4529 5.75296 28.375 5.83871 28.3011C5.94486 28.3545 6.06735 28.3832 6.18168 28.3832C6.65122 28.3832 7.03094 28.0714 7.03094 27.5752C7.03094 27.3783 6.95336 27.206 6.8472 27.1035H7.31675V26.7958H6.5124C6.42666 26.763 6.31233 26.7384 6.18576 26.7384C5.71622 26.7384 5.31608 27.0583 5.31608 27.5669C5.31608 27.8459 5.46307 28.0673 5.61414 28.1945V28.215C5.49573 28.297 5.361 28.4488 5.361 28.6457C5.361 28.8261 5.45082 28.9533 5.56515 29.023V29.0435C5.35691 29.1871 5.22626 29.3717 5.22626 29.5685C5.22626 29.9664 5.61414 30.192 6.18168 30.192ZM6.18168 28.1166C5.91628 28.1166 5.69172 27.9074 5.69172 27.5669C5.69172 27.2265 5.9122 27.0255 6.18168 27.0255C6.45115 27.0255 6.67164 27.2306 6.67164 27.5669C6.67164 27.9074 6.44707 28.1166 6.18168 28.1166ZM6.23884 29.9172C5.81829 29.9172 5.56923 29.7654 5.56923 29.5152C5.56923 29.3799 5.63864 29.2445 5.80604 29.1215C5.90403 29.1502 6.01427 29.1584 6.1041 29.1584H6.50015C6.80637 29.1584 6.96561 29.2281 6.96561 29.4455C6.96561 29.6875 6.67572 29.9172 6.23884 29.9172Z" fill="black"/>
<path d="M8.08841 29.1215H8.48445V26.7958H8.08841V29.1215ZM8.28847 26.3201C8.43954 26.3201 8.54978 26.2216 8.54978 26.0617C8.54978 25.9099 8.43954 25.8032 8.28847 25.8032C8.1374 25.8032 8.02716 25.9099 8.02716 26.0617C8.02716 26.2175 8.1374 26.3201 8.28847 26.3201Z" fill="black"/>
<path d="M10.281 29.1789C10.4361 29.1789 10.5954 29.1379 10.7178 29.0804L10.6362 28.7974C10.5423 28.8384 10.4565 28.8549 10.3708 28.8549C10.1095 28.8549 10.0156 28.6908 10.0156 28.4119V27.1199H10.6444V26.7999H10.0156V26.0534H9.68893L9.63994 26.7999L9.27655 26.8246V27.1199H9.61952V28.4037C9.61952 28.8631 9.78693 29.1789 10.281 29.1789Z" fill="black"/>
<path d="M11.8815 29.1789C12.1714 29.1789 12.4246 29.0312 12.645 28.8426H12.6573L12.6981 29.1215H13.0207V27.69C13.0207 27.1158 12.7798 26.7384 12.2163 26.7384C11.8448 26.7384 11.5222 26.8943 11.3058 27.0378L11.4569 27.3044C11.6406 27.1896 11.8815 27.0707 12.151 27.0707C12.5266 27.0707 12.6205 27.3537 12.6287 27.6449C11.6365 27.7556 11.2078 28.0017 11.2078 28.5185C11.2078 28.941 11.4977 29.1789 11.8815 29.1789ZM11.9918 28.8549C11.7672 28.8549 11.5916 28.7564 11.5916 28.498C11.5916 28.1986 11.8448 28.0181 12.6246 27.9279V28.5595C12.4001 28.7523 12.2163 28.8549 11.9918 28.8549Z" fill="black"/>
<path d="M14.4497 29.1789C14.5477 29.1789 14.6212 29.1666 14.6784 29.1379L14.6253 28.8426C14.5886 28.8508 14.5681 28.8508 14.5436 28.8508C14.4824 28.8508 14.4293 28.8097 14.4293 28.6826V25.7171H14.0333V28.6539C14.0333 28.9861 14.1517 29.1789 14.4497 29.1789Z" fill="black"/>
<path d="M17.6753 29.1789C18.3327 29.1789 18.741 28.781 18.741 28.2847C18.741 27.8213 18.4592 27.5998 18.0999 27.448L17.6508 27.2511C17.4099 27.1527 17.1363 27.0378 17.1363 26.7343C17.1363 26.4554 17.365 26.2791 17.712 26.2791C17.9815 26.2791 18.2265 26.3898 18.4184 26.5703L18.6389 26.3037C18.4184 26.0822 18.0958 25.9263 17.7161 25.9263C17.1486 25.9263 16.7362 26.2791 16.7362 26.7589C16.7362 27.2224 17.0751 27.4439 17.365 27.567L17.8182 27.7679C18.1081 27.8951 18.3367 27.9976 18.3367 28.3175C18.3367 28.617 18.0958 28.8261 17.6835 28.8261C17.3568 28.8261 17.0343 28.6826 16.8056 28.4488L16.5811 28.7113C16.8546 29.0025 17.2303 29.1789 17.6753 29.1789Z" fill="black"/>
<path d="M19.6024 30.1017H19.9985V29.3183L19.9903 28.9123C20.1985 29.0804 20.419 29.1789 20.6272 29.1789C21.154 29.1789 21.6317 28.7154 21.6317 27.9238C21.6317 27.2019 21.3091 26.7384 20.713 26.7384C20.4476 26.7384 20.1863 26.8861 19.974 27.0625H19.9617L19.9291 26.7958H19.6065V30.1017H19.6024ZM20.5578 28.8425C20.4068 28.8425 20.2067 28.781 19.9944 28.6047V27.3906C20.2189 27.1814 20.4149 27.0748 20.6068 27.0748C21.0396 27.0748 21.2152 27.4152 21.2152 27.9279C21.2193 28.498 20.9376 28.8425 20.5578 28.8425Z" fill="black"/>
<path d="M23.4282 29.1789C23.9957 29.1789 24.5061 28.7359 24.5061 27.9648C24.5061 27.1855 23.9957 26.7384 23.4282 26.7384C22.8606 26.7384 22.3584 27.1814 22.3584 27.9648C22.3543 28.7359 22.8606 29.1789 23.4282 29.1789ZM23.4282 28.8508C23.0321 28.8508 22.7667 28.498 22.7667 27.9648C22.7667 27.4275 23.0321 27.0707 23.4282 27.0707C23.8283 27.0707 24.0937 27.4275 24.0937 27.9648C24.0937 28.4939 23.8283 28.8508 23.4282 28.8508Z" fill="black"/>
<path d="M25.3922 29.1215H25.7882V27.4398C26.0168 27.206 26.1842 27.0871 26.417 27.0871C26.7232 27.0871 26.8539 27.2675 26.8539 27.7023V29.1215H27.2499V27.649C27.2499 27.0542 27.0294 26.7384 26.5395 26.7384C26.221 26.7384 25.9842 26.9107 25.7637 27.1322H25.7515L25.7188 26.7958H25.3962V29.1215H25.3922Z" fill="black"/>
<path d="M28.8871 29.1789C29.4343 29.1789 29.7364 28.8631 29.7364 28.4857C29.7364 28.0632 29.3894 27.9074 29.026 27.7761C28.7361 27.6777 28.536 27.5916 28.536 27.3783C28.536 27.206 28.6626 27.0419 28.9606 27.0419C29.1648 27.0419 29.3322 27.1076 29.4955 27.2265L29.6752 26.9968C29.4955 26.8451 29.2465 26.7343 28.9566 26.7343C28.4503 26.7343 28.1563 27.0214 28.1563 27.3947C28.1563 27.7761 28.4911 27.9443 28.8382 28.0673C29.0995 28.1617 29.3567 28.2642 29.3567 28.5021C29.3567 28.7031 29.2097 28.859 28.9035 28.859C28.6177 28.859 28.4094 28.7728 28.2094 28.6047L28.0297 28.8344C28.242 29.0558 28.5483 29.1789 28.8871 29.1789Z" fill="black"/>
<path d="M31.4635 29.1789C32.0311 29.1789 32.5414 28.7359 32.5414 27.9648C32.5414 27.1855 32.0311 26.7384 31.4635 26.7384C30.896 26.7384 30.3938 27.1814 30.3938 27.9648C30.3938 28.7359 30.896 29.1789 31.4635 29.1789ZM31.4635 28.8508C31.0675 28.8508 30.8021 28.498 30.8021 27.9648C30.8021 27.4275 31.0675 27.0707 31.4635 27.0707C31.8637 27.0707 32.1291 27.4275 32.1291 27.9648C32.1291 28.4939 31.8637 28.8508 31.4635 28.8508Z" fill="black"/>
<path d="M33.4315 29.1215H33.8276V27.6285C33.9827 27.2347 34.2195 27.0994 34.4114 27.0994C34.5013 27.0994 34.5543 27.1076 34.6197 27.1281L34.7054 26.7876C34.636 26.7548 34.5625 26.7384 34.4563 26.7384C34.1991 26.7384 33.9623 26.923 33.799 27.2183H33.7826L33.75 26.7958H33.4274V29.1215H33.4315Z" fill="black"/>
<path d="M37.5104 29.1789C38.078 29.1789 38.5884 28.7359 38.5884 27.9648C38.5884 27.1855 38.078 26.7384 37.5104 26.7384C36.9429 26.7384 36.4407 27.1814 36.4407 27.9648C36.4366 28.7359 36.9429 29.1789 37.5104 29.1789ZM37.5104 28.8508C37.1144 28.8508 36.849 28.498 36.849 27.9648C36.849 27.4275 37.1144 27.0707 37.5104 27.0707C37.9106 27.0707 38.176 27.4275 38.176 27.9648C38.176 28.4939 37.9106 28.8508 37.5104 28.8508Z" fill="black"/>
<path d="M39.5438 29.1215H39.9398V27.1158H40.4216V26.7958H39.9357V26.4308C39.9357 26.1355 40.0419 25.9755 40.2583 25.9755C40.3399 25.9755 40.4257 25.996 40.5155 26.0247L40.6012 25.7335C40.5073 25.6884 40.3604 25.6556 40.2174 25.6556C39.7561 25.6556 39.5397 25.955 39.5397 26.4308V26.7958L39.2253 26.8204V27.1158H39.5397V29.1215H39.5438Z" fill="black"/>
<path d="M43.1204 29.1789C43.2756 29.1789 43.4348 29.1379 43.5573 29.0804L43.4757 28.7974C43.3817 28.8384 43.296 28.8549 43.2103 28.8549C42.9489 28.8549 42.855 28.6908 42.855 28.4119V27.1199H43.4838V26.7999H42.855V26.0534H42.5243L42.4753 26.7999L42.1119 26.8246V27.1199H42.4549V28.4037C42.459 28.8631 42.6223 29.1789 43.1204 29.1789Z" fill="black"/>
<path d="M44.2882 29.1215H44.6843V27.4398C44.9129 27.206 45.0803 27.0871 45.313 27.0871C45.6193 27.0871 45.7499 27.2675 45.7499 27.7023V29.1215H46.146V27.649C46.146 27.0543 45.9255 26.7384 45.4355 26.7384C45.1171 26.7384 44.8843 26.9107 44.6679 27.1199L44.6843 26.64V25.7171H44.2882V29.1215Z" fill="black"/>
<path d="M48.0977 29.1789C48.4161 29.1789 48.6652 29.0845 48.8653 28.941L48.7264 28.6867C48.5631 28.7974 48.3712 28.859 48.1466 28.859C47.7098 28.859 47.4199 28.5431 47.3831 28.0632H48.9387C48.9551 27.9853 48.9592 27.9156 48.9592 27.8295C48.9592 27.1609 48.6203 26.7384 48.0323 26.7384C47.5056 26.7384 46.9952 27.2019 46.9952 27.9566C46.9952 28.7277 47.4811 29.1789 48.0977 29.1789ZM47.3831 27.7597C47.4321 27.3167 47.7179 27.0583 48.0405 27.0583C48.3916 27.0583 48.608 27.3003 48.608 27.7597H47.3831Z" fill="black"/>
<path d="M51.6335 27.3701C51.7438 27.0214 51.8417 26.6769 51.9397 26.3118H51.9602C52.0622 26.6769 52.1602 27.0214 52.2745 27.3701L52.4215 27.8417H51.4865L51.6335 27.3701ZM50.674 29.1215H51.0782L51.3804 28.1699H52.5195L52.8135 29.1215H53.2381L52.1847 25.9837H51.7274L50.674 29.1215Z" fill="black"/>
<path d="M53.6423 29.1215H54.0384V27.6285C54.1935 27.2347 54.4303 27.0994 54.6222 27.0994C54.7121 27.0994 54.7651 27.1076 54.8305 27.1281L54.9162 26.7876C54.8427 26.7548 54.7733 26.7384 54.6672 26.7384C54.4099 26.7384 54.1731 26.923 54.0098 27.2183H53.9935L53.9608 26.7958H53.6382V29.1215H53.6423Z" fill="black"/>
<path d="M56.0309 30.192C56.7495 30.192 57.2027 29.8187 57.2027 29.384C57.2027 29.0025 56.9291 28.8302 56.3942 28.8302H55.9451C55.6348 28.8302 55.5409 28.7236 55.5409 28.58C55.5409 28.4529 55.6021 28.375 55.6879 28.3011C55.794 28.3545 55.9165 28.3832 56.0309 28.3832C56.5004 28.3832 56.8801 28.0714 56.8801 27.5752C56.8801 27.3783 56.8025 27.206 56.6964 27.1035H57.1659V26.7958H56.3616C56.2758 26.763 56.1615 26.7384 56.0349 26.7384C55.5654 26.7384 55.1653 27.0583 55.1653 27.5669C55.1653 27.8459 55.3123 28.0673 55.4633 28.1945V28.215C55.3449 28.297 55.2102 28.4488 55.2102 28.6457C55.2102 28.8261 55.3 28.9533 55.4143 29.023V29.0435C55.2061 29.1871 55.0754 29.3717 55.0754 29.5685C55.0754 29.9664 55.4633 30.192 56.0309 30.192ZM56.0309 28.1166C55.7655 28.1166 55.5409 27.9074 55.5409 27.5669C55.5409 27.2265 55.7614 27.0255 56.0309 27.0255C56.3003 27.0255 56.5208 27.2306 56.5208 27.5669C56.5208 27.9074 56.2963 28.1166 56.0309 28.1166ZM56.088 29.9172C55.6675 29.9172 55.4184 29.7654 55.4184 29.5152C55.4184 29.3799 55.4878 29.2445 55.6552 29.1215C55.7532 29.1502 55.8635 29.1584 55.9574 29.1584H56.3534C56.6596 29.1584 56.8189 29.2281 56.8189 29.4455C56.8148 29.6875 56.5249 29.9172 56.088 29.9172Z" fill="black"/>
<path d="M58.5215 29.1789C58.8399 29.1789 59.089 29.0845 59.2891 28.941L59.1502 28.6867C58.9869 28.7974 58.7909 28.859 58.5705 28.859C58.1336 28.859 57.8437 28.5431 57.8069 28.0632H59.3626C59.3748 27.9853 59.383 27.9156 59.383 27.8295C59.383 27.1609 59.0441 26.7384 58.4561 26.7384C57.9294 26.7384 57.4191 27.2019 57.4191 27.9566C57.4191 28.7277 57.9049 29.1789 58.5215 29.1789ZM57.8069 27.7597C57.8559 27.3167 58.1418 27.0583 58.4643 27.0583C58.8154 27.0583 59.0318 27.3003 59.0318 27.7597H57.8069Z" fill="black"/>
<path d="M59.9506 29.1215H60.3466V27.4398C60.5753 27.206 60.7427 27.0871 60.9754 27.0871C61.2816 27.0871 61.4123 27.2675 61.4123 27.7023V29.1215H61.8083V27.649C61.8083 27.0542 61.5878 26.7384 61.0979 26.7384C60.7794 26.7384 60.5426 26.9107 60.3221 27.1322H60.3058L60.2731 26.7958H59.9506V29.1215Z" fill="black"/>
<path d="M63.2822 29.1789C63.4415 29.1789 63.5966 29.1379 63.7191 29.0804L63.6375 28.7974C63.5436 28.8384 63.4578 28.8549 63.3721 28.8549C63.1108 28.8549 63.0128 28.6908 63.0128 28.4119V27.1199H63.6415V26.7999H63.0128V26.0534H62.6861L62.6371 26.7999L62.2737 26.8246V27.1199H62.6167V28.4037C62.6208 28.8631 62.7882 29.1789 63.2822 29.1789Z" fill="black"/>
<path d="M64.1683 29.1215H64.5643V26.7958H64.1683V29.1215ZM64.3684 26.3201C64.5194 26.3201 64.6297 26.2216 64.6297 26.0617C64.6297 25.9099 64.5194 25.8032 64.3684 25.8032C64.2173 25.8032 64.1071 25.9099 64.1071 26.0617C64.1071 26.2175 64.2132 26.3201 64.3684 26.3201Z" fill="black"/>
<path d="M65.3442 29.1215H65.7402V27.4398C65.9689 27.206 66.1363 27.0871 66.369 27.0871C66.6752 27.0871 66.8059 27.2675 66.8059 27.7023V29.1215H67.202V27.649C67.202 27.0542 66.9815 26.7384 66.4915 26.7384C66.173 26.7384 65.9362 26.9107 65.7157 27.1322H65.6994L65.6667 26.7958H65.3442V29.1215Z" fill="black"/>
<path d="M68.88 29.1789C69.1985 29.1789 69.4476 29.0845 69.6476 28.941L69.5088 28.6867C69.3455 28.7974 69.1536 28.859 68.929 28.859C68.4922 28.859 68.2023 28.5431 68.1655 28.0632H69.7211C69.7334 27.9853 69.7416 27.9156 69.7416 27.8295C69.7416 27.1609 69.4027 26.7384 68.8147 26.7384C68.288 26.7384 67.7776 27.2019 67.7776 27.9566C67.7776 28.7277 68.2635 29.1789 68.88 29.1789ZM68.1655 27.7597C68.2145 27.3167 68.5003 27.0583 68.8229 27.0583C69.174 27.0583 69.3904 27.3003 69.3904 27.7597H68.1655Z" fill="black"/>
<path d="M71.3013 29.1215H71.6769V27.4726C71.6769 27.1486 71.6483 26.8081 71.6238 26.4923H71.6442C71.7504 26.722 71.8647 26.9558 71.9831 27.165L73.0978 29.1215H73.5265V25.9837H73.1509V27.6203C73.1509 27.9443 73.1794 28.2888 73.2039 28.617H73.1835C73.0733 28.3873 72.9631 28.1535 72.8446 27.9443L71.73 25.9878H71.3013V29.1215Z" fill="black"/>
<path d="M74.8739 29.1789C75.1638 29.1789 75.4169 29.0312 75.6374 28.8426H75.6537L75.6905 29.1215H76.0131V27.69C76.0131 27.1158 75.7681 26.7384 75.2087 26.7384C74.8371 26.7384 74.5146 26.8943 74.2982 27.0378L74.4493 27.3044C74.6289 27.1855 74.8739 27.0665 75.1393 27.0665C75.5149 27.0665 75.6088 27.3496 75.617 27.6408C74.6248 27.7515 74.2002 27.9976 74.2002 28.5144C74.2002 28.941 74.4901 29.1789 74.8739 29.1789ZM74.9841 28.8549C74.7596 28.8549 74.584 28.7564 74.584 28.498C74.584 28.1986 74.8371 28.0181 75.617 27.9279V28.5595C75.3924 28.7523 75.2087 28.8549 74.9841 28.8549Z" fill="black"/>
<path d="M77.4013 29.1789C77.5605 29.1789 77.7157 29.1379 77.8382 29.0804L77.7565 28.7974C77.6626 28.8384 77.5768 28.8549 77.4911 28.8549C77.2298 28.8549 77.1318 28.6908 77.1318 28.4119V27.1199H77.7606V26.7999H77.1318V26.0534H76.8052L76.7602 26.7958L76.3969 26.8205V27.1158H76.7398V28.3996C76.7398 28.8631 76.9072 29.1789 77.4013 29.1789Z" fill="black"/>
<path d="M78.2873 29.1215H78.6833V26.7958H78.2873V29.1215ZM78.4873 26.3201C78.6384 26.3201 78.7486 26.2216 78.7486 26.0617C78.7486 25.9099 78.6384 25.8032 78.4873 25.8032C78.3363 25.8032 78.226 25.9099 78.226 26.0617C78.226 26.2175 78.3363 26.3201 78.4873 26.3201Z" fill="black"/>
<path d="M80.3655 29.1789C80.933 29.1789 81.4393 28.7359 81.4393 27.9648C81.4393 27.1855 80.9289 26.7384 80.3655 26.7384C79.7979 26.7384 79.2957 27.1814 79.2957 27.9648C79.2917 28.7359 79.7979 29.1789 80.3655 29.1789ZM80.3655 28.8508C79.9694 28.8508 79.704 28.498 79.704 27.9648C79.704 27.4275 79.9694 27.0707 80.3655 27.0707C80.7656 27.0707 81.031 27.4275 81.031 27.9648C81.031 28.4939 80.7656 28.8508 80.3655 28.8508Z" fill="black"/>
<path d="M82.0436 29.1215H82.4396V27.4398C82.6683 27.206 82.8357 27.0871 83.0684 27.0871C83.3746 27.0871 83.5053 27.2675 83.5053 27.7023V29.1215H83.9013V27.649C83.9013 27.0542 83.6809 26.7384 83.1909 26.7384C82.8724 26.7384 82.6356 26.9107 82.4151 27.1322H82.3988L82.3661 26.7958H82.0436V29.1215Z" fill="black"/>
<path d="M85.1834 29.1789C85.4733 29.1789 85.7265 29.0312 85.947 28.8426H85.9633L86 29.1215H86.3226V27.69C86.3226 27.1158 86.0776 26.7384 85.5182 26.7384C85.1467 26.7384 84.8241 26.8943 84.6078 27.0378L84.7588 27.3044C84.9385 27.1855 85.1834 27.0665 85.4488 27.0665C85.8245 27.0665 85.9184 27.3496 85.9265 27.6408C84.9344 27.7515 84.5057 27.9976 84.5057 28.5144C84.5057 28.941 84.7956 29.1789 85.1834 29.1789ZM85.2937 28.8549C85.0691 28.8549 84.8936 28.7564 84.8936 28.498C84.8936 28.1986 85.1467 28.0181 85.9265 27.9279V28.5595C85.702 28.7523 85.5142 28.8549 85.2937 28.8549Z" fill="black"/>
<path d="M87.4618 29.1789C87.5598 29.1789 87.6332 29.1666 87.6904 29.1379L87.6373 28.8426C87.6006 28.8508 87.5802 28.8508 87.5557 28.8508C87.4944 28.8508 87.4413 28.8097 87.4413 28.6826V25.7171H87.0453V28.6539C87.0494 28.9861 87.1678 29.1789 87.4618 29.1789Z" fill="black"/>
<path d="M89.8993 29.1215H90.2994V26.3242H91.2466V25.9837H88.9561V26.3242H89.8993V29.1215Z" fill="black"/>
<path d="M92.3858 29.1789C92.7043 29.1789 92.9533 29.0845 93.1534 28.941L93.0146 28.6867C92.8513 28.7974 92.6553 28.859 92.4348 28.859C91.9979 28.859 91.708 28.5431 91.6713 28.0632H93.2269C93.2391 27.9853 93.2473 27.9156 93.2473 27.8295C93.2473 27.1609 92.9084 26.7384 92.3205 26.7384C91.7938 26.7384 91.2834 27.2019 91.2834 27.9566C91.2793 28.7277 91.7652 29.1789 92.3858 29.1789ZM91.6713 27.7597C91.7203 27.3167 92.0061 27.0583 92.3286 27.0583C92.6798 27.0583 92.8962 27.3003 92.8962 27.7597H91.6713Z" fill="black"/>
<path d="M94.2803 29.1789C94.5702 29.1789 94.8234 29.0312 95.0438 28.8426H95.0602L95.0969 29.1215H95.4195V27.69C95.4195 27.1158 95.1786 26.7384 94.6151 26.7384C94.2436 26.7384 93.921 26.8943 93.7046 27.0378L93.8557 27.3044C94.0353 27.1855 94.2803 27.0665 94.5457 27.0665C94.9213 27.0665 95.0153 27.3496 95.0234 27.6408C94.0313 27.7515 93.6066 27.9976 93.6066 28.5144C93.6066 28.941 93.8965 29.1789 94.2803 29.1789ZM94.3906 28.8549C94.166 28.8549 93.9904 28.7564 93.9904 28.498C93.9904 28.1986 94.2436 28.0181 95.0234 27.9279V28.5595C94.7989 28.7523 94.6151 28.8549 94.3906 28.8549Z" fill="black"/>
<path d="M96.1462 29.1215H96.5423V27.4398C96.7587 27.2019 96.9465 27.0871 97.118 27.0871C97.412 27.0871 97.5467 27.2675 97.5467 27.7023V29.1215H97.9428V27.4398C98.1551 27.2019 98.3429 27.0871 98.5225 27.0871C98.8124 27.0871 98.9513 27.2675 98.9513 27.7023V29.1215H99.3473V27.649C99.3473 27.0542 99.1187 26.7384 98.6409 26.7384C98.3592 26.7384 98.1183 26.9189 97.8774 27.1773C97.7835 26.9066 97.5916 26.7384 97.2364 26.7384C96.9588 26.7384 96.7219 26.9107 96.5178 27.1322H96.5015L96.4688 26.7958H96.1462V29.1215Z" fill="black"/>
<path d="M89.6012 19.8477L87.6169 17.8051L85.5836 15.8117H89.6012V19.8477Z" fill="#0C2DB7"/>
<path d="M99.2167 19.8477L97.1793 17.8051L95.1459 15.7625H99.1636L99.2167 19.8477Z" fill="#0C2DB7"/>
<path d="M94.3824 19.8477L92.3491 17.8051L90.3116 15.7625H94.3334V19.8518H94.3824V19.8477Z" fill="#0C2DB7"/>
<path d="M89.6012 14.9914L87.6169 12.9488L85.5836 10.9554H89.6012V14.9914Z" fill="#0C2DB7"/>
<path d="M99.2166 14.9914L97.1833 12.9488L95.199 10.9062H99.2166V14.9914Z" fill="#0C2DB7"/>
<path d="M94.3824 14.9914L92.3491 12.9488L90.3116 10.9062H94.3334V14.9955H94.3824V14.9914Z" fill="#0C2DB7"/>
<path d="M89.6012 9.98333L87.5679 7.98994L85.5836 5.94734H89.6012V9.98333Z" fill="#0C2DB7"/>
<path d="M99.2166 9.98333L97.1833 7.98994L95.199 5.94734H99.2166V9.98333Z" fill="#0C2DB7"/>
<path d="M94.3824 9.98333L92.3491 7.94073L90.3116 5.89812H94.3334V9.98743H94.3824V9.98333Z" fill="#0C2DB7"/>
<path d="M0 8.44932V5.99656H10.1748V8.50264H6.51237V19.901H3.71552V8.44932H0Z" fill="#0C2DB7"/>
<path d="M12.8737 19.8477H10.1789V9.62239H12.8737V10.697C14.0455 10.0326 15.1111 9.57317 16.1319 9.36809V12.1285C15.5725 12.231 15.0621 12.3336 14.6049 12.4853C14.1476 12.5879 13.6903 12.7396 13.331 12.8422L12.9227 12.9939V19.8436H12.8737V19.8477Z" fill="#0C2DB7"/>
<path fill-rule="evenodd" clip-rule="evenodd" d="M25.6943 16.833V12.5879C25.6943 11.4107 25.4411 10.5453 24.6776 9.93001C24.1182 9.36809 23.2036 9.11379 21.8808 9.11379C20.6069 9.11379 19.235 9.31887 17.761 9.72903L17.8631 11.6199L21.6807 11.4681C22.089 11.4681 22.3911 11.5707 22.5953 11.7224C22.7994 11.8742 22.9015 12.1818 22.9015 12.592V13.2072L20.713 13.359C19.4922 13.4615 18.5776 13.7158 18.0182 14.1752C17.4589 14.6346 17.1526 15.4016 17.1526 16.4762C17.1526 18.6746 18.2224 19.7985 20.3088 19.7985C21.3255 19.7985 22.3421 19.5442 23.3098 19.0848C23.7671 19.3391 24.1754 19.5442 24.5837 19.6467C25.041 19.7493 25.5514 19.7985 26.2618 19.7985L26.3639 17.7559C26.1107 17.7067 25.9556 17.6533 25.8535 17.5016C25.7963 17.3949 25.7433 17.1365 25.6943 16.833ZM21.1662 15.299L22.9995 15.1473H23.0485V17.2924L22.7423 17.3949C22.1298 17.5467 21.5704 17.6492 21.0642 17.6492C20.4027 17.6492 20.0475 17.2924 20.0475 16.5254C20.0475 15.7584 20.4027 15.3482 21.1662 15.299Z" fill="#0C2DB7"/>
<path fill-rule="evenodd" clip-rule="evenodd" d="M36.5836 5.3321H33.8888H33.8398V9.47063L33.4315 9.36809C33.0763 9.31887 32.7211 9.26555 32.4149 9.21633C32.1086 9.16711 31.8555 9.16711 31.6513 9.16711C30.2264 9.16711 29.2097 9.57727 28.4952 10.4468C27.8337 11.263 27.4785 12.6453 27.4785 14.4828C27.4785 15.4016 27.5275 16.2219 27.6827 16.8863C27.7847 17.5508 28.0379 18.1127 28.3441 18.5721C28.6503 18.9823 29.0546 19.3391 29.5649 19.5442C30.0753 19.7493 30.7367 19.8518 31.4472 19.8518C32.1086 19.8518 32.9211 19.6467 33.8888 19.1873V19.5975H36.5836V5.3321ZM33.8847 17.0873L33.5785 17.1365C32.9661 17.3416 32.3577 17.3908 31.8473 17.3416C31.2879 17.3416 30.8796 17.1365 30.6265 16.6772C30.3734 16.267 30.2713 15.5 30.2713 14.4295C30.2713 12.4853 30.7817 11.5173 31.9004 11.5173C32.5128 11.5173 33.1743 11.5666 33.8847 11.7224V17.0873Z" fill="#0C2DB7"/>
<path fill-rule="evenodd" clip-rule="evenodd" d="M41.1116 15.6559H47.0646L47.3178 13.8142C47.3178 10.7462 45.8438 9.21222 42.8918 9.21222C39.8908 9.21222 38.4128 11.0005 38.4128 14.6797C38.4128 16.5213 38.719 17.8502 39.4294 18.6664C40.0909 19.4827 41.2096 19.8928 42.7367 19.8928C44.0106 19.8928 45.4314 19.6877 46.9585 19.3309L46.9095 17.2883L46.3501 17.3375C45.3825 17.3867 44.2637 17.4401 42.9939 17.4401C42.3815 17.4401 41.9242 17.2883 41.622 17.0299C41.2627 16.7264 41.1116 16.267 41.1116 15.6559ZM44.574 13.6092H41.0626C41.1157 12.7929 41.2137 12.231 41.4709 11.9726C41.7241 11.6158 42.1814 11.4599 42.8428 11.4599C43.5043 11.4599 43.9616 11.6117 44.2147 11.9193C44.4679 12.2269 44.574 12.7929 44.574 13.6092Z" fill="#0C2DB7"/>
<path fill-rule="evenodd" clip-rule="evenodd" d="M51.7968 5.99656L48.6937 19.8477H51.4906L52.0499 17.3416H56.8842L57.4436 19.8477H60.2404L57.1373 5.99656H51.7968ZM52.5603 14.8889L53.9853 8.29346H54.9529L56.3248 14.8889H52.5603Z" fill="#0C2DB7"/>
<path d="M60.2404 8.44932V5.99656H70.4152V8.50264H66.7528V19.901H63.9559V8.44932H60.2404Z" fill="#0C2DB7"/>
<path d="M72.1505 19.8477V5.99656H80.9534V8.44932H74.9514V12.5386H79.8878V14.9914H74.9514V19.8969H72.1546V19.8477H72.1505Z" fill="#0C2DB7"/>
</g>
<defs>
<radialGradient id="paint0_radial" cx="0" cy="0" r="1" gradientUnits="userSpaceOnUse" gradientTransform="translate(126.471 14.7856) rotate(-0.369268) scale(10.7808 10.83)">
<stop stop-color="#F3D078"/>
<stop offset="1" stop-color="#A79052"/>
</radialGradient>
<linearGradient id="paint1_linear" x1="119.074" y1="1.60779" x2="121.404" y2="4.53172" gradientUnits="userSpaceOnUse">
<stop stop-color="#CCA145"/>
<stop offset="1" stop-color="#A77D3D"/>
</linearGradient>
<linearGradient id="paint2_linear" x1="128.155" y1="1.53528" x2="130.375" y2="4.64719" gradientUnits="userSpaceOnUse">
<stop stop-color="#C59C4E"/>
<stop offset="1" stop-color="#9A7544"/>
</linearGradient>
<clipPath id="clip0">
<rect width="135" height="31" fill="white"/>
</clipPath>
</defs>
</svg>
