<svg width="118" height="28" viewBox="0 0 118 28" fill="none" xmlns="http://www.w3.org/2000/svg">
<path d="M33.3101 7.67758H35.6891V20.2653H33.3096V7.67814L33.3101 7.67758ZM38.6503 20.3151V13.4137C38.6503 13.025 38.6503 12.6845 38.6017 12.3446C38.5988 12.0505 38.5663 11.7575 38.5049 11.4699L38.553 11.3243C38.893 11.1787 39.3304 11.0325 39.8158 10.9351C40.3062 10.7869 40.8105 10.6893 41.3207 10.6439C41.801 10.552 42.2886 10.5033 42.7775 10.4983C43.3603 10.4983 43.943 10.5465 44.4776 10.6921C45.0111 10.8377 45.4966 11.0325 45.9339 11.3725C46.3707 11.6642 46.7112 12.1016 46.9534 12.6845C47.1961 13.2193 47.2934 13.9485 47.2934 14.7745V20.3151H44.9625V14.8719C44.9625 14.2402 44.8657 13.7054 44.6717 13.3655C44.4839 13.0381 44.1936 12.7818 43.8457 12.6364C43.5062 12.4908 43.0689 12.4415 42.5835 12.4415C42.2435 12.4415 41.8553 12.4902 41.5153 12.5871C41.1753 12.6845 40.8353 12.7333 40.5439 12.8307L40.9326 12.2472C40.9812 12.4421 41.0299 12.6845 41.078 12.9276C41.1267 13.2193 41.1267 13.5111 41.1267 13.8516V20.2664H38.6503V20.3151ZM51.8093 20.3145L48.5075 10.9833V10.7889H50.9838L53.6061 19.1481H53.0721L55.7424 10.7889H58.1707V10.9833L54.7229 20.3145H51.8093ZM64.6288 20.4601C63.7547 20.4601 62.9779 20.3633 62.2984 20.1689C61.6184 19.9746 61.0357 19.6829 60.5502 19.2449C60.0648 18.8563 59.7248 18.3221 59.4821 17.6904C59.2394 17.0581 59.1421 16.3296 59.1421 15.4543C59.1421 14.434 59.3361 13.5593 59.7248 12.8301C60.1129 12.101 60.647 11.5181 61.327 11.1289C62.0071 10.7402 62.8325 10.5459 63.8033 10.5459C64.8715 10.5459 65.7456 10.7889 66.377 11.1776C67.0564 11.6149 67.4938 12.1985 67.7851 12.9757C68.0765 13.7536 68.1733 14.6283 68.1733 15.6492L68.1252 16.2321H60.647V14.677H65.8429V14.5314C65.8429 13.8023 65.6488 13.2675 65.3088 12.8789C64.9688 12.4897 64.4347 12.2953 63.7547 12.2953C63.3627 12.2879 62.9763 12.3888 62.6379 12.5871C62.2694 12.7964 61.9795 13.1207 61.8124 13.5105C61.6184 13.9479 61.5211 14.5309 61.5211 15.3087V15.6492C61.5211 16.3777 61.667 16.9613 61.9584 17.3986C62.2498 17.8354 62.6379 18.1277 63.1239 18.3221C63.6093 18.5164 64.192 18.6133 64.8228 18.6133C65.4056 18.6133 65.8915 18.5651 66.3283 18.4677C66.7656 18.3702 67.1051 18.2246 67.3478 18.079H67.4938V20.0228C67.2024 20.1684 66.7656 20.2658 66.3283 20.3633C65.7638 20.4241 65.1966 20.4564 64.6288 20.4601ZM69.9707 17.9334H70.1166C70.5534 18.1277 71.0388 18.2739 71.5729 18.4195C72.1556 18.5651 72.6897 18.6138 73.2724 18.6138C73.467 18.6138 73.7097 18.6138 73.9525 18.5657C74.1952 18.5169 74.3892 18.5169 74.6319 18.4201C74.8752 18.3226 75.0206 18.2252 75.1666 18.0796C75.312 17.934 75.3606 17.6904 75.3606 17.4479C75.3606 17.1074 75.2147 16.8644 74.972 16.7188C74.6806 16.5732 74.2925 16.4757 73.7097 16.3783L72.8843 16.2327C71.9616 16.0871 71.2334 15.7953 70.7474 15.358C70.262 14.9688 70.0193 14.3371 70.0193 13.5598C70.0193 12.9763 70.1647 12.4902 70.4561 12.0047C70.7474 11.5186 71.2334 11.1781 71.9129 10.8864C72.5929 10.5952 73.4184 10.4977 74.4865 10.4977C74.972 10.4977 75.4574 10.5465 75.8461 10.5952C76.2828 10.6433 76.6715 10.7408 77.0115 10.8864V12.8307H76.8655C76.4288 12.6851 76.0401 12.5395 75.6033 12.4902C75.2147 12.4421 74.7779 12.3933 74.3406 12.3933C73.6611 12.3933 73.1757 12.4902 72.787 12.6364C72.3983 12.782 72.2043 13.0732 72.2043 13.5111C72.2043 13.8023 72.3502 14.0453 72.6416 14.1915C72.933 14.3371 73.3211 14.4345 73.8552 14.5314L74.6806 14.677C75.2147 14.7745 75.7006 14.9206 76.1861 15.1149C76.6715 15.3093 76.9629 15.601 77.2542 15.9897C77.5456 16.3783 77.6429 16.8157 77.6429 17.3992C77.6429 18.4195 77.2542 19.1486 76.5261 19.6347C75.7974 20.1208 74.6806 20.3638 73.1757 20.3638C72.5929 20.3638 72.0589 20.3151 71.4761 20.2182C70.9421 20.1208 70.408 20.0233 69.9707 19.8777V17.9334ZM78.711 12.6364V10.7408H85.2178V12.6364H78.711ZM84.0524 20.412C83.2269 20.412 82.5469 20.2664 81.9642 20.0233C81.3814 19.7803 80.9933 19.3917 80.7019 18.9056C80.4106 18.4195 80.2652 17.7391 80.2652 16.9618V8.26222H82.5955V16.8157C82.5955 17.3992 82.7415 17.8365 83.0329 18.0796C83.3242 18.3226 83.761 18.4682 84.3437 18.4682C84.5864 18.4682 84.7805 18.4682 85.0232 18.4195C85.2178 18.3708 85.4119 18.3226 85.6059 18.2252H85.7519V20.1208C85.5573 20.2177 85.3146 20.2664 85.0232 20.3151C84.6838 20.412 84.3924 20.412 84.0524 20.412Z" fill="white"/>
<path d="M89.0548 20.3118V7.67592H90.7543V18.8054H96.1443V20.263H89.0548V20.3118ZM98.9612 9.086C98.6698 9.086 98.4271 8.98856 98.233 8.7948C98.0384 8.59992 97.9417 8.35688 97.9417 8.0164C97.9417 7.7252 98.0384 7.434 98.233 7.23912C98.4271 7.0448 98.6698 6.94792 98.9612 6.94792C99.2525 6.94792 99.4953 7.0448 99.6899 7.23912C99.8839 7.43344 99.9807 7.67648 99.9807 8.01696C99.9807 8.30816 99.8839 8.59992 99.6899 8.79424C99.5439 8.98856 99.2525 9.08544 98.9612 9.08544V9.086ZM98.1844 20.3123V12.8766C98.1844 12.488 98.1844 12.1475 98.1357 11.7589C98.1329 11.4648 98.1003 11.1717 98.0384 10.8842L98.0871 10.7386H99.7866V20.2642H98.1844V20.3123ZM101.727 12.1464V10.7374H107.554V12.147H101.727V12.1464ZM106.534 20.4086C105.709 20.4086 105.078 20.263 104.592 20.02C104.107 19.777 103.767 19.3883 103.524 18.9022C103.281 18.4162 103.184 17.8814 103.184 17.2502V8.16144H104.786V17.1041C104.786 17.7845 104.932 18.2706 105.224 18.5618C105.515 18.8535 105.952 18.9991 106.583 18.9991C106.826 18.9991 107.068 18.951 107.311 18.9022C107.554 18.8535 107.749 18.8048 107.943 18.7079H108.088V20.0687C107.894 20.1656 107.7 20.2143 107.409 20.3118C107.166 20.4086 106.874 20.4086 106.534 20.4086ZM114.499 20.4098C113.626 20.4098 112.848 20.3123 112.169 20.0693C111.543 19.8944 110.974 19.5594 110.518 19.0971C110.081 18.6603 109.741 18.1742 109.547 17.542C109.352 16.9103 109.255 16.2299 109.255 15.4521C109.255 14.4805 109.45 13.6058 109.789 12.8761C110.178 12.1481 110.663 11.5646 111.343 11.1754C112.023 10.7867 112.752 10.5437 113.674 10.5437C114.694 10.5437 115.519 10.738 116.151 11.1754C116.781 11.6127 117.219 12.1962 117.51 12.9254C117.801 13.7026 117.898 14.5774 117.85 15.5495V16.0356H110.372V14.7235H116.199V14.5779C116.199 13.7026 116.005 13.0222 115.568 12.5849C115.131 12.1481 114.499 11.9045 113.674 11.9045C113.188 11.9045 112.752 12.0019 112.314 12.1957C111.877 12.3906 111.537 12.7792 111.295 13.2653C111.052 13.7514 110.906 14.4318 110.906 15.3065V15.4039C110.906 16.2786 111.052 17.0078 111.392 17.542C111.683 18.0768 112.12 18.4167 112.703 18.6116C113.309 18.8355 113.95 18.9505 114.596 18.9515C115.179 18.9515 115.713 18.9028 116.102 18.7572C116.539 18.6598 116.83 18.5142 117.121 18.3686H117.267V19.8262C116.976 19.9718 116.636 20.0693 116.151 20.2149C115.665 20.3605 115.131 20.4098 114.499 20.4098ZM11.9935 4.6172L19.9571 9.23384V18.4682L11.9448 23.0849L3.9818 18.4688V9.2344L11.9941 4.61776L11.9935 4.6172ZM11.9935 0L10.0026 1.16648L1.9909 5.78368L0 6.9496V20.8006L1.9909 21.9671L10.0026 26.5843L11.9935 27.7508L13.9844 26.5843L21.9961 21.9671L23.987 20.8006V6.90144L21.9961 5.73496L13.9844 1.16648L11.9935 0Z" fill="#00A3FF"/>
<path d="M11.9946 9.28143L8.01282 11.6144V16.2316L11.9946 13.8986L15.9764 16.2316V11.6144L11.9946 9.28143Z" fill="white"/>
</svg>
