<svg width="152" height="22" viewBox="0 0 152 22" fill="none" xmlns="http://www.w3.org/2000/svg">
<g clip-path="url(#clip0)">
<path d="M0 0.328635H6.24268V21.6647H0V0.328635Z" fill="#27B9F2"/>
<path d="M9.23486 0.328635H14.547L22.6185 11.6026V0.328635H28.8612V21.6647H23.5168L15.5099 10.4036V21.6647H9.23486V0.328635Z" fill="#27B9F2"/>
<path d="M30.1924 0.328635H36.7L41.6825 14.4452L46.6651 0.328635H53.2115L45.0042 21.6647H38.3996L30.1924 0.328635Z" fill="#27B9F2"/>
<path d="M54.491 0.328635H70.6987V5.09863H60.7466V8.57944H69.4708V13.4203H60.7466V16.8947H70.6987V21.6647H54.491V0.328635Z" fill="#27B9F2"/>
<path d="M75.6101 21.6519C74.495 21.4662 73.4089 21.1368 72.3789 20.6721V15.5154C73.4582 15.9958 74.5813 16.3714 75.7329 16.637C76.843 16.9125 77.9817 17.0575 79.1256 17.0689C79.9992 17.1164 80.8743 17.0095 81.7106 16.753C81.9583 16.6599 82.1687 16.4886 82.3099 16.2652C82.451 16.0418 82.5152 15.7785 82.4925 15.5154C82.4988 15.3348 82.4682 15.1549 82.4027 14.9865C82.3371 14.818 82.238 14.6647 82.1112 14.5356C81.7859 14.2479 81.4056 14.0286 80.9932 13.891C80.5086 13.7041 79.7008 13.4462 78.6732 13.111C78.3797 13.0586 78.0903 12.9854 77.8073 12.8919C76.5975 12.5425 75.4409 12.0307 74.3693 11.3706C73.5966 10.8822 72.9765 10.1878 72.5792 9.36595C72.184 8.43994 71.9965 7.43893 72.0299 6.43305C71.9795 5.50673 72.1625 4.58257 72.5621 3.74488C72.9617 2.90718 73.5652 2.18262 74.3176 1.63727C75.8039 0.545756 78.0076 0 80.9286 0C82.1253 0.0063088 83.3198 0.101109 84.5023 0.283621C85.5528 0.426119 86.5901 0.652453 87.6043 0.960445V6.1172C85.8044 5.37324 83.8785 4.97942 81.9303 4.95693C81.0414 4.92635 80.1523 5.01524 79.2872 5.22121C79.0257 5.27775 78.7933 5.42591 78.632 5.63879C78.4708 5.85168 78.3914 6.11519 78.4083 6.38148C78.401 6.54794 78.4295 6.71404 78.4919 6.86859C78.5543 7.02314 78.6492 7.16256 78.7702 7.27747C79.0991 7.54142 79.4768 7.73851 79.8817 7.8576C80.3858 8.01875 81.2324 8.25725 82.4279 8.56666C83.8252 8.89981 85.1558 9.46646 86.3635 10.2426C87.2099 10.789 87.8825 11.565 88.3022 12.4793C88.6806 13.4503 88.8607 14.4869 88.8321 15.5283C88.8633 16.4429 88.6692 17.3512 88.2671 18.1738C87.8649 18.9963 87.2668 19.708 86.5251 20.2467C84.987 21.407 82.723 21.9871 79.7331 21.9871C78.3515 21.9986 76.9716 21.8864 75.6101 21.6519Z" fill="#27B9F2"/>
<path d="M94.9973 4.96971H88.9873V0.328635H107.257V4.96971H101.246V21.6647H94.9973V4.96971Z" fill="#27B9F2"/>
<path d="M123.71 0.334937V4.96957H115.141V8.6502H123.71V13.3493H115.141V21.6646H108.898V0.334937H123.71Z" fill="white"/>
<path d="M151.078 0.335225L146.134 21.6648H140.486L137.261 10.6358L133.778 21.6648H128.13L125.739 11.4287L130.592 6.83918L124.976 1.52772L123.716 0.335225H129.261L131.684 11.6285L135.019 0.322333L139.155 0.335225L142.412 11.6607L144.971 0.335225H151.078Z" fill="white"/>
</g>
<defs>
<clipPath id="clip0">
<rect width="151.078" height="22" fill="white"/>
</clipPath>
</defs>
</svg>
