<svg width="145" height="28" viewBox="0 0 145 28" fill="none" xmlns="http://www.w3.org/2000/svg">
<g clip-path="url(#clip0)">
<path d="M23.7947 2.18519C23.7947 2.18519 19.4355 0 12.1273 0C4.81901 0 0.47821 2.18519 0.47821 2.18519C0.47821 2.18519 12.6116 3.59259 24.2239 9.33333C24.3588 7.18519 24.2423 4.80864 23.7947 2.18519Z" fill="black"/>
<path d="M18.6079 11.4136C15.7814 10.2531 12.7343 9.22839 9.55838 8.35802C7.54126 7.80864 5.7142 7.40741 4.21821 7.09876C1.82096 6.62963 0.257537 6.41975 0.030687 6.38889C-0.0367548 7.91358 0.0122938 9.3395 0.165571 10.6728C0.993266 10.7963 2.52604 11.0556 4.52477 11.4877C5.6958 11.7469 7.02625 12.0617 8.45479 12.4444C11.4713 13.2593 14.3468 14.2284 17.0015 15.3272C17.4675 15.5185 17.9334 15.7099 18.381 15.9198C17.7924 17.1852 17.069 18.3642 16.2106 19.4568C14.8495 21.1543 13.3842 22.321 12.4032 22.9938C12.3174 23.0617 12.2315 23.1173 12.1273 23.1667C12.0415 23.1173 11.9556 23.0432 11.8514 22.9938C10.8704 22.3148 9.40511 21.1543 8.04401 19.4568C7.09369 18.2778 6.32117 16.9753 5.72033 15.5864C3.77064 15.1173 2.10299 14.7901 0.931955 14.5802C3.77678 24.537 12.1518 28.0062 12.1518 28.0062C12.1518 28.0062 12.9121 27.6914 14.0463 26.9815C16.2535 25.5926 19.8892 22.7284 22.1823 17.7716C22.7525 16.5556 23.2307 15.2222 23.5802 13.7469C22.3417 13.1049 21.048 12.4815 19.6869 11.8889C19.3313 11.7284 18.9696 11.5741 18.6079 11.4136Z" fill="url(#paint0_linear)"/>
<path d="M36.5596 20.8333C35.3334 20.1728 34.3892 19.2716 33.6842 18.1296C32.9975 16.9877 32.6357 15.6852 32.6357 14.2407C32.6357 12.8025 32.9791 11.5 33.6842 10.3518C34.3708 9.2037 35.3395 8.30247 36.5596 7.64815C37.7858 6.98765 39.1592 6.67901 40.6797 6.67901C42.2125 6.67901 43.592 7.00617 44.7998 7.64815C46.026 8.30864 46.9702 9.20987 47.6753 10.3518C48.362 11.4938 48.7237 12.7963 48.7237 14.2407C48.7237 15.679 48.3803 16.9815 47.6753 18.1296C46.9886 19.2716 46.0199 20.179 44.7998 20.8333C43.5736 21.4938 42.2002 21.8025 40.6797 21.8025C39.1653 21.8272 37.7858 21.4938 36.5596 20.8333ZM42.6784 17.8889C43.267 17.5432 43.7453 17.0556 44.0886 16.4136C44.4319 15.7901 44.6036 15.0617 44.6036 14.2469C44.6036 13.4321 44.4319 12.7037 44.0886 12.0802C43.7453 11.4568 43.2793 10.9506 42.6784 10.6049C42.0899 10.2593 41.4216 10.0864 40.6981 10.0864C39.9746 10.0864 39.3002 10.2593 38.7178 10.6049C38.1353 10.9506 37.651 11.4383 37.3076 12.0802C36.9581 12.6975 36.7865 13.4259 36.7865 14.2407C36.7865 15.0556 36.9582 15.7839 37.3015 16.4074C37.6448 17.0309 38.1108 17.537 38.7116 17.8827C39.3002 18.2284 39.9685 18.4012 40.692 18.4012C41.4216 18.4074 42.0899 18.2346 42.6784 17.8889Z" fill="black"/>
<path d="M63.6467 15.284C64.1127 15.9074 64.3518 16.6543 64.3518 17.5247C64.3518 18.8086 63.8368 19.7778 62.819 20.4753C61.8013 21.1728 60.3176 21.5185 58.3924 21.5185H50.5692V6.93827H57.9816C59.8271 6.93827 61.2372 7.28395 62.2059 7.96297C63.1685 8.65432 63.6529 9.57408 63.6529 10.7407C63.6529 11.4321 63.4812 12.0617 63.1501 12.5988C62.8068 13.1543 62.3408 13.5864 61.7216 13.9012C62.5431 14.2284 63.1808 14.679 63.6467 15.284ZM54.6341 9.92593V12.7346H57.4421C58.8216 12.7346 59.5083 12.2654 59.5083 11.3148C59.5083 10.3765 58.8216 9.92593 57.4421 9.92593H54.6341ZM60.2195 17.0741C60.2195 16.0864 59.496 15.5988 58.0675 15.5988H54.6402V18.5494H58.0675C59.5144 18.5432 60.2195 18.0617 60.2195 17.0741Z" fill="black"/>
<path d="M72.6288 17.6605H70.3909V21.5309H66.2892V6.95679H72.9047C74.2167 6.95679 75.351 7.18519 76.3136 7.61729C77.2761 8.04939 78.018 8.67284 78.5514 9.49383C79.0664 10.3086 79.3423 11.2654 79.3423 12.358C79.3423 13.4136 79.1032 14.3333 78.6004 15.1173C78.1161 15.8951 77.411 16.5247 76.4975 16.9568L79.6182 21.537H75.2406L72.6288 17.6605ZM74.5539 10.7593C74.1248 10.3765 73.4871 10.2037 72.6594 10.2037H70.3848V14.4691H72.6594C73.5055 14.4691 74.1432 14.2778 74.5539 13.9136C74.9831 13.5494 75.1916 13.0309 75.1916 12.3333C75.21 11.6605 74.9892 11.1358 74.5539 10.7593Z" fill="black"/>
<path d="M82.2239 10.2346H86.1539V21.5123H82.2239V10.2346Z" fill="#C04747"/>
<path d="M99.023 11.3086C99.8691 12.142 100.298 13.3889 100.298 15.0741V21.5309H96.3683V15.7161C96.3683 14.1728 95.749 13.4074 94.5228 13.4074C93.8484 13.4074 93.2966 13.6358 92.9042 14.0679C92.4934 14.5185 92.3034 15.179 92.3034 16.0617V21.5123H88.3734V10.2346H92.1133V11.4691C92.5609 11.0185 93.0759 10.6543 93.6829 10.4136C94.2837 10.1728 94.9581 10.0494 95.6632 10.0494C97.0427 10.0617 98.1647 10.4815 99.023 11.3086Z" fill="#C04747"/>
<path d="M113.774 10.2346L109.139 21.5123H105.087L100.47 10.2346H104.504L107.19 17.1235L110.034 10.2346H113.774Z" fill="#C04747"/>
<path d="M125.423 16.8827H117.275C117.447 17.4753 117.76 17.9074 118.238 18.2161C118.722 18.5309 119.305 18.6852 120.028 18.6852C120.562 18.6852 121.027 18.6173 121.426 18.4568C121.825 18.3025 122.217 18.0556 122.615 17.7099L124.682 19.8765C123.596 21.0926 121.996 21.7161 119.905 21.7161C118.593 21.7161 117.441 21.4753 116.46 20.9691C115.46 20.463 114.7 19.7716 114.148 18.8889C113.597 18.0062 113.339 17 113.339 15.8704C113.339 14.7593 113.597 13.7716 114.13 12.8889C114.663 12.0062 115.387 11.3086 116.337 10.8272C117.269 10.321 118.336 10.0802 119.507 10.0802C120.629 10.0802 121.647 10.3086 122.542 10.7716C123.455 11.2407 124.179 11.9136 124.694 12.784C125.227 13.6667 125.485 14.7099 125.485 15.9259C125.473 15.9259 125.46 16.2531 125.423 16.8827ZM117.98 13.3951C117.57 13.7407 117.306 14.2099 117.208 14.8148H121.794C121.69 14.2222 121.432 13.7407 121.021 13.3951C120.604 13.0494 120.108 12.8765 119.507 12.8765C118.894 12.8704 118.391 13.0494 117.98 13.3951Z" fill="#C04747"/>
<path d="M128.317 21.3889C127.404 21.179 126.68 20.8827 126.129 20.537L127.3 17.8333C127.815 18.1482 128.422 18.4074 129.127 18.5988C129.832 18.7901 130.525 18.8765 131.211 18.8765C131.849 18.8765 132.296 18.8086 132.572 18.6852C132.848 18.5494 132.971 18.358 132.971 18.1111C132.971 17.8704 132.818 17.679 132.486 17.5741C132.162 17.4691 131.64 17.3642 130.954 17.2778C130.059 17.1728 129.298 17.0185 128.661 16.8457C128.041 16.6728 127.49 16.3272 127.042 15.8395C126.595 15.3519 126.355 14.679 126.355 13.7901C126.355 13.0617 126.564 12.4198 126.993 11.8642C127.422 11.3086 128.041 10.858 128.869 10.5309C129.697 10.2037 130.678 10.0432 131.818 10.0432C132.627 10.0432 133.437 10.1296 134.228 10.284C135.019 10.4568 135.693 10.6852 136.226 10.9938L135.055 13.6975C134.056 13.142 132.989 12.8642 131.83 12.8642C131.211 12.8642 130.764 12.9321 130.469 13.0926C130.175 13.2284 130.04 13.4198 130.04 13.6667C130.04 13.9259 130.193 14.1173 130.525 14.2222C130.837 14.3272 131.371 14.4321 132.094 14.5494C133.026 14.6852 133.78 14.8457 134.387 15.037C134.988 15.2099 135.521 15.5432 135.975 16.0247C136.423 16.5123 136.649 17.1667 136.649 18.037C136.649 18.7469 136.441 19.3704 136.012 19.9444C135.583 20.5 134.963 20.9506 134.117 21.2654C133.29 21.5803 132.272 21.7531 131.101 21.7531C130.144 21.7222 129.231 21.5988 128.317 21.3889Z" fill="#C04747"/>
<path d="M145 21.0617C144.675 21.2716 144.258 21.4259 143.792 21.5494C143.308 21.6543 142.811 21.7222 142.278 21.7222C140.812 21.7222 139.697 21.358 138.9 20.6481C138.109 19.9197 137.729 18.8457 137.729 17.4197V7.72222H141.64V10.6543H144.209V13.6049H141.64V17.3518C141.64 17.7531 141.744 18.0617 141.965 18.3086C142.174 18.537 142.468 18.6543 142.83 18.6543C143.277 18.6543 143.688 18.5309 144.037 18.3086L145 21.0617Z" fill="#C04747"/>
</g>
<defs>
<linearGradient id="paint0_linear" x1="3.1656e-05" y1="17.1928" x2="23.5683" y2="17.1928" gradientUnits="userSpaceOnUse">
<stop offset="0.2" stop-color="#AA3030"/>
<stop offset="0.8" stop-color="#C04747"/>
</linearGradient>
<clipPath id="clip0">
<rect width="145" height="28" fill="white"/>
</clipPath>
</defs>
</svg>
