<svg width="113" height="31" viewBox="0 0 113 31" fill="none" xmlns="http://www.w3.org/2000/svg">
<path d="M15.9549 30.9165L29.6891 7.07038H2.22003L15.9549 30.9165Z" fill="#FFD333"/>
<path d="M29.6892 7.07039L21.3783 0.0834646L13.0681 7.07039H29.6892Z" fill="url(#paint0_linear)"/>
<path d="M15.9545 30.9165L26.1447 27.1965L24.2653 16.4896L15.9551 30.9165H15.9545Z" fill="url(#paint1_linear)"/>
<path d="M2.22023 7.07038L0.33313 17.7851L10.5305 21.5051L2.22023 7.07038Z" fill="url(#paint2_linear)"/>
<path d="M47.6104 15.6073C47.1584 15.1143 46.5958 14.7965 45.9059 14.6457V14.5658C46.4531 14.3751 46.873 14.0257 47.1822 13.5166C47.4839 13.0154 47.643 12.4411 47.6425 11.8557C47.6425 11.2834 47.5313 10.7981 47.3095 10.4088C47.0889 10.0142 46.7653 9.68709 46.3734 9.46275C45.9773 9.22429 45.5015 9.05737 44.9621 8.94648C44.4226 8.835 43.8279 8.78731 43.1856 8.78731H39.205V21.2666H43.5032C44.1848 21.2666 44.8193 21.1951 45.4063 21.0442C45.9491 20.9171 46.4629 20.6879 46.9205 20.3688C47.3418 20.0747 47.6848 19.6817 47.9197 19.2242C48.1576 18.7628 48.2849 18.2226 48.2849 17.6026C48.2849 16.7597 48.0624 16.092 47.6104 15.6073ZM45.3903 19.0412C44.8984 19.375 44.1931 19.5497 43.2808 19.5497H41.4174V10.5042H43.0351C43.844 10.5042 44.4548 10.6312 44.8592 10.8858C45.2636 11.1403 45.4694 11.5696 45.4694 12.1812C45.4694 12.7142 45.2791 13.1434 44.8907 13.4612C44.5023 13.7789 43.8755 13.9381 42.9953 13.9381H42.8371L41.8772 15.5996H43.2808C44.2169 15.5996 44.9305 15.7504 45.4141 16.0443C45.8976 16.3465 46.1355 16.8235 46.1355 17.4834C46.1355 18.1827 45.8899 18.6996 45.3903 19.0412ZM61.5909 21.4896C61.0039 21.4896 60.449 21.3781 59.9179 21.1635C59.3837 20.9479 58.9002 20.623 58.4983 20.2096C58.0861 19.7881 57.7608 19.2719 57.5152 18.6674C57.2773 18.0557 57.1506 17.3642 57.1506 16.585C57.1506 15.8058 57.2696 15.1143 57.5152 14.5026C57.7531 13.8904 58.0861 13.3735 58.4983 12.9604C58.902 12.5472 59.3849 12.2201 59.9179 11.9988C60.4479 11.777 61.0166 11.6635 61.5909 11.6649C62.1779 11.6649 62.7328 11.7758 63.2722 11.9988C63.8072 12.2162 64.2906 12.5438 64.6913 12.9604C65.0957 13.3819 65.421 13.8981 65.675 14.5026C65.9206 15.1143 66.0479 15.8058 66.0479 16.585C66.0479 17.3642 65.9206 18.0557 65.675 18.6674C65.4293 19.2796 65.104 19.7965 64.6913 20.2096C64.2924 20.6264 63.8083 20.9518 63.2722 21.1635C62.7376 21.3783 62.1669 21.489 61.5909 21.4896ZM61.5909 19.6928C62.2731 19.6928 62.8119 19.4066 63.2086 18.8426C63.6053 18.2781 63.7956 17.5228 63.7956 16.585C63.7956 15.6312 63.597 14.8681 63.2086 14.3035C62.8119 13.7396 62.2731 13.4534 61.5909 13.4534C60.9087 13.4534 60.3699 13.7396 59.981 14.3035C59.5926 14.8681 59.4023 15.6312 59.4023 16.585C59.4023 17.5228 59.5926 18.2781 59.981 18.8426C60.3699 19.4149 60.901 19.6928 61.5909 19.6928ZM68.2127 21.2588V7.79352H70.3615V16.2035H70.4168L73.8823 11.8951H76.2773L73.0812 15.7104L76.6021 21.2588H74.2231L71.8287 17.1973L70.3615 18.8742V21.2588H68.2127ZM85.0158 14.3196C84.865 13.8057 84.6172 13.3254 84.2861 12.9049C83.9611 12.5098 83.5482 12.1966 83.0805 11.9904C82.597 11.7758 82.0421 11.6649 81.4075 11.6649C80.8604 11.6649 80.3293 11.7758 79.8059 12.0065C79.2866 12.2354 78.8177 12.5651 78.4261 12.9765C78.0294 13.3974 77.7041 13.9142 77.4662 14.5181C77.2283 15.1304 77.1016 15.8142 77.1016 16.5773C77.1016 17.3558 77.2206 18.0396 77.4508 18.6435C77.6887 19.248 78.0134 19.7565 78.4339 20.178C78.8508 20.5974 79.3506 20.9249 79.9011 21.1396C80.456 21.362 81.0584 21.4735 81.7091 21.4735C82.3038 21.4735 82.8748 21.3781 83.4219 21.1873C83.9691 20.9965 84.4603 20.7581 84.9046 20.4642L84.1594 19.0888C83.818 19.3035 83.4695 19.4704 83.1204 19.5974C82.7713 19.7166 82.3906 19.7804 81.9862 19.7804C81.225 19.7804 80.5987 19.558 80.1152 19.1049C79.6233 18.6519 79.3301 18.008 79.2266 17.1651C79.1553 16.5689 79.1475 16.1081 79.2112 15.6788C79.3141 14.9158 79.5757 14.3357 79.9879 13.9458C80.4084 13.5488 80.8919 13.358 81.4551 13.358C82.1052 13.358 82.581 13.5643 82.8902 13.978C83.1995 14.3912 83.3583 14.9635 83.3583 15.6866H80.5749L79.7185 17.1734H85.1663C85.1901 17.0619 85.2139 16.9028 85.2299 16.712C85.2454 16.5212 85.2614 16.3149 85.2614 16.1003C85.2614 15.4642 85.1823 14.8603 85.0158 14.3196ZM102.049 14.3196C101.898 13.8057 101.651 13.3254 101.319 12.9049C100.995 12.5099 100.582 12.1967 100.114 11.9904C99.6303 11.7758 99.0754 11.6649 98.4408 11.6649C97.8936 11.6649 97.3625 11.7758 96.8392 12.0065C96.32 12.2356 95.8511 12.5652 95.4594 12.9765C95.0627 13.3974 94.7374 13.9142 94.4995 14.5181C94.2616 15.1304 94.1349 15.8142 94.1349 16.5773C94.1349 17.3558 94.2539 18.0396 94.484 18.6435C94.7219 19.248 95.0472 19.7565 95.4671 20.178C95.8841 20.5974 96.3838 20.9249 96.9343 21.1396C97.4892 21.362 98.0917 21.4735 98.7423 21.4735C99.3371 21.4735 99.908 21.3781 100.455 21.1873C101.002 20.9965 101.494 20.7581 101.938 20.4642L101.193 19.0888C100.851 19.3035 100.503 19.4704 100.154 19.5974C99.8051 19.7166 99.4239 19.7804 99.0195 19.7804C98.2582 19.7804 97.632 19.558 97.1484 19.1049C96.6566 18.6519 96.3634 18.008 96.2605 17.1651C96.1891 16.5689 96.1808 16.1081 96.2444 15.6788C96.3473 14.9158 96.609 14.3357 97.0218 13.9458C97.4416 13.5488 97.9258 13.358 98.4884 13.358C99.139 13.358 99.6142 13.5643 99.9235 13.978C100.233 14.3912 100.392 14.9635 100.392 15.6866H97.6082L96.7517 17.1734H102.2C102.223 17.0619 102.247 16.9028 102.263 16.712C102.279 16.5212 102.295 16.3149 102.295 16.1003C102.295 15.4642 102.216 14.8603 102.049 14.3196ZM108.211 21.4896C107.624 21.4896 107.069 21.3781 106.538 21.1635C106.003 20.948 105.52 20.6231 105.118 20.2096C104.705 19.7881 104.38 19.2719 104.134 18.6674C103.896 18.0557 103.77 17.3642 103.77 16.585C103.77 15.8058 103.889 15.1143 104.134 14.5026C104.372 13.8904 104.705 13.3735 105.118 12.9604C105.522 12.5471 106.004 12.22 106.538 11.9988C107.067 11.777 107.636 11.6635 108.211 11.6649C108.798 11.6649 109.352 11.7758 109.892 11.9988C110.427 12.2163 110.91 12.5439 111.311 12.9604C111.715 13.3819 112.041 13.8981 112.295 14.5026C112.54 15.1143 112.667 15.8058 112.667 16.585C112.667 17.3642 112.54 18.0557 112.295 18.6674C112.048 19.2796 111.724 19.7965 111.311 20.2096C110.912 20.6263 110.428 20.9517 109.892 21.1635C109.36 21.3781 108.798 21.4896 108.211 21.4896ZM108.211 19.6928C108.893 19.6928 109.432 19.4066 109.828 18.8426C110.225 18.2781 110.415 17.5228 110.415 16.585C110.415 15.6312 110.217 14.8681 109.828 14.3035C109.432 13.7396 108.893 13.4534 108.211 13.4534C107.528 13.4534 106.99 13.7396 106.601 14.3035C106.212 14.8681 106.022 15.6312 106.022 16.585C106.022 17.5228 106.212 18.2781 106.601 18.8426C106.99 19.4149 107.528 19.6928 108.211 19.6928ZM56.5475 11.6649L52.567 12.9604V11.8951H50.3783V21.2588H52.567V14.8043L56.5475 13.5011V11.6649ZM93.5324 11.6649L89.5435 12.9604V11.8951H87.3549V21.2588H89.5435V14.8043L93.5324 13.5011V11.6649Z" fill="white"/>
<defs>
<linearGradient id="paint0_linear" x1="24.8093" y1="11.1755" x2="17.9227" y2="2.98737" gradientUnits="userSpaceOnUse">
<stop offset="0.05" stop-color="#FFD333"/>
<stop offset="1" stop-color="#FFD333" stop-opacity="0"/>
</linearGradient>
<linearGradient id="paint1_linear" x1="14.8322" y1="24.6194" x2="25.3552" y2="22.7685" gradientUnits="userSpaceOnUse">
<stop offset="0.05" stop-color="#FFD333"/>
<stop offset="1" stop-color="#FFD333" stop-opacity="0"/>
</linearGradient>
<linearGradient id="paint2_linear" x1="8.21874" y1="9.25231" x2="4.54989" y2="19.3098" gradientUnits="userSpaceOnUse">
<stop offset="0.05" stop-color="#FFD333"/>
<stop offset="1" stop-color="#FFD333" stop-opacity="0"/>
</linearGradient>
</defs>
</svg>
