<svg width="137" height="40" viewBox="0 0 137 40" fill="none" xmlns="http://www.w3.org/2000/svg">
<path fill-rule="evenodd" clip-rule="evenodd" d="M12.918 39.8465H19.3731L32.2913 19.9232L29.0638 14.9424L12.918 39.8465Z" fill="url(#paint0_linear)"/>
<path fill-rule="evenodd" clip-rule="evenodd" d="M6.45508 39.8465H12.9102L29.056 14.9424L25.8284 9.96161L6.45508 39.8465Z" fill="url(#paint1_linear)"/>
<path fill-rule="evenodd" clip-rule="evenodd" d="M0 39.8465H6.45513L25.8285 9.96161L22.6009 4.98081L0 39.8465Z" fill="white"/>
<path fill-rule="evenodd" clip-rule="evenodd" d="M0 0L12.9182 19.9232L22.6009 4.98081L19.3733 0H0Z" fill="url(#paint2_linear)"/>
<path fill-rule="evenodd" clip-rule="evenodd" d="M135.908 22.0271V20.9672C135.908 18.7438 134.848 17.6281 132.737 17.6281C131.422 17.6281 130.497 17.9947 129.947 18.7199C129.397 19.453 129.126 20.5528 129.126 22.0271C129.126 22.0191 135.908 22.0191 135.908 22.0271ZM129.198 26.7449C128.345 25.7966 127.915 24.3063 127.915 22.2901C127.915 18.4648 129.509 16.5522 132.705 16.5522C134.131 16.5522 135.207 16.9666 135.924 17.7875C136.642 18.6083 137 19.6921 137 21.023V23.0472H129.119C129.158 24.0354 129.326 24.8243 129.621 25.4141C129.915 26.0038 130.37 26.4341 130.991 26.7051C131.613 26.984 132.458 27.1195 133.518 27.1195C134.482 27.1195 135.414 26.9282 136.323 26.5298V27.5897C135.43 27.9802 134.418 28.1794 133.278 28.1794C131.414 28.1635 130.051 27.6853 129.198 26.7449ZM117.946 22.3539C117.946 20.4412 118.416 18.9908 119.356 18.0106C120.297 17.0304 121.603 16.5442 123.261 16.5442C123.891 16.5442 124.409 16.5921 124.823 16.6877C125.261 16.7913 125.684 16.9507 126.082 17.1579V18.2178C125.309 17.8273 124.433 17.6281 123.452 17.6281C120.559 17.6281 119.117 19.206 119.117 22.3539C119.117 24.0035 119.444 25.2069 120.105 25.9639C120.759 26.729 121.851 27.1035 123.365 27.1035C124.313 27.1035 125.222 26.8964 126.098 26.4899V27.5737C125.237 27.9642 124.233 28.1635 123.078 28.1635C119.659 28.1635 117.946 26.2269 117.946 22.3539ZM106.294 16.7754H107.346L107.458 18.1381C108.008 17.636 108.637 17.2296 109.331 16.9507C110.008 16.6797 110.789 16.5363 111.658 16.5363C112.941 16.5363 113.881 16.855 114.471 17.5006C115.061 18.1461 115.356 19.1661 115.356 20.5608V27.9244H114.152V20.5847C114.152 19.8276 114.057 19.2458 113.881 18.8155C113.706 18.4011 113.379 18.0743 112.965 17.899C112.534 17.7078 111.937 17.6201 111.164 17.6201C110.446 17.6201 109.777 17.7635 109.163 18.0584C108.542 18.3453 107.984 18.7517 107.514 19.2458V27.9244H106.31V16.7754H106.294ZM102.103 25.3423V22.6567H98.2694C97.2732 22.6567 96.5799 22.8479 96.1655 23.2225C95.7591 23.5971 95.5519 24.1788 95.5519 24.9598C95.5519 25.7089 95.783 26.2508 96.2532 26.5855C96.7154 26.9123 97.4007 27.0796 98.2853 27.0796C99.9111 27.0796 101.186 26.4979 102.103 25.3423ZM95.3925 27.3665C94.7151 26.8326 94.3724 26.0357 94.3724 24.9678C94.3724 23.9158 94.6752 23.095 95.2889 22.5053C95.9025 21.9155 96.8827 21.6207 98.2216 21.6207H102.095V20.5608C102.095 19.8276 102.007 19.2458 101.832 18.8314C101.656 18.417 101.338 18.1142 100.867 17.9229C100.397 17.7317 99.7278 17.644 98.8511 17.644C97.7115 17.644 96.6118 17.8512 95.5439 18.2576V17.1499C96.5241 16.7435 97.6956 16.5363 99.0663 16.5363C100.509 16.5363 101.569 16.8471 102.238 17.4766C102.908 18.1062 103.242 19.1263 103.242 20.5369V27.9244H102.254L102.142 26.5377C101.68 27.0876 101.091 27.51 100.421 27.773C99.7596 28.036 98.9388 28.1635 97.9586 28.1635C96.9385 28.1635 96.0699 27.8925 95.3925 27.3665ZM82.9365 16.7754H83.9884L84.1 18.1381C84.6499 17.636 85.2794 17.2296 85.9728 16.9507C86.6502 16.6797 87.4312 16.5363 88.3078 16.5363C89.5908 16.5363 90.5312 16.855 91.1209 17.5006C91.7107 18.1461 92.0055 19.1661 92.0055 20.5608V27.9244H90.8022V20.5847C90.8022 19.8276 90.7145 19.2458 90.5312 18.8155C90.3559 18.4011 90.0291 18.0743 89.6147 17.899C89.1844 17.7078 88.5867 17.6201 87.8057 17.6201C87.0885 17.6201 86.427 17.7635 85.8054 18.0584C85.1838 18.3453 84.626 18.7517 84.1558 19.2458V27.9244H82.9524L82.9365 16.7754ZM78.6251 17.8592H77.0073L77.1428 16.7754H79.8364V27.9244H78.6331L78.6251 17.8592ZM78.4737 13.8825H79.8524V12.4719H78.4737V13.8825Z" fill="#333333"/>
<path fill-rule="evenodd" clip-rule="evenodd" d="M66.7904 12.7748H75.6761V13.8347H67.9937V19.8356H74.8633V20.8716H67.9858V27.9324H66.7824V12.7748H66.7904ZM58.4864 13.8347H53.6251V12.7748H64.551V13.8347H59.6897V27.9244H58.4864V13.8347ZM42.4761 12.7748H51.6886V13.8347H43.6794V19.8356H50.9235V20.8716H43.6794V26.8964H51.6886V27.9324H42.4761V12.7748Z" fill="#093BC3"/>
<defs>
<linearGradient id="paint0_linear" x1="12.9156" y1="27.3944" x2="32.2905" y2="27.3944" gradientUnits="userSpaceOnUse">
<stop stop-color="#083BC3"/>
<stop offset="1" stop-color="#083BD6"/>
</linearGradient>
<linearGradient id="paint1_linear" x1="6.45959" y1="24.9048" x2="29.0629" y2="24.9048" gradientUnits="userSpaceOnUse">
<stop stop-color="#4880FB"/>
<stop offset="1" stop-color="#3490FB"/>
</linearGradient>
<linearGradient id="paint2_linear" x1="26.6547" y1="16.3629" x2="5.4397" y2="-0.271969" gradientUnits="userSpaceOnUse">
<stop stop-color="#032BC7"/>
<stop offset="1" stop-color="#3269FF"/>
</linearGradient>
</defs>
</svg>
