<svg width="107" height="29" viewBox="0 0 107 29" fill="none" xmlns="http://www.w3.org/2000/svg">
<g clip-path="url(#clip0)">
<path d="M4.74883 23.4282C1.58294 23.4282 0 21.8838 0 18.7747V11.0054C0 7.90309 1.58982 6.35193 4.74883 6.35193H8.39647C11.5692 6.35193 13.1453 7.90309 13.1453 11.0054V11.2347L9.97942 14.418V11.0054C9.97942 9.76448 9.44948 9.14402 8.39647 9.14402H4.74883C3.68894 9.14402 3.159 9.75774 3.159 11.0054V18.768C3.159 20.0089 3.68894 20.6294 4.74883 20.6294H8.39647C9.45636 20.6294 9.97942 20.0089 9.97942 18.768V18.8084L13.1453 15.4229V18.768C13.1453 21.8703 11.5624 23.4215 8.39647 23.4215H4.74883V23.4282ZM40.9982 23.4215C40.2824 23.4215 39.7525 23.2596 39.4084 22.9426V25.8224L36.2425 28.9989V11.0122C36.2425 7.90983 37.8323 6.35867 40.9913 6.35867H44.639C47.8048 6.35867 49.3878 7.90983 49.3878 11.0122V18.7747C49.3878 21.877 47.798 23.4282 44.639 23.4282H40.9982V23.4215ZM40.9982 20.6361H44.6458C45.7057 20.6361 46.2357 20.0156 46.2357 18.7747V11.0054C46.2357 9.76448 45.7057 9.14402 44.6458 9.14402H40.9982C39.9383 9.14402 39.4084 9.75774 39.4084 11.0054V18.768C39.4153 20.0089 39.9452 20.6361 40.9982 20.6361ZM55.0726 3.23611C54.701 2.86518 54.522 2.41332 54.522 1.89402C54.522 1.36797 54.7078 0.929599 55.0726 0.551925C55.4236 0.187739 55.9123 -0.0145869 56.4147 -0.00784273C56.9446 -0.00784273 57.392 0.17425 57.7636 0.545181C58.1353 0.916111 58.3142 1.36797 58.3142 1.88727C58.3142 2.41332 58.1284 2.85169 57.7636 3.22937C57.4126 3.59355 56.924 3.79588 56.4147 3.78239C55.8916 3.79588 55.4374 3.61379 55.0726 3.23611ZM54.8317 23.4687V6.37216H57.9976V20.0291L54.8317 23.4687ZM90.6269 23.435C87.4541 23.435 85.878 21.8838 85.878 18.7815V16.657C85.878 13.5547 87.4679 12.0036 90.6269 12.0036H93.9579C94.5085 12.0036 95.0385 12.1587 95.5409 12.4689V11.0256C95.5409 9.78472 95.0109 9.16425 93.9579 9.16425H87.048L89.5601 6.36541H93.9579C97.1238 6.36541 98.7068 7.92332 98.7068 11.0189V23.4282H95.5409V22.9629C95.1348 23.2731 94.6049 23.4282 93.9579 23.4282L90.6269 23.435ZM90.6269 20.6429H93.9579C95.0178 20.6429 95.5409 20.0224 95.5409 18.7815V16.657C95.5409 15.4161 95.0109 14.7956 93.9579 14.7956H90.6269C89.567 14.7956 89.0439 15.4161 89.0439 16.657V18.7815C89.037 20.0224 89.567 20.6429 90.6269 20.6429ZM107 23.4687V-0.00109854L103.834 3.44518V23.4687H107Z" fill="white"/>
<path d="M68.7822 14.9183C66.9239 12.025 65.0726 9.13849 63.1937 6.225C63.2625 6.21826 63.3038 6.21826 63.3382 6.21826H69.7319C69.8283 6.21826 69.8765 6.23849 69.9315 6.32617C70.7024 7.5671 71.4801 8.80803 72.2509 10.049C72.361 10.2311 72.4711 10.4064 72.595 10.602C72.8084 10.3659 73.0079 10.1434 73.2075 9.92082C73.882 9.17221 74.5565 8.41686 75.2309 7.66826C75.5544 7.30407 75.8848 6.93989 76.2082 6.58919C76.2426 6.54872 76.3115 6.50152 76.3665 6.50152C76.9859 6.49477 77.6122 6.50152 78.2316 6.50152C78.2454 6.50152 78.2592 6.50826 78.3005 6.52175C76.3183 8.71361 74.3362 10.9055 72.3541 13.0973C72.244 12.9152 72.1339 12.7399 72.0238 12.5645C71.6039 11.8901 71.1841 11.2157 70.7643 10.548C70.3376 9.87361 69.9178 9.19245 69.4979 8.51128C69.3259 8.23477 69.1538 7.95826 68.9818 7.675C68.9474 7.62779 68.9129 7.57384 68.8372 7.57384C67.8737 7.58058 66.9102 7.57384 65.9535 7.57384C65.9398 7.57384 65.9191 7.57384 65.8709 7.58058C65.9535 7.71547 66.0292 7.84361 66.1049 7.965C66.8207 9.08454 67.5502 10.2041 68.266 11.3169C69.0506 12.5308 69.8352 13.7515 70.606 14.9722C70.6542 15.0464 70.6198 15.0801 70.5785 15.1341C70.0692 15.6938 69.553 16.2604 69.0437 16.8269C67.9219 18.0611 66.8069 19.302 65.6851 20.5362C65.5543 20.6845 65.4029 20.8127 65.2722 20.9611C65.1621 21.0757 65.0726 21.2173 64.9625 21.332C64.7147 21.6152 64.4669 21.8917 64.2123 22.1683C64.0127 22.3841 63.7994 22.5931 63.5998 22.809C63.3795 23.0585 63.1799 23.3148 62.9528 23.5576C62.2026 24.3938 61.4456 25.2234 60.7023 26.0462C59.7938 27.0511 59.7456 27.0106 58.8372 28.0155C58.6238 28.2515 58.4036 28.4876 58.1902 28.7169C58.1627 28.7438 58.1076 28.7843 58.0732 28.7843C57.4263 28.7911 56.7862 28.7843 56.1118 28.7843C60.6266 23.8071 64.2742 19.882 68.7822 14.9183Z" fill="url(#paint0_linear)"/>
<path d="M80.1038 21.6219L81.3701 23.5373C81.3839 23.5508 81.3839 23.571 81.3977 23.6047C81.3701 23.6115 81.3357 23.6182 81.3151 23.6182C81.0191 23.6182 78.8994 23.6182 78.5208 23.625C78.2593 23.6317 75.8436 23.6317 74.8869 23.6385C74.7837 23.6385 74.7149 23.6047 74.6598 23.5171C73.7858 22.1547 72.9048 20.7857 72.0239 19.4301C72.0032 19.3896 71.9757 19.3559 71.9413 19.3289C71.7555 19.538 71.5765 19.7336 71.3976 19.9426C70.9021 20.5159 70.4065 21.0959 69.9041 21.6692C69.3604 22.3031 68.8236 22.9303 68.273 23.5575C68.2317 23.6047 68.1767 23.6317 68.1147 23.6385C67.4678 23.6452 66.8346 23.6452 66.1876 23.6385C66.1532 23.6385 66.1188 23.625 66.0844 23.6182C68.1078 21.3522 70.1106 19.0996 72.1409 16.8268C72.2372 16.9819 72.3336 17.1168 72.4231 17.2585L74.1161 19.9157C74.6048 20.6845 75.0934 21.4533 75.589 22.2222C75.6165 22.2626 75.6853 22.3098 75.7266 22.3098C76.6832 22.3031 77.6399 22.2964 78.5965 22.2829C78.6172 22.2829 78.6516 22.2761 78.6929 22.2694C78.0115 21.2308 76.1808 18.4185 76.0157 18.1959C75.8436 17.9666 75.6991 17.7103 75.5339 17.4675C75.0108 16.665 74.4809 15.8557 73.9441 15.0531C73.9028 14.9857 73.8615 14.925 73.8133 14.8508C74.2538 14.3585 74.6874 13.8729 75.121 13.3738C75.6784 12.7466 76.2428 12.1329 76.7934 11.5057C77.2889 10.9526 81.1981 6.54868 81.5147 6.1845C82.3956 5.17961 83.2834 4.18822 84.1781 3.19008C85.1004 2.14473 86.0295 1.09938 86.9655 0.0607745C87.0068 0.00682097 88.7755 -0.0066674 88.9407 0.00682097C88.9407 7.67822e-05 88.9407 0.0135652 88.9338 0.0203093C88.8237 0.134961 87.344 1.82101 87.1375 2.05705C86.7865 2.44822 83.1664 6.53519 81.9482 7.90426C81.0535 8.90915 80.1588 9.92077 79.2641 10.9324C78.3763 11.944 77.4816 12.9489 76.5869 13.9538C76.3185 14.2505 76.0638 14.5473 75.7954 14.8508C75.761 14.8845 75.7266 14.9317 75.6922 14.9789C75.706 14.9722 80.1038 21.6219 80.1038 21.6219Z" fill="url(#paint1_linear)"/>
<path d="M23.0284 23.4225C19.8556 23.4225 18.2795 21.8714 18.2795 18.769V16.6446C18.2795 13.5423 19.8625 11.9911 23.0284 11.9911H26.3525C26.9031 11.9911 27.4331 12.1462 27.9424 12.4565V11.0132C27.9424 9.77228 27.4124 9.15182 26.3525 9.15182H19.4358L21.9478 6.35298H26.3594C29.5253 6.35298 31.1083 7.90414 31.1083 11.0065V23.4158H27.9424V22.9504C27.5363 23.2607 27.0064 23.4158 26.3525 23.4158L23.0284 23.4225ZM23.0284 20.6372H26.3525C27.4124 20.6372 27.9424 20.0167 27.9424 18.7758V16.6514C27.9424 15.4104 27.4124 14.79 26.3525 14.79H23.0284C21.9685 14.79 21.4385 15.4104 21.4385 16.6514V18.7758C21.4454 20.01 21.9754 20.6372 23.0284 20.6372Z" fill="white"/>
</g>
<defs>
<linearGradient id="paint0_linear" x1="67.2099" y1="6.21556" x2="67.2099" y2="28.7829" gradientUnits="userSpaceOnUse">
<stop stop-color="#B312FF"/>
<stop offset="1" stop-color="#FF8DDD"/>
</linearGradient>
<linearGradient id="paint1_linear" x1="77.525" y1="0.00068376" x2="77.525" y2="23.6378" gradientUnits="userSpaceOnUse">
<stop stop-color="#B312FF"/>
<stop offset="1" stop-color="#FF8DDD"/>
</linearGradient>
<clipPath id="clip0">
<rect width="107" height="29" fill="white"/>
</clipPath>
</defs>
</svg>
