<svg width="169" height="22" viewBox="0 0 169 22" fill="none" xmlns="http://www.w3.org/2000/svg">
<g clip-path="url(#clip0)">
<path d="M32.2664 7.46421H34.7659V17.4326H32.2664V16.3795C31.778 16.844 31.2896 17.1784 30.7982 17.3827C30.3067 17.587 29.776 17.6899 29.2029 17.6899C27.9161 17.6899 26.8033 17.1905 25.8658 16.1919C24.9283 15.1932 24.458 13.9525 24.458 12.4681C24.458 10.9293 24.9116 9.66731 25.8204 8.68379C26.7292 7.70026 27.8315 7.2085 29.1303 7.2085C29.7276 7.2085 30.2886 7.32198 30.8133 7.54744C31.338 7.77289 31.8219 8.11183 32.2679 8.56425V7.46421H32.2664ZM29.6399 9.51752C28.8672 9.51752 28.2261 9.79139 27.715 10.3376C27.204 10.8839 26.9484 11.5844 26.9484 12.4409C26.9484 13.3018 27.2085 14.01 27.7286 14.5668C28.2488 15.1221 28.8884 15.4005 29.649 15.4005C30.4338 15.4005 31.084 15.1266 31.6011 14.5804C32.1182 14.0342 32.3768 13.317 32.3768 12.4318C32.3768 11.5648 32.1182 10.8627 31.6011 10.324C31.084 9.78534 30.4307 9.51752 29.6399 9.51752Z" fill="white"/>
<path d="M40.0582 7.46421V8.56425C40.5103 8.11183 40.9987 7.77289 41.5234 7.54744C42.0481 7.32198 42.6091 7.2085 43.2079 7.2085C44.5083 7.2085 45.6121 7.70026 46.5224 8.68379C47.4311 9.66731 47.8863 10.9277 47.8863 12.4681C47.8863 13.9525 47.416 15.1932 46.477 16.1919C45.5365 17.1905 44.4236 17.6899 43.1353 17.6899C42.5622 17.6899 42.0269 17.587 41.5325 17.3827C41.038 17.1784 40.5466 16.844 40.0582 16.3795V21.0793H37.5768V7.46421H40.0582ZM42.6847 9.51752C41.8969 9.51752 41.2437 9.78685 40.725 10.324C40.2064 10.8612 39.9463 11.5633 39.9463 12.4318C39.9463 13.317 40.2064 14.0342 40.725 14.5804C41.2437 15.1266 41.8969 15.4005 42.6847 15.4005C43.4483 15.4005 44.0894 15.1221 44.6126 14.5668C45.1343 14.0115 45.3958 13.3018 45.3958 12.4409C45.3958 11.5859 45.1388 10.8854 44.6262 10.3376C44.1136 9.78988 43.4664 9.51752 42.6847 9.51752Z" fill="white"/>
<path d="M51.2204 2.78716C51.6952 2.78716 52.1019 2.95966 52.4407 3.30314C52.7794 3.64662 52.9502 4.06424 52.9502 4.55297C52.9502 5.03566 52.7824 5.44723 52.4452 5.78768C52.1095 6.12813 51.7073 6.29911 51.2385 6.29911C50.7577 6.29911 50.3464 6.1251 50.0077 5.7786C49.669 5.4321 49.4981 5.00994 49.4981 4.51363C49.4981 4.037 49.666 3.62997 50.0017 3.29255C50.3404 2.95512 50.7456 2.78716 51.2204 2.78716Z" fill="white"/>
<path d="M52.5964 7.46421H49.8549V17.4326H52.5964V7.46421Z" fill="white"/>
<path d="M82.5825 2.78716C83.0573 2.78716 83.4641 2.95966 83.8028 3.30314C84.1415 3.64662 84.3124 4.06424 84.3124 4.55297C84.3124 5.03566 84.1445 5.44723 83.8073 5.78768C83.4716 6.12813 83.0694 6.29911 82.6007 6.29911C82.1198 6.29911 81.7086 6.1251 81.3698 5.7786C81.0311 5.4321 80.8603 5.00994 80.8603 4.51363C80.8603 4.037 81.0281 3.62997 81.3638 3.29255C81.7025 2.95512 82.1077 2.78716 82.5825 2.78716Z" fill="white"/>
<path d="M83.957 7.46421H81.2156V17.4326H83.957V7.46421Z" fill="white"/>
<path d="M85.7307 7.46421H88.6324L90.6012 10.1803L92.5593 7.46421H95.4126L92.0316 12.1549L95.8557 17.4326H92.954L90.5845 14.1628L88.2272 17.4326H85.3739L89.1541 12.1897L85.7307 7.46421Z" fill="white"/>
<path d="M69.7963 7.46421H72.2958V17.4326H69.7963V16.3795C69.3079 16.844 68.8195 17.1784 68.3281 17.3827C67.8367 17.587 67.3059 17.6899 66.7329 17.6899C65.4461 17.6899 64.3347 17.1905 63.3957 16.1919C62.4567 15.1932 61.9879 13.9525 61.9879 12.4681C61.9879 10.9293 62.4416 9.66731 63.3503 8.68379C64.2591 7.70026 65.3614 7.2085 66.6603 7.2085C67.2576 7.2085 67.8185 7.32198 68.3432 7.54744C68.8679 7.77289 69.3518 8.11183 69.7979 8.56425V7.46421H69.7963ZM67.1699 9.51752C66.3972 9.51752 65.7561 9.79139 65.245 10.3376C64.7339 10.8839 64.4783 11.5844 64.4783 12.4409C64.4783 13.3018 64.7384 14.01 65.2586 14.5668C65.7787 15.1221 66.4184 15.4005 67.1789 15.4005C67.9637 15.4005 68.6139 15.1266 69.131 14.5804C69.6482 14.0342 69.9067 13.317 69.9067 12.4318C69.9067 11.5648 69.6482 10.8627 69.131 10.324C68.6139 9.78534 67.9607 9.51752 67.1699 9.51752Z" fill="white"/>
<path d="M60.2626 14.942C60.2626 14.942 59.6366 15.4278 58.8337 15.2719C58.0323 15.1176 57.9718 14.423 57.937 14.0175V9.91849H60.3035V7.68967H57.937V5.25355H55.1609V14.0175C55.1609 14.0175 55.0595 15.7697 56.1241 16.7275C57.1886 17.6853 58.7778 17.6006 58.7778 17.6006C58.7778 17.6006 59.9965 17.6641 60.9733 16.956C60.6331 15.9392 60.2626 14.942 60.2626 14.942Z" fill="white"/>
<path d="M79.6854 15.1372C79.6854 15.1372 78.9248 15.4202 78.3184 15.1841C77.7121 14.9481 77.7015 14.0675 77.7015 14.0675V3.67839H74.9132V14.0675C74.9132 14.0675 74.8361 15.6502 75.6572 16.5127C76.4798 17.3751 77.4021 17.6021 78.3381 17.6021C79.2741 17.6021 79.8003 17.3419 79.8003 17.3419L79.6854 15.1372Z" fill="white"/>
<path d="M13.9686 12.7284C13.323 13.7951 12.1526 14.5078 10.8159 14.5078C8.78219 14.5078 7.13251 12.8585 7.13251 10.8218C7.13251 8.78668 8.78068 7.13587 10.8159 7.13587C12.1073 7.13587 13.2413 7.80013 13.8991 8.80635H21.4414C20.4963 3.79339 16.0992 0 10.8144 0H0V10.8218C0 16.7986 4.8417 21.6436 10.8144 21.6436C16.137 21.6436 20.5583 17.7943 21.4595 12.7268H13.9686V12.7284Z" fill="#FF9441"/>
</g>
<path d="M105.445 11.7383C105.813 11.7383 106.135 11.7823 106.409 11.8702C106.684 11.9582 106.912 12.0764 107.094 12.2248C107.275 12.3732 107.41 12.5491 107.498 12.7525C107.586 12.9504 107.63 13.1593 107.63 13.3792C107.63 13.5606 107.608 13.7393 107.564 13.9152C107.525 14.0911 107.448 14.2588 107.333 14.4182C107.223 14.5776 107.072 14.726 106.88 14.8635C106.693 14.9954 106.451 15.1081 106.154 15.2015C106.308 15.4874 106.464 15.8337 106.624 16.2405C106.789 16.6473 106.943 17.0733 107.086 17.5186H105.709C105.582 17.1393 105.453 16.7655 105.321 16.3972C105.195 16.0234 105.052 15.7018 104.892 15.4324H104.249L103.746 17.5186H102.468L103.812 11.8867C104.109 11.8318 104.398 11.7933 104.678 11.7713C104.958 11.7493 105.214 11.7383 105.445 11.7383ZM105.404 12.8267C105.31 12.8267 105.214 12.8295 105.115 12.835C105.016 12.8405 104.934 12.846 104.868 12.8515L104.496 14.4182H104.934C105.197 14.4182 105.42 14.3934 105.601 14.344C105.783 14.2945 105.928 14.2285 106.038 14.1461C106.148 14.0636 106.225 13.9702 106.269 13.8657C106.319 13.7558 106.344 13.6458 106.344 13.5359C106.344 13.4424 106.33 13.3545 106.302 13.272C106.275 13.1841 106.225 13.1071 106.154 13.0411C106.082 12.9752 105.986 12.9229 105.865 12.8845C105.744 12.846 105.59 12.8267 105.404 12.8267Z" fill="#D1D1D1"/>
<path d="M107.755 15.82C107.755 15.4681 107.816 15.1273 107.937 14.7975C108.063 14.4677 108.239 14.1763 108.464 13.9234C108.69 13.6651 108.962 13.4589 109.281 13.305C109.605 13.1456 109.962 13.0659 110.353 13.0659C110.545 13.0659 110.724 13.0934 110.889 13.1483C111.054 13.2033 111.197 13.283 111.317 13.3875C111.444 13.4919 111.54 13.6211 111.606 13.775C111.678 13.9234 111.713 14.0938 111.713 14.2862C111.713 14.5941 111.645 14.8552 111.507 15.0696C111.37 15.284 111.177 15.4599 110.93 15.5973C110.688 15.7293 110.399 15.8255 110.064 15.8859C109.729 15.9464 109.363 15.9766 108.967 15.9766C109.006 16.2075 109.088 16.3724 109.215 16.4714C109.347 16.5648 109.553 16.6116 109.833 16.6116C110.009 16.6116 110.188 16.5978 110.369 16.5703C110.551 16.5373 110.721 16.4906 110.88 16.4301L110.971 17.3949C110.817 17.4554 110.619 17.5103 110.377 17.5598C110.141 17.6093 109.883 17.634 109.602 17.634C109.262 17.634 108.973 17.5873 108.737 17.4939C108.506 17.3949 108.316 17.263 108.168 17.0981C108.025 16.9331 107.92 16.7407 107.854 16.5209C107.788 16.301 107.755 16.0673 107.755 15.82ZM110.155 14.0389C109.874 14.0389 109.627 14.1406 109.413 14.344C109.204 14.5419 109.066 14.8057 109 15.1356C109.341 15.1246 109.616 15.0971 109.825 15.0531C110.034 15.0036 110.196 14.9459 110.311 14.8799C110.427 14.814 110.504 14.7425 110.542 14.6656C110.581 14.5886 110.6 14.5116 110.6 14.4347C110.6 14.1708 110.452 14.0389 110.155 14.0389Z" fill="#D1D1D1"/>
<path d="M115.624 16.9744C115.542 17.3317 115.432 17.6395 115.294 17.8979C115.162 18.1618 114.995 18.3789 114.791 18.5493C114.593 18.7252 114.354 18.8544 114.074 18.9369C113.793 19.0248 113.466 19.0688 113.093 19.0688C112.746 19.0688 112.455 19.0358 112.219 18.9698C111.982 18.9094 111.768 18.8324 111.575 18.739L111.988 17.766C112.158 17.8429 112.334 17.9089 112.515 17.9639C112.702 18.0188 112.93 18.0463 113.2 18.0463C113.552 18.0463 113.815 17.9666 113.991 17.8072C114.173 17.6533 114.291 17.4526 114.346 17.2053L114.379 17.0486C114.269 17.1036 114.151 17.1475 114.024 17.1805C113.903 17.2135 113.774 17.23 113.637 17.23C113.378 17.23 113.156 17.1915 112.969 17.1145C112.782 17.0321 112.628 16.9194 112.507 16.7765C112.392 16.6335 112.304 16.4659 112.243 16.2735C112.188 16.0756 112.161 15.8612 112.161 15.6303C112.161 15.2125 112.238 14.8442 112.392 14.5254C112.546 14.201 112.749 13.9317 113.002 13.7173C113.26 13.5029 113.554 13.3407 113.884 13.2308C114.219 13.1208 114.569 13.0659 114.931 13.0659C115.195 13.0659 115.456 13.0934 115.715 13.1483C115.973 13.2033 116.226 13.2885 116.473 13.4039L115.624 16.9744ZM115.08 14.1296C114.986 14.1076 114.871 14.0966 114.733 14.0966C114.525 14.0966 114.338 14.1351 114.173 14.212C114.008 14.2835 113.865 14.3824 113.744 14.5089C113.629 14.6353 113.538 14.7892 113.472 14.9706C113.411 15.1466 113.381 15.3362 113.381 15.5396C113.381 15.6386 113.389 15.732 113.406 15.82C113.422 15.9024 113.453 15.9766 113.497 16.0426C113.541 16.1031 113.601 16.1525 113.678 16.191C113.755 16.2295 113.851 16.2487 113.967 16.2487C114.044 16.2487 114.145 16.235 114.272 16.2075C114.404 16.18 114.522 16.1168 114.626 16.0179L115.08 14.1296Z" fill="#D1D1D1"/>
<path d="M121.102 13.1813L120.517 15.6468C120.44 15.9601 120.418 16.2762 120.451 16.5951C120.484 16.9084 120.547 17.1888 120.641 17.4361L119.544 17.5928C119.483 17.4719 119.426 17.3372 119.371 17.1888C119.217 17.3097 119.044 17.4114 118.851 17.4939C118.659 17.5763 118.444 17.6175 118.208 17.6175C117.884 17.6175 117.62 17.5598 117.417 17.4444C117.219 17.3234 117.07 17.1668 116.971 16.9744C116.872 16.7765 116.817 16.5511 116.806 16.2982C116.801 16.0453 116.831 15.787 116.897 15.5231L117.458 13.1813H118.686L118.134 15.5066C118.106 15.6276 118.082 15.7512 118.06 15.8777C118.043 16.0041 118.043 16.1223 118.06 16.2322C118.076 16.3367 118.117 16.4247 118.183 16.4961C118.255 16.5621 118.365 16.5951 118.513 16.5951C118.64 16.5951 118.755 16.5731 118.86 16.5291C118.969 16.4796 119.085 16.3972 119.206 16.2817C119.217 16.1443 119.233 16.0014 119.255 15.8529C119.283 15.699 119.31 15.5588 119.338 15.4324L119.874 13.1813H121.102Z" fill="#D1D1D1"/>
<path d="M123.148 17.601C122.757 17.601 122.45 17.5516 122.224 17.4526C122.004 17.3482 121.845 17.208 121.746 17.0321C121.653 16.8562 121.606 16.6555 121.606 16.4301C121.611 16.1993 121.644 15.9546 121.705 15.6963L122.752 11.3178L124.03 11.1199L122.884 15.8694C122.862 15.9684 122.848 16.0591 122.843 16.1415C122.843 16.224 122.859 16.2982 122.892 16.3642C122.925 16.4247 122.98 16.4741 123.057 16.5126C123.14 16.5511 123.252 16.5758 123.395 16.5868L123.148 17.601Z" fill="#D1D1D1"/>
<path d="M127.912 15.6468C127.835 15.9601 127.813 16.2762 127.846 16.5951C127.879 16.9084 127.942 17.1888 128.035 17.4361L126.939 17.5928C126.906 17.5268 126.875 17.4636 126.848 17.4031C126.82 17.3427 126.793 17.274 126.765 17.197C126.612 17.3234 126.441 17.4279 126.254 17.5103C126.067 17.5928 125.858 17.634 125.628 17.634C125.353 17.634 125.116 17.5873 124.918 17.4939C124.726 17.3949 124.567 17.2657 124.44 17.1063C124.319 16.9414 124.231 16.7517 124.176 16.5373C124.121 16.3175 124.094 16.0838 124.094 15.8365C124.094 15.4571 124.16 15.0998 124.292 14.7645C124.429 14.4292 124.616 14.1378 124.852 13.8904C125.094 13.6376 125.377 13.4397 125.702 13.2968C126.026 13.1538 126.378 13.0824 126.757 13.0824C126.807 13.0824 126.892 13.0851 127.013 13.0906C127.139 13.0961 127.282 13.1098 127.442 13.1318C127.601 13.1483 127.769 13.1786 127.945 13.2225C128.121 13.2665 128.288 13.327 128.448 13.4039L127.912 15.6468ZM127.054 14.1296C126.983 14.1186 126.917 14.1103 126.856 14.1048C126.801 14.0993 126.733 14.0966 126.65 14.0966C126.463 14.0966 126.287 14.1433 126.122 14.2368C125.963 14.3302 125.823 14.4539 125.702 14.6078C125.581 14.7563 125.485 14.9294 125.413 15.1273C125.347 15.3252 125.314 15.5314 125.314 15.7457C125.314 16.0096 125.358 16.2185 125.446 16.3724C125.534 16.5263 125.696 16.6033 125.933 16.6033C126.059 16.6033 126.172 16.5786 126.271 16.5291C126.375 16.4796 126.485 16.3972 126.601 16.2817C126.612 16.1443 126.628 16.0014 126.65 15.8529C126.678 15.699 126.705 15.5588 126.733 15.4324L127.054 14.1296Z" fill="#D1D1D1"/>
<path d="M129.873 12.1011L131.151 11.9032L130.838 13.1813H132.207L131.959 14.1873H130.599L130.236 15.7045C130.203 15.831 130.181 15.9491 130.17 16.0591C130.165 16.169 130.178 16.2652 130.211 16.3477C130.25 16.4247 130.313 16.4851 130.401 16.5291C130.489 16.5731 130.61 16.5951 130.764 16.5951C130.896 16.5951 131.022 16.5841 131.143 16.5621C131.27 16.5346 131.396 16.4989 131.522 16.4549L131.613 17.3949C131.448 17.4554 131.27 17.5076 131.077 17.5516C130.885 17.5956 130.657 17.6175 130.393 17.6175C130.013 17.6175 129.719 17.5626 129.51 17.4526C129.302 17.3372 129.153 17.1833 129.065 16.9909C128.977 16.793 128.939 16.5676 128.95 16.3147C128.961 16.0618 128.999 15.7952 129.065 15.5149L129.873 12.1011Z" fill="#D1D1D1"/>
<path d="M132.251 15.82C132.251 15.4681 132.312 15.1273 132.432 14.7975C132.559 14.4677 132.735 14.1763 132.96 13.9234C133.186 13.6651 133.458 13.4589 133.777 13.305C134.101 13.1456 134.458 13.0659 134.848 13.0659C135.041 13.0659 135.22 13.0934 135.384 13.1483C135.549 13.2033 135.692 13.283 135.813 13.3875C135.94 13.4919 136.036 13.6211 136.102 13.775C136.173 13.9234 136.209 14.0938 136.209 14.2862C136.209 14.5941 136.14 14.8552 136.003 15.0696C135.865 15.284 135.673 15.4599 135.426 15.5973C135.184 15.7293 134.895 15.8255 134.56 15.8859C134.225 15.9464 133.859 15.9766 133.463 15.9766C133.502 16.2075 133.584 16.3724 133.711 16.4714C133.842 16.5648 134.049 16.6116 134.329 16.6116C134.505 16.6116 134.684 16.5978 134.865 16.5703C135.046 16.5373 135.217 16.4906 135.376 16.4301L135.467 17.3949C135.313 17.4554 135.115 17.5103 134.873 17.5598C134.637 17.6093 134.378 17.634 134.098 17.634C133.757 17.634 133.469 17.5873 133.232 17.4939C133.001 17.3949 132.812 17.263 132.663 17.0981C132.52 16.9331 132.416 16.7407 132.35 16.5209C132.284 16.301 132.251 16.0673 132.251 15.82ZM134.651 14.0389C134.37 14.0389 134.123 14.1406 133.908 14.344C133.7 14.5419 133.562 14.8057 133.496 15.1356C133.837 15.1246 134.112 15.0971 134.321 15.0531C134.53 15.0036 134.692 14.9459 134.807 14.8799C134.923 14.814 135 14.7425 135.038 14.6656C135.077 14.5886 135.096 14.5116 135.096 14.4347C135.096 14.1708 134.947 14.0389 134.651 14.0389Z" fill="#D1D1D1"/>
<path d="M138.166 17.634C137.891 17.634 137.654 17.5873 137.456 17.4939C137.264 17.4004 137.105 17.274 136.978 17.1145C136.857 16.9496 136.766 16.76 136.706 16.5456C136.651 16.3257 136.624 16.0921 136.624 15.8447C136.624 15.4709 136.69 15.1191 136.821 14.7892C136.959 14.4539 137.146 14.1626 137.382 13.9152C137.619 13.6678 137.899 13.4727 138.223 13.3297C138.548 13.1868 138.902 13.1153 139.287 13.1153C139.386 13.1153 139.477 13.1208 139.559 13.1318C139.647 13.1428 139.735 13.1593 139.823 13.1813L140.268 11.3178L141.546 11.1199L140.458 15.6468C140.381 15.9601 140.359 16.2762 140.392 16.5951C140.425 16.9084 140.488 17.1888 140.582 17.4361L139.485 17.5928C139.452 17.5268 139.422 17.4636 139.394 17.4031C139.367 17.3427 139.339 17.274 139.312 17.197C139.158 17.3234 138.985 17.4279 138.792 17.5103C138.605 17.5928 138.396 17.634 138.166 17.634ZM139.584 14.1626C139.551 14.1571 139.521 14.1516 139.493 14.1461C139.471 14.1406 139.446 14.1378 139.419 14.1378C139.397 14.1323 139.367 14.1296 139.328 14.1296C139.29 14.1296 139.24 14.1296 139.18 14.1296C138.987 14.1296 138.809 14.1763 138.644 14.2698C138.479 14.3577 138.336 14.4786 138.215 14.6326C138.1 14.7865 138.009 14.9624 137.943 15.1603C137.877 15.3527 137.844 15.5506 137.844 15.754C137.844 16.0179 137.888 16.2268 137.976 16.3807C138.069 16.5291 138.234 16.6033 138.471 16.6033C138.597 16.6033 138.712 16.5786 138.817 16.5291C138.921 16.4796 139.031 16.3972 139.147 16.2817C139.158 16.1443 139.174 16.0014 139.196 15.8529C139.224 15.699 139.251 15.5588 139.279 15.4324L139.584 14.1626Z" fill="#D1D1D1"/>
<path d="M146.099 13.0906C146.362 13.0906 146.591 13.1373 146.783 13.2308C146.975 13.3242 147.135 13.4507 147.261 13.6101C147.388 13.7695 147.481 13.9564 147.542 14.1708C147.602 14.3852 147.632 14.6161 147.632 14.8635C147.632 15.2428 147.561 15.6028 147.418 15.9436C147.28 16.279 147.091 16.5731 146.849 16.8259C146.607 17.0733 146.321 17.2712 145.991 17.4196C145.662 17.5626 145.304 17.634 144.919 17.634C144.87 17.634 144.782 17.6313 144.656 17.6258C144.535 17.6258 144.394 17.6148 144.235 17.5928C144.076 17.5708 143.905 17.5378 143.724 17.4939C143.548 17.4499 143.38 17.3894 143.221 17.3124L144.647 11.3178L145.925 11.1199L145.414 13.2473C145.524 13.1978 145.634 13.1593 145.744 13.1318C145.854 13.1044 145.972 13.0906 146.099 13.0906ZM145.027 16.6198C145.219 16.6198 145.4 16.5731 145.571 16.4796C145.741 16.3862 145.887 16.2625 146.008 16.1086C146.134 15.9491 146.233 15.7705 146.305 15.5726C146.376 15.3747 146.412 15.1685 146.412 14.9542C146.412 14.6903 146.368 14.4841 146.28 14.3357C146.192 14.1873 146.03 14.1131 145.794 14.1131C145.717 14.1131 145.615 14.1268 145.488 14.1543C145.367 14.1818 145.258 14.2395 145.159 14.3275L144.614 16.5868C144.647 16.5923 144.675 16.5978 144.697 16.6033C144.724 16.6088 144.752 16.6143 144.779 16.6198C144.807 16.6198 144.84 16.6198 144.878 16.6198C144.917 16.6198 144.966 16.6198 145.027 16.6198Z" fill="#D1D1D1"/>
<path d="M152.453 13.1813C152.299 13.5991 152.142 13.9894 151.983 14.3522C151.829 14.715 151.667 15.0613 151.496 15.3912C151.326 15.7155 151.15 16.0261 150.969 16.323C150.787 16.6198 150.595 16.9139 150.391 17.2053C150.243 17.4196 150.089 17.6368 149.93 17.8567C149.77 18.0766 149.592 18.2745 149.394 18.4504C149.201 18.6263 148.984 18.7692 148.742 18.8791C148.506 18.9891 148.231 19.0441 147.918 19.0441C147.725 19.0441 147.56 19.0248 147.423 18.9863C147.286 18.9534 147.156 18.9066 147.035 18.8462L147.407 17.8814C147.516 17.9254 147.615 17.9584 147.703 17.9804C147.791 18.0078 147.899 18.0216 148.025 18.0216C148.217 18.0216 148.399 17.9584 148.569 17.8319C148.745 17.711 148.891 17.5461 149.006 17.3372C148.863 16.7875 148.731 16.1718 148.61 15.4901C148.495 14.8085 148.415 14.0389 148.371 13.1813H149.633C149.638 13.3957 149.649 13.6321 149.666 13.8904C149.682 14.1488 149.702 14.4099 149.724 14.6738C149.746 14.9322 149.77 15.185 149.798 15.4324C149.825 15.6798 149.856 15.9024 149.889 16.1003C150.152 15.7045 150.383 15.2647 150.581 14.781C150.785 14.2972 150.974 13.764 151.15 13.1813H152.453Z" fill="#D1D1D1"/>
<path d="M154.23 17.5186L155.598 11.8043H159.301L159.037 12.868H156.621L156.332 14.0883H158.468L158.212 15.1521H156.077L155.508 17.5186H154.23Z" fill="#D1D1D1"/>
<path d="M160.572 16.5621C160.699 16.5621 160.825 16.5538 160.952 16.5373C161.078 16.5154 161.191 16.4796 161.29 16.4301C161.389 16.3807 161.468 16.312 161.529 16.224C161.595 16.1306 161.628 16.0124 161.628 15.8694C161.628 15.7595 161.597 15.666 161.537 15.5891C161.476 15.5066 161.4 15.4324 161.306 15.3664C161.213 15.3005 161.108 15.24 160.993 15.185C160.877 15.1301 160.762 15.0696 160.646 15.0036C160.498 14.9157 160.358 14.8222 160.226 14.7233C160.094 14.6243 159.981 14.5144 159.888 14.3934C159.794 14.267 159.72 14.1296 159.665 13.9812C159.61 13.8272 159.583 13.6513 159.583 13.4534C159.583 13.2006 159.629 12.9669 159.723 12.7525C159.822 12.5326 159.965 12.343 160.152 12.1836C160.344 12.0242 160.583 11.9005 160.869 11.8125C161.155 11.7191 161.49 11.6723 161.875 11.6723C162.051 11.6723 162.221 11.6888 162.386 11.7218C162.551 11.7493 162.705 11.785 162.848 11.829C162.991 11.873 163.12 11.9252 163.236 11.9857C163.357 12.0406 163.458 12.0956 163.541 12.1506L163.005 13.0989C162.867 12.9944 162.7 12.9065 162.502 12.835C162.304 12.7635 162.089 12.7278 161.859 12.7278C161.732 12.7278 161.611 12.7388 161.496 12.7608C161.38 12.7828 161.279 12.8212 161.191 12.8762C161.103 12.9257 161.031 12.9917 160.976 13.0741C160.927 13.1566 160.902 13.2583 160.902 13.3792C160.902 13.4892 160.921 13.5826 160.96 13.6596C161.004 13.731 161.059 13.7942 161.125 13.8492C161.191 13.9042 161.268 13.9537 161.356 13.9976C161.444 14.0416 161.537 14.0883 161.636 14.1378C161.806 14.2258 161.971 14.3192 162.131 14.4182C162.29 14.5171 162.43 14.6326 162.551 14.7645C162.672 14.8909 162.768 15.0366 162.84 15.2015C162.911 15.3664 162.947 15.5616 162.947 15.787C162.947 16.1003 162.889 16.3724 162.774 16.6033C162.658 16.8342 162.496 17.0266 162.287 17.1805C162.078 17.3344 161.828 17.4471 161.537 17.5186C161.251 17.5956 160.932 17.634 160.58 17.634C160.35 17.634 160.132 17.6148 159.929 17.5763C159.731 17.5378 159.55 17.4939 159.385 17.4444C159.225 17.3894 159.085 17.3317 158.964 17.2712C158.849 17.2107 158.755 17.1558 158.684 17.1063L159.228 16.1251C159.294 16.169 159.374 16.2158 159.467 16.2652C159.561 16.3147 159.665 16.3614 159.781 16.4054C159.902 16.4494 160.028 16.4879 160.16 16.5209C160.292 16.5483 160.429 16.5621 160.572 16.5621Z" fill="#D1D1D1"/>
<path d="M167.347 17.5186C167.336 17.3042 167.322 17.0953 167.306 16.8919C167.295 16.683 167.281 16.4769 167.264 16.2735H165.121C165.011 16.4769 164.895 16.683 164.774 16.8919C164.653 17.0953 164.538 17.3042 164.428 17.5186H163.084C163.441 16.9029 163.774 16.3339 164.082 15.8117C164.395 15.2895 164.694 14.7975 164.98 14.3357C165.272 13.874 165.555 13.4369 165.83 13.0246C166.105 12.6069 166.385 12.2001 166.671 11.8043H167.817C167.905 12.2001 167.987 12.6398 168.064 13.1236C168.147 13.6018 168.221 14.0938 168.287 14.5996C168.358 15.0998 168.422 15.6028 168.477 16.1086C168.537 16.6088 168.592 17.0788 168.641 17.5186H167.347ZM166.968 13.0576C166.737 13.4259 166.509 13.7915 166.283 14.1543C166.063 14.5171 165.849 14.8882 165.64 15.2675H167.182C167.154 14.9322 167.124 14.5748 167.091 14.1955C167.064 13.8162 167.023 13.4369 166.968 13.0576Z" fill="#D1D1D1"/>
<defs>
<clipPath id="clip0">
<rect width="95.8571" height="21.6452" fill="white"/>
</clipPath>
</defs>
</svg>
