<svg width="137" height="20" viewBox="0 0 137 20" fill="none" xmlns="http://www.w3.org/2000/svg">
<path d="M15.687 3.43275H10.0593V19.0344H5.65193V3.43275H0V0.212769H15.687V3.43275Z" fill="#252525"/>
<path d="M34.5668 19.0344H29.4795L24.6775 11.6415H22.6437V19.0344H18.2363V0.212769H26.4926C28.9028 0.212769 30.6694 0.511722 31.7803 1.10963C32.8913 1.70754 33.4498 2.73519 33.4498 4.18636V7.49354C33.4498 8.6333 33.0491 9.51148 32.2478 10.1343C31.4464 10.7509 30.4508 11.137 29.267 11.2927L34.5668 19.0344ZM29.1152 6.59668V5.25761C29.1152 4.56005 28.9149 4.08048 28.5082 3.8189C28.1014 3.55731 27.4093 3.42652 26.4319 3.42652H22.6437V8.64576H26.4319C27.47 8.64576 28.1743 8.50251 28.5507 8.22224C28.927 7.95443 29.1152 7.40634 29.1152 6.59668Z" fill="#252525"/>
<path d="M53.9573 19.0344H49.4892L47.85 14.0768H41.1539L39.5452 19.0344H35.1924L41.9735 0.212769H47.3462L53.9573 19.0344ZM46.8908 11.0561L44.5718 3.98083H44.4565L42.1374 11.0561H46.8908Z" fill="#252525"/>
<path d="M72.5038 5.92403V13.5785C72.5038 15.7023 71.8603 17.1473 70.5794 17.9009C69.2985 18.6545 67.0462 19.0344 63.8226 19.0344H55.9912V0.212769H63.7922C66.9005 0.212769 69.1285 0.611374 70.4762 1.40236C71.8239 2.19334 72.5038 3.70056 72.5038 5.92403ZM68.0904 13.5847V5.83684C68.0904 4.92752 67.7322 4.29847 67.0158 3.94969C66.2995 3.60091 65.2189 3.42652 63.7679 3.42652H60.4047V15.8082H63.6283C65.3221 15.8082 66.4937 15.6774 67.1312 15.4158C67.7686 15.1605 68.0904 14.5501 68.0904 13.5847Z" fill="#252525"/>
<path d="M90.334 19.0344H76.0615V0.212769H90.0548V3.43275H80.475V7.75512H89.1259V10.9751H80.475V15.8206H90.3401V19.0344H90.334Z" fill="#252525"/>
<path d="M97.1699 0.050415H109.512L109.044 2.33617H103.034L101.893 7.83567H106.907L106.44 10.1526H101.426L99.5496 19.1461H93.2178L97.1699 0.050415Z" fill="#FFCC00"/>
<path d="M109.889 0.050415H117.04L117.538 13.0674L122.437 0.050415H128.241L129 13.0674L133.923 0.050415H137.001L129.765 19.1461H123.172L122.558 8.35261L118.163 19.1461H111.127L109.889 0.050415Z" fill="#FFCC00"/>
</svg>
